{"glyphs":{"0":{"ha":800,"x_min":29,"x_max":810,"o":"m 507 944 q 742 848 674 944 q 810 574 810 751 q 755 261 810 397 q 592 48 700 125 q 331 -29 483 -29 q 97 67 164 -29 q 29 342 29 164 q 84 653 29 517 q 247 867 139 790 q 507 944 354 944 m 483 831 q 410 783 440 831 q 359 635 381 735 q 321 374 338 536 q 317 311 321 344 q 314 268 315 294 q 313 206 313 242 q 322 118 313 150 q 358 86 332 86 q 459 194 422 86 q 521 543 496 301 q 526 615 521 565 q 532 719 532 685 q 522 801 532 772 q 483 831 511 831 z "},"1":{"ha":800,"x_min":6,"x_max":779,"o":"m 763 204 q 774 165 769 189 q 779 115 779 140 q 733 18 779 44 q 582 -8 686 -8 q 408 -3 550 -8 q 117 4 175 4 l 75 4 q 47 5 64 4 q 8 4 31 6 q 6 33 6 19 q 7 51 7 47 q 35 153 7 115 q 117 190 64 190 l 238 190 l 350 649 q 197 601 274 601 q 103 641 138 601 q 61 750 68 681 q 308 809 181 768 q 622 929 435 850 l 707 878 l 586 192 l 608 192 q 715 197 674 192 q 763 204 757 203 z "},"2":{"ha":800,"x_min":19,"x_max":774,"o":"m 406 538 q 449 583 436 560 q 461 639 461 606 q 437 698 461 683 q 371 713 413 713 q 253 681 306 713 q 183 601 201 649 q 113 633 143 597 q 83 721 83 668 q 142 842 83 790 q 288 919 200 893 q 464 944 376 944 q 683 888 592 944 q 774 710 774 832 q 738 574 774 635 q 592 449 701 514 q 490 393 569 435 q 313 296 404 347 q 561 272 422 272 q 653 283 617 272 q 713 322 689 294 q 749 255 739 286 q 758 188 758 224 q 692 37 758 90 q 476 -17 626 -17 q 254 7 388 -17 q 203 15 244 8 q 132 21 161 21 q 93 15 106 21 q 72 -1 81 10 q 34 58 49 15 q 19 147 19 101 q 48 249 19 206 q 142 340 76 292 l 406 538 z "},"3":{"ha":800,"x_min":0,"x_max":790,"o":"m 297 542 q 444 588 406 563 q 482 643 482 613 q 447 696 482 676 q 343 715 413 715 q 167 642 253 715 q 128 664 142 643 q 115 719 115 685 q 176 847 115 796 q 324 921 236 897 q 493 944 411 944 q 706 897 622 944 q 790 761 790 849 q 729 618 790 685 q 551 508 668 551 q 695 424 647 486 q 743 279 743 363 q 688 124 743 194 q 528 13 633 54 q 276 -28 422 -28 q 68 13 135 -28 q 0 124 1 54 q 17 198 0 161 q 60 260 33 235 q 123 194 69 217 q 238 171 176 171 q 367 203 322 171 q 411 290 411 235 q 381 369 411 340 q 269 399 351 399 l 297 542 z "},"4":{"ha":800,"x_min":10,"x_max":782,"o":"m 781 917 q 663 360 718 675 l 675 360 q 725 365 700 361 q 761 371 750 369 q 776 332 769 358 q 782 285 782 306 q 748 190 782 225 q 661 154 714 154 l 632 154 l 610 0 l 304 0 l 333 153 l 31 153 q 14 206 18 185 q 10 250 10 226 q 22 338 10 296 q 60 408 35 379 l 518 917 l 781 917 m 372 357 q 475 713 432 603 l 160 357 l 372 357 z "},"5":{"ha":800,"x_min":18,"x_max":799,"o":"m 563 917 q 792 931 746 917 q 799 860 799 903 q 731 708 799 751 q 542 664 664 664 l 319 664 l 285 578 q 481 586 397 586 q 675 528 600 586 q 750 347 750 471 q 697 163 750 249 q 539 24 643 76 q 290 -28 435 -28 q 97 3 176 -28 q 18 125 18 35 q 32 199 18 161 q 69 260 46 236 q 144 192 99 213 q 257 171 189 171 q 421 293 421 171 q 399 367 421 342 q 340 399 376 392 q 247 406 304 406 q 90 404 138 406 l 229 917 l 563 917 z "},"6":{"ha":800,"x_min":22,"x_max":804,"o":"m 589 944 q 742 913 681 944 q 804 808 804 881 q 790 742 804 775 q 747 688 775 710 q 601 739 700 739 q 426 676 490 739 q 338 494 363 614 q 424 593 382 564 q 539 622 465 622 q 718 551 657 622 q 779 364 779 479 q 719 156 779 244 q 562 19 660 67 q 350 -28 464 -28 q 106 67 190 -28 q 22 324 22 161 q 97 626 22 482 q 303 857 172 769 q 589 944 433 944 m 426 454 q 356 416 383 454 q 318 328 329 378 q 307 238 307 278 q 368 150 307 150 q 438 187 411 150 q 476 274 465 224 q 488 365 488 324 q 426 454 488 454 z "},"7":{"ha":800,"x_min":88,"x_max":836,"o":"m 836 744 l 811 713 q 772 662 800 699 q 721 590 744 625 q 511 271 571 383 q 451 85 451 158 q 458 31 451 61 q 460 4 458 13 q 376 -19 422 -10 q 294 -28 331 -28 q 174 14 218 -28 q 131 136 131 56 q 152 222 131 176 q 229 326 174 267 l 582 675 l 344 675 q 208 683 261 675 q 122 722 156 692 q 88 815 88 753 q 97 876 88 851 q 125 931 107 901 q 360 917 194 917 l 818 917 l 836 744 z "},"8":{"ha":800,"x_min":13,"x_max":796,"o":"m 538 944 q 721 898 646 944 q 796 757 796 851 q 739 615 796 674 q 603 528 682 557 q 706 436 674 469 q 749 375 738 403 q 761 307 761 347 q 700 128 761 204 q 539 13 639 53 q 324 -28 439 -28 q 101 26 190 -28 q 13 189 13 79 q 59 322 13 261 q 214 436 106 382 q 147 514 167 475 q 128 606 128 553 q 185 780 128 703 q 335 901 242 857 q 538 944 429 944 m 511 601 q 554 647 539 618 q 569 706 569 675 q 548 767 569 742 q 488 792 526 792 q 424 773 450 792 q 397 721 397 754 q 412 680 397 697 q 457 640 426 663 l 511 601 m 304 349 q 262 301 276 332 q 247 236 247 271 q 269 165 247 194 q 331 135 290 135 q 392 164 365 135 q 418 229 418 193 q 403 270 418 253 q 358 310 389 288 l 304 349 z "},"9":{"ha":800,"x_min":25,"x_max":807,"o":"m 479 944 q 723 849 639 944 q 807 593 807 754 q 731 291 807 435 q 525 60 656 147 q 239 -28 394 -28 q 87 4 149 -28 q 25 107 25 36 q 40 174 25 142 q 81 228 54 207 q 226 176 131 176 q 401 239 338 176 q 490 422 465 301 q 404 324 447 353 q 289 294 361 294 q 110 366 171 294 q 49 553 49 438 q 108 761 49 672 q 267 897 168 850 q 479 944 367 944 m 460 765 q 390 728 417 765 q 352 642 364 692 q 340 551 340 592 q 401 461 340 461 q 472 499 444 461 q 510 588 499 538 q 522 678 522 638 q 460 765 522 765 z "},"\u0000":{"ha":0,"x_min":0,"x_max":0,"o":""},"\r":{"ha":251,"x_min":0,"x_max":0,"o":""}," ":{"ha":251,"x_min":0,"x_max":0,"o":""},"A":{"ha":854,"x_min":-78,"x_max":856,"o":"m 772 276 q 798 141 778 199 q 856 63 818 83 q 782 -3 831 21 q 668 -28 733 -28 q 532 10 582 -28 q 458 129 482 49 q 452 153 457 136 q 442 217 447 171 l 211 217 q 133 0 156 81 l -78 0 l 371 917 l 738 917 l 772 276 m 419 681 q 282 389 363 569 l 256 332 l 438 332 l 419 681 z "},"Á":{"ha":854,"x_min":-78,"x_max":856,"o":"m 0 0 m 772 276 q 798 141 778 199 q 856 63 818 83 q 782 -3 831 21 q 668 -28 733 -28 q 532 10 582 -28 q 458 129 482 49 q 452 153 457 136 q 442 217 447 171 l 211 217 q 133 0 156 81 l -78 0 l 371 917 l 738 917 l 772 276 m 419 681 q 282 389 363 569 l 256 332 l 438 332 l 419 681 m 440 1056 l 788 1207 q 820 1172 810 1190 q 831 1125 831 1153 q 774 1024 831 1057 q 626 989 717 990 l 460 985 l 440 1056 z "},"Ă":{"ha":854,"x_min":-78,"x_max":871,"o":"m 0 0 m 772 276 q 798 141 778 199 q 856 63 818 83 q 782 -3 831 21 q 668 -28 733 -28 q 532 10 582 -28 q 458 129 482 49 q 452 153 457 136 q 442 217 447 171 l 211 217 q 133 0 156 81 l -78 0 l 371 917 l 738 917 l 772 276 m 419 681 q 282 389 363 569 l 256 332 l 438 332 l 419 681 m 533 1157 q 528 1100 528 1118 l 526 1078 q 565 1040 526 1040 q 603 1062 592 1040 q 626 1128 615 1083 q 633 1157 628 1138 l 871 1157 q 767 1024 853 1075 q 543 972 681 972 q 347 1014 411 972 q 283 1119 283 1056 q 288 1157 283 1136 l 533 1157 z "},"Â":{"ha":854,"x_min":-78,"x_max":856,"o":"m 0 0 m 772 276 q 798 141 778 199 q 856 63 818 83 q 782 -3 831 21 q 668 -28 733 -28 q 532 10 582 -28 q 458 129 482 49 q 452 153 457 136 q 442 217 447 171 l 211 217 q 133 0 156 81 l -78 0 l 371 917 l 738 917 l 772 276 m 419 681 q 282 389 363 569 l 256 332 l 438 332 l 419 681 m 835 1019 l 758 957 l 588 1008 l 369 957 l 324 1019 l 574 1186 l 636 1186 l 835 1019 z "},"Ä":{"ha":854,"x_min":-78,"x_max":894,"o":"m 0 0 m 772 276 q 798 141 778 199 q 856 63 818 83 q 782 -3 831 21 q 668 -28 733 -28 q 532 10 582 -28 q 458 129 482 49 q 452 153 457 136 q 442 217 447 171 l 211 217 q 133 0 156 81 l -78 0 l 371 917 l 738 917 l 772 276 m 419 681 q 282 389 363 569 l 256 332 l 438 332 l 419 681 m 389 1193 q 504 1161 460 1193 q 549 1075 549 1129 q 503 989 549 1019 q 383 958 457 958 q 265 988 310 958 q 219 1072 219 1018 q 268 1160 219 1128 q 389 1193 317 1193 m 735 1193 q 850 1161 806 1193 q 894 1075 894 1129 q 849 989 894 1019 q 729 958 803 958 q 610 988 656 958 q 565 1072 565 1018 q 614 1160 565 1128 q 735 1193 663 1193 z "},"À":{"ha":854,"x_min":-78,"x_max":856,"o":"m 0 0 m 772 276 q 798 141 778 199 q 856 63 818 83 q 782 -3 831 21 q 668 -28 733 -28 q 532 10 582 -28 q 458 129 482 49 q 452 153 457 136 q 442 217 447 171 l 211 217 q 133 0 156 81 l -78 0 l 371 917 l 738 917 l 772 276 m 419 681 q 282 389 363 569 l 256 332 l 438 332 l 419 681 m 711 986 l 543 990 q 397 1026 453 993 q 340 1128 340 1060 q 351 1174 340 1156 q 383 1208 363 1193 l 731 1058 l 711 986 z "},"Ā":{"ha":854,"x_min":-78,"x_max":856,"o":"m 796 1164 q 801 1122 801 1142 q 773 1056 801 1082 q 690 1031 744 1031 l 350 1031 q 346 1069 346 1043 q 375 1138 347 1111 q 444 1164 403 1164 l 796 1164 m 772 276 q 798 141 778 199 q 856 63 818 83 q 782 -3 831 21 q 668 -28 733 -28 q 532 10 582 -28 q 458 129 482 49 q 452 153 457 136 q 442 217 447 171 l 211 217 q 133 0 156 81 l -78 0 l 371 917 l 738 917 l 772 276 m 419 681 q 282 389 363 569 l 256 332 l 438 332 l 419 681 z "},"Ą":{"ha":854,"x_min":-78,"x_max":861,"o":"m 835 -186 q 855 -226 849 -207 q 861 -269 861 -244 q 817 -333 861 -307 q 688 -358 772 -358 q 556 -322 603 -358 q 510 -214 510 -285 q 615 -24 510 -93 q 515 24 553 -14 q 458 129 478 61 q 452 153 457 136 q 442 217 447 171 l 211 217 q 133 0 156 81 l -78 0 l 371 917 l 738 917 l 772 276 q 798 141 778 199 q 856 63 818 83 q 813 14 838 33 q 726 -69 758 -24 q 693 -160 693 -114 q 708 -206 693 -192 q 751 -221 722 -221 q 797 -212 775 -221 q 835 -186 819 -204 m 438 332 l 419 681 q 282 389 363 569 l 256 332 l 438 332 z "},"Å":{"ha":854,"x_min":-78,"x_max":856,"o":"m 0 0 m 772 276 q 798 141 778 199 q 856 63 818 83 q 782 -3 831 21 q 668 -28 733 -28 q 532 10 582 -28 q 458 129 482 49 q 452 153 457 136 q 442 217 447 171 l 211 217 q 133 0 156 81 l -78 0 l 371 917 l 738 917 l 772 276 m 419 681 q 282 389 363 569 l 256 332 l 438 332 l 419 681 m 735 1089 q 680 994 735 1029 q 549 958 625 958 q 453 984 489 958 q 417 1054 417 1010 q 474 1150 417 1114 q 610 1186 531 1186 q 701 1161 667 1186 q 735 1089 735 1136 m 635 1085 q 626 1119 635 1108 q 596 1129 617 1129 q 538 1110 557 1129 q 518 1056 518 1090 q 528 1022 518 1032 q 561 1011 538 1011 q 635 1085 635 1011 z "},"Ǻ":{"ha":854,"x_min":-78,"x_max":856,"o":"m 460 1100 l 440 1171 l 788 1322 q 820 1287 810 1306 q 831 1240 831 1268 q 774 1139 831 1172 q 626 1104 717 1106 l 460 1100 m 772 276 q 798 141 778 199 q 856 63 818 83 q 782 -3 831 21 q 668 -28 733 -28 q 532 10 582 -28 q 458 129 482 49 q 452 153 457 136 q 442 217 447 171 l 211 217 q 133 0 156 81 l -78 0 l 371 917 l 408 917 q 397 960 397 936 q 454 1056 397 1019 q 590 1092 511 1092 q 681 1067 647 1092 q 715 994 715 1042 q 682 917 715 950 l 738 917 l 772 276 m 499 961 q 508 927 499 938 q 542 917 518 917 q 615 990 615 917 q 606 1024 615 1014 q 576 1035 597 1035 q 518 1015 538 1035 q 499 961 499 996 m 438 332 l 419 681 q 282 389 363 569 l 256 332 l 438 332 z "},"Ã":{"ha":854,"x_min":-78,"x_max":869,"o":"m 0 0 m 772 276 q 798 141 778 199 q 856 63 818 83 q 782 -3 831 21 q 668 -28 733 -28 q 532 10 582 -28 q 458 129 482 49 q 452 153 457 136 q 442 217 447 171 l 211 217 q 133 0 156 81 l -78 0 l 371 917 l 738 917 l 772 276 m 419 681 q 282 389 363 569 l 256 332 l 438 332 l 419 681 m 840 1190 q 869 1113 869 1156 q 831 1030 869 1058 q 722 1001 792 1001 q 547 1015 678 1001 q 411 1028 444 1028 q 354 1020 383 1028 q 311 1003 325 1013 q 281 1089 281 1043 q 319 1164 281 1138 q 431 1190 358 1190 q 528 1185 467 1190 q 608 1178 590 1179 q 750 1167 722 1167 q 840 1190 815 1167 z "},"Æ":{"ha":1115,"x_min":-85,"x_max":1197,"o":"m 271 246 q 199 89 219 140 q 160 0 181 43 l -85 0 l 474 917 l 1197 917 q 1149 772 1197 821 q 1021 722 1101 722 q 868 760 944 722 l 832 544 l 1097 544 q 1059 415 1097 461 q 950 368 1021 368 q 881 377 919 368 q 811 403 842 386 q 799 367 804 394 q 794 310 794 340 q 819 230 794 250 q 913 210 844 210 q 1069 233 1007 210 q 1083 151 1083 196 q 818 -28 1083 -28 q 580 31 668 -28 q 492 218 492 90 q 492 237 492 229 q 492 246 493 244 l 271 246 m 518 436 q 572 776 546 617 q 324 353 435 569 l 506 353 l 518 436 z "},"Ǽ":{"ha":1115,"x_min":-85,"x_max":1197,"o":"m 0 0 m 271 246 q 199 89 219 140 q 160 0 181 43 l -85 0 l 474 917 l 1197 917 q 1149 772 1197 821 q 1021 722 1101 722 q 868 760 944 722 l 832 544 l 1097 544 q 1059 415 1097 461 q 950 368 1021 368 q 881 377 919 368 q 811 403 842 386 q 799 367 804 394 q 794 310 794 340 q 819 230 794 250 q 913 210 844 210 q 1069 233 1007 210 q 1083 151 1083 196 q 818 -28 1083 -28 q 580 31 668 -28 q 492 218 492 90 q 492 237 492 229 q 492 246 493 244 l 271 246 m 518 436 q 572 776 546 617 q 324 353 435 569 l 506 353 l 518 436 m 594 1056 l 942 1207 q 974 1172 964 1190 q 985 1125 985 1153 q 928 1024 985 1057 q 781 989 871 990 l 614 985 l 594 1056 z "},"B":{"ha":878,"x_min":-14,"x_max":875,"o":"m 676 521 q 856 306 856 494 q 710 66 856 136 q 279 -4 564 -4 l 221 -4 q -14 0 85 -4 l 161 917 q 451 921 288 921 q 669 910 583 921 q 815 861 756 900 q 875 740 875 822 q 819 602 875 660 q 676 521 763 544 m 442 535 q 572 591 533 539 q 610 717 610 643 q 584 805 610 778 q 501 832 558 832 q 502 833 503 832 q 500 833 501 833 l 442 535 m 358 97 q 497 158 458 99 q 536 297 536 217 q 510 399 536 364 q 424 440 483 435 l 358 97 m 358 94 q 358 97 361 96 l 358 94 z "},"C":{"ha":915,"x_min":47,"x_max":954,"o":"m 651 944 q 954 783 954 944 q 924 687 954 731 q 842 618 893 643 q 733 593 792 593 q 671 596 693 593 q 683 717 683 661 q 608 846 683 846 q 508 769 553 846 q 436 586 463 692 q 410 406 410 481 q 456 266 410 308 q 601 224 503 224 q 738 242 676 224 q 838 297 800 260 q 869 200 869 271 q 821 90 869 142 q 680 5 772 38 q 461 -28 588 -28 q 149 70 251 -28 q 47 374 47 168 q 119 678 47 550 q 326 876 190 807 q 651 944 463 944 z "},"Ć":{"ha":915,"x_min":47,"x_max":954,"o":"m 47 0 m 651 944 q 954 783 954 944 q 924 687 954 731 q 842 618 893 643 q 733 593 792 593 q 671 596 693 593 q 683 717 683 661 q 608 846 683 846 q 508 769 553 846 q 436 586 463 692 q 410 406 410 481 q 456 266 410 308 q 601 224 503 224 q 738 242 676 224 q 838 297 800 260 q 869 200 869 271 q 821 90 869 142 q 680 5 772 38 q 461 -28 588 -28 q 149 70 251 -28 q 47 374 47 168 q 119 678 47 550 q 326 876 190 807 q 651 944 463 944 m 522 1056 l 869 1207 q 902 1172 892 1190 q 913 1125 913 1153 q 856 1024 913 1057 q 708 989 799 990 l 542 985 l 522 1056 z "},"Č":{"ha":915,"x_min":47,"x_max":958,"o":"m 47 0 m 651 944 q 954 783 954 944 q 924 687 954 731 q 842 618 893 643 q 733 593 792 593 q 671 596 693 593 q 683 717 683 661 q 608 846 683 846 q 508 769 553 846 q 436 586 463 692 q 410 406 410 481 q 456 266 410 308 q 601 224 503 224 q 738 242 676 224 q 838 297 800 260 q 869 200 869 271 q 821 90 869 142 q 680 5 772 38 q 461 -28 588 -28 q 149 70 251 -28 q 47 374 47 168 q 119 678 47 550 q 326 876 190 807 q 651 944 463 944 m 419 1146 l 496 1208 l 681 1129 l 913 1208 l 958 1146 l 736 965 l 590 965 l 419 1146 z "},"Ç":{"ha":915,"x_min":47,"x_max":954,"o":"m 733 593 q 671 596 693 593 q 683 717 683 661 q 608 846 683 846 q 508 769 553 846 q 436 586 463 692 q 410 406 410 481 q 456 266 410 308 q 601 224 503 224 q 738 242 676 224 q 838 297 800 260 q 869 200 869 271 q 826 94 869 144 q 700 12 783 44 q 501 -26 617 -21 l 488 -75 l 492 -75 q 608 -103 563 -75 q 653 -190 653 -132 q 620 -279 653 -240 q 531 -340 588 -318 q 410 -361 475 -361 q 309 -340 346 -361 q 272 -285 272 -319 q 279 -241 272 -264 q 299 -203 286 -218 q 333 -238 313 -226 q 390 -250 354 -250 q 429 -237 411 -250 q 447 -199 447 -224 q 393 -153 447 -153 q 332 -156 371 -153 l 372 -22 q 128 94 208 -3 q 47 374 47 192 q 119 678 47 550 q 326 876 190 807 q 651 944 463 944 q 954 783 954 944 q 924 687 954 731 q 842 618 893 643 q 733 593 792 593 z "},"Ĉ":{"ha":915,"x_min":47,"x_max":954,"o":"m 47 0 m 651 944 q 954 783 954 944 q 924 687 954 731 q 842 618 893 643 q 733 593 792 593 q 671 596 693 593 q 683 717 683 661 q 608 846 683 846 q 508 769 553 846 q 436 586 463 692 q 410 406 410 481 q 456 266 410 308 q 601 224 503 224 q 738 242 676 224 q 838 297 800 260 q 869 200 869 271 q 821 90 869 142 q 680 5 772 38 q 461 -28 588 -28 q 149 70 251 -28 q 47 374 47 168 q 119 678 47 550 q 326 876 190 807 q 651 944 463 944 m 917 1019 l 840 957 l 669 1008 l 451 957 l 406 1019 l 656 1186 l 718 1186 l 917 1019 z "},"Ċ":{"ha":915,"x_min":47,"x_max":954,"o":"m 651 1193 q 767 1161 722 1193 q 811 1075 811 1129 q 765 989 811 1019 q 646 958 719 958 q 527 988 572 958 q 482 1072 482 1018 q 531 1160 482 1128 q 651 1193 579 1193 m 651 944 q 954 783 954 944 q 924 687 954 731 q 842 618 893 643 q 733 593 792 593 q 671 596 693 593 q 683 717 683 661 q 608 846 683 846 q 508 769 553 846 q 436 586 463 692 q 410 406 410 481 q 456 266 410 308 q 601 224 503 224 q 738 242 676 224 q 838 297 800 260 q 869 200 869 271 q 821 90 869 142 q 680 5 772 38 q 461 -28 588 -28 q 149 70 251 -28 q 47 374 47 168 q 119 678 47 550 q 326 876 190 807 q 651 944 463 944 z "},"D":{"ha":985,"x_min":-15,"x_max":978,"o":"m 161 917 q 347 921 229 921 l 407 921 q 738 893 619 921 q 917 782 857 865 q 978 531 978 699 q 893 212 978 329 q 650 45 808 94 q 254 -4 492 -4 q -15 0 83 -4 l 161 917 m 363 99 q 378 97 374 97 q 547 200 488 97 q 640 513 607 303 q 657 710 657 624 q 629 797 657 772 q 538 822 601 822 q 501 821 513 822 l 363 99 z "},"Ǳ":{"ha":1765,"x_min":-15,"x_max":1815,"o":"m 0 0 m 161 917 q 347 921 229 921 l 407 921 q 738 893 619 921 q 917 782 857 865 q 978 531 978 699 q 893 212 978 329 q 650 45 808 94 q 254 -4 492 -4 q -15 0 83 -4 l 161 917 m 363 99 q 378 97 374 97 q 547 200 488 97 q 640 513 607 303 q 657 710 657 624 q 629 797 657 772 q 538 822 601 822 q 501 821 513 822 l 363 99 m 1514 613 q 1281 639 1378 639 q 1183 631 1219 639 q 1117 611 1147 624 q 1069 764 1069 685 q 1125 894 1069 851 q 1283 938 1181 938 q 1443 921 1329 938 q 1617 904 1560 904 q 1749 917 1690 904 q 1801 846 1788 885 q 1815 760 1815 807 q 1784 637 1815 688 q 1683 532 1753 586 l 1264 306 q 1519 275 1371 275 q 1612 284 1574 275 q 1678 324 1650 293 q 1732 163 1732 236 q 1663 33 1732 81 q 1460 -15 1593 -15 q 1238 8 1374 -15 q 1117 22 1143 22 q 1077 17 1090 22 q 1057 0 1064 11 q 1012 73 1031 22 q 993 176 993 124 q 1020 283 993 233 q 1110 383 1047 333 l 1514 613 z "},"Ǆ":{"ha":1765,"x_min":-15,"x_max":1815,"o":"m 0 0 m 161 917 q 347 921 229 921 l 407 921 q 738 893 619 921 q 917 782 857 865 q 978 531 978 699 q 893 212 978 329 q 650 45 808 94 q 254 -4 492 -4 q -15 0 83 -4 l 161 917 m 363 99 q 378 97 374 97 q 547 200 488 97 q 640 513 607 303 q 657 710 657 624 q 629 797 657 772 q 538 822 601 822 q 501 821 513 822 l 363 99 m 1514 613 q 1281 639 1378 639 q 1183 631 1219 639 q 1117 611 1147 624 q 1069 764 1069 685 q 1125 894 1069 851 q 1283 938 1181 938 q 1443 921 1329 938 q 1617 904 1560 904 q 1749 917 1690 904 q 1801 846 1788 885 q 1815 760 1815 807 q 1784 637 1815 688 q 1683 532 1753 586 l 1264 306 q 1519 275 1371 275 q 1612 284 1574 275 q 1678 324 1650 293 q 1732 163 1732 236 q 1663 33 1732 81 q 1460 -15 1593 -15 q 1238 8 1374 -15 q 1117 22 1143 22 q 1077 17 1090 22 q 1057 0 1064 11 q 1012 73 1031 22 q 993 176 993 124 q 1020 283 993 233 q 1110 383 1047 333 l 1514 613 m 1253 1146 l 1329 1208 l 1514 1129 l 1746 1208 l 1792 1146 l 1569 965 l 1424 965 l 1253 1146 z "},"Ð":{"ha":1025,"x_min":4,"x_max":1018,"o":"m 4 0 m 201 917 q 388 921 269 921 l 447 921 q 778 893 660 921 q 958 782 897 865 q 1018 531 1018 699 q 933 212 1018 329 q 690 45 849 94 q 294 -4 532 -4 q 25 0 124 -4 l 103 401 l 10 401 q 4 442 4 415 q 35 514 6 485 q 107 543 65 543 l 131 543 l 201 917 m 403 99 q 418 97 414 97 q 588 200 528 97 q 681 513 647 303 q 697 710 697 624 q 669 797 697 772 q 578 822 642 822 q 542 821 553 822 l 489 543 l 565 543 q 572 501 572 513 q 542 430 572 458 q 458 401 511 401 l 461 401 l 403 99 z "},"Ď":{"ha":985,"x_min":-15,"x_max":978,"o":"m 0 0 m 161 917 q 347 921 229 921 l 407 921 q 738 893 619 921 q 917 782 857 865 q 978 531 978 699 q 893 212 978 329 q 650 45 808 94 q 254 -4 492 -4 q -15 0 83 -4 l 161 917 m 363 99 q 378 97 374 97 q 547 200 488 97 q 640 513 607 303 q 657 710 657 624 q 629 797 657 772 q 538 822 601 822 q 501 821 513 822 l 363 99 m 288 1146 l 364 1208 l 549 1129 l 781 1208 l 826 1146 l 604 965 l 458 965 l 288 1146 z "},"Đ":{"ha":1025,"x_min":4,"x_max":1018,"o":"m 201 917 q 388 921 269 921 l 447 921 q 778 893 660 921 q 958 782 897 865 q 1018 531 1018 699 q 933 212 1018 329 q 690 45 849 94 q 294 -4 532 -4 q 25 0 124 -4 l 103 401 l 10 401 q 4 442 4 415 q 35 514 6 485 q 107 543 65 543 l 131 543 l 201 917 m 403 99 q 418 97 414 97 q 588 200 528 97 q 681 513 647 303 q 697 710 697 624 q 669 797 697 772 q 578 822 642 822 q 542 821 553 822 l 489 543 l 565 543 q 572 501 572 513 q 542 430 572 458 q 458 401 511 401 l 461 401 l 403 99 z "},"Ḍ":{"ha":985,"x_min":-15,"x_max":978,"o":"m 0 0 m 161 917 q 347 921 229 921 l 407 921 q 738 893 619 921 q 917 782 857 865 q 978 531 978 699 q 893 212 978 329 q 650 45 808 94 q 254 -4 492 -4 q -15 0 83 -4 l 161 917 m 363 99 q 378 97 374 97 q 547 200 488 97 q 640 513 607 303 q 657 710 657 624 q 629 797 657 772 q 538 822 601 822 q 501 821 513 822 l 363 99 m 385 -44 q 500 -76 456 -44 q 544 -162 544 -108 q 499 -249 544 -218 q 379 -279 453 -279 q 260 -249 306 -279 q 215 -165 215 -219 q 264 -77 215 -110 q 385 -44 313 -44 z "},"ǲ":{"ha":1661,"x_min":-15,"x_max":1685,"o":"m 0 0 m 161 917 q 347 921 229 921 l 407 921 q 738 893 619 921 q 917 782 857 865 q 978 531 978 699 q 893 212 978 329 q 650 45 808 94 q 254 -4 492 -4 q -15 0 83 -4 l 161 917 m 363 99 q 378 97 374 97 q 547 200 488 97 q 640 513 607 303 q 657 710 657 624 q 629 797 657 772 q 538 822 601 822 q 501 821 513 822 l 363 99 m 1400 447 q 1228 479 1301 479 q 1090 406 1117 479 q 1047 485 1063 438 q 1032 578 1032 532 q 1084 699 1032 661 q 1224 736 1136 736 q 1332 728 1269 736 q 1406 718 1394 719 q 1564 701 1525 701 q 1643 717 1614 701 q 1685 622 1685 678 q 1655 532 1685 571 q 1571 457 1625 493 l 1249 285 q 1344 258 1306 267 q 1415 249 1382 249 q 1507 265 1461 249 q 1582 313 1553 281 q 1628 178 1628 261 q 1571 22 1628 75 q 1413 -31 1514 -31 q 1347 -25 1379 -31 q 1264 -8 1315 -19 q 1208 3 1256 -7 q 1118 13 1161 13 q 1025 0 1081 13 q 985 41 999 17 q 971 104 971 65 q 997 196 971 156 q 1069 271 1022 236 l 1400 447 z "},"ǅ":{"ha":1661,"x_min":-15,"x_max":1722,"o":"m 0 0 m 161 917 q 347 921 229 921 l 407 921 q 738 893 619 921 q 917 782 857 865 q 978 531 978 699 q 893 212 978 329 q 650 45 808 94 q 254 -4 492 -4 q -15 0 83 -4 l 161 917 m 363 99 q 378 97 374 97 q 547 200 488 97 q 640 513 607 303 q 657 710 657 624 q 629 797 657 772 q 538 822 601 822 q 501 821 513 822 l 363 99 m 1400 447 q 1228 479 1301 479 q 1090 406 1117 479 q 1047 485 1063 438 q 1032 578 1032 532 q 1084 699 1032 661 q 1224 736 1136 736 q 1332 728 1269 736 q 1406 718 1394 719 q 1564 701 1525 701 q 1643 717 1614 701 q 1685 622 1685 678 q 1655 532 1685 571 q 1571 457 1625 493 l 1249 285 q 1344 258 1306 267 q 1415 249 1382 249 q 1507 265 1461 249 q 1582 313 1553 281 q 1628 178 1628 261 q 1571 22 1628 75 q 1413 -31 1514 -31 q 1347 -25 1379 -31 q 1264 -8 1315 -19 q 1208 3 1256 -7 q 1118 13 1161 13 q 1025 0 1081 13 q 985 41 999 17 q 971 104 971 65 q 997 196 971 156 q 1069 271 1022 236 l 1400 447 m 1183 938 l 1260 1000 l 1444 921 l 1676 1000 l 1722 938 l 1500 757 l 1354 757 l 1183 938 z "},"E":{"ha":743,"x_min":-7,"x_max":828,"o":"m 657 722 q 561 735 604 722 q 500 760 518 749 l 461 544 l 707 544 q 672 415 707 463 q 560 368 636 368 q 481 380 518 368 q 433 399 443 392 l 393 188 l 494 188 q 646 200 586 188 q 660 163 656 188 q 665 117 665 139 q 476 0 665 0 l -7 0 l 161 917 l 828 917 q 788 772 828 821 q 657 722 747 722 z "},"É":{"ha":743,"x_min":-7,"x_max":828,"o":"m 0 0 m 657 722 q 561 735 604 722 q 500 760 518 749 l 461 544 l 707 544 q 672 415 707 463 q 560 368 636 368 q 481 380 518 368 q 433 399 443 392 l 393 188 l 494 188 q 646 200 586 188 q 660 163 656 188 q 665 117 665 139 q 476 0 665 0 l -7 0 l 161 917 l 828 917 q 788 772 828 821 q 657 722 747 722 m 361 1056 l 708 1207 q 741 1172 731 1190 q 751 1125 751 1153 q 694 1024 751 1057 q 547 989 638 990 l 381 985 l 361 1056 z "},"Ĕ":{"ha":743,"x_min":-7,"x_max":828,"o":"m 0 0 m 657 722 q 561 735 604 722 q 500 760 518 749 l 461 544 l 707 544 q 672 415 707 463 q 560 368 636 368 q 481 380 518 368 q 433 399 443 392 l 393 188 l 494 188 q 646 200 586 188 q 660 163 656 188 q 665 117 665 139 q 476 0 665 0 l -7 0 l 161 917 l 828 917 q 788 772 828 821 q 657 722 747 722 m 454 1157 q 449 1100 449 1118 l 447 1078 q 486 1040 447 1040 q 524 1062 513 1040 q 547 1128 536 1083 q 554 1157 549 1138 l 792 1157 q 688 1024 774 1075 q 464 972 601 972 q 268 1014 332 972 q 204 1119 204 1056 q 208 1157 204 1136 l 454 1157 z "},"Ě":{"ha":743,"x_min":-7,"x_max":828,"o":"m 0 0 m 657 722 q 561 735 604 722 q 500 760 518 749 l 461 544 l 707 544 q 672 415 707 463 q 560 368 636 368 q 481 380 518 368 q 433 399 443 392 l 393 188 l 494 188 q 646 200 586 188 q 660 163 656 188 q 665 117 665 139 q 476 0 665 0 l -7 0 l 161 917 l 828 917 q 788 772 828 821 q 657 722 747 722 m 258 1146 l 335 1208 l 519 1129 l 751 1208 l 797 1146 l 575 965 l 429 965 l 258 1146 z "},"Ê":{"ha":743,"x_min":-7,"x_max":828,"o":"m 0 0 m 657 722 q 561 735 604 722 q 500 760 518 749 l 461 544 l 707 544 q 672 415 707 463 q 560 368 636 368 q 481 380 518 368 q 433 399 443 392 l 393 188 l 494 188 q 646 200 586 188 q 660 163 656 188 q 665 117 665 139 q 476 0 665 0 l -7 0 l 161 917 l 828 917 q 788 772 828 821 q 657 722 747 722 m 756 1019 l 679 957 l 508 1008 l 290 957 l 244 1019 l 494 1186 l 557 1186 l 756 1019 z "},"Ë":{"ha":743,"x_min":-7,"x_max":828,"o":"m 0 0 m 657 722 q 561 735 604 722 q 500 760 518 749 l 461 544 l 707 544 q 672 415 707 463 q 560 368 636 368 q 481 380 518 368 q 433 399 443 392 l 393 188 l 494 188 q 646 200 586 188 q 660 163 656 188 q 665 117 665 139 q 476 0 665 0 l -7 0 l 161 917 l 828 917 q 788 772 828 821 q 657 722 747 722 m 310 1193 q 425 1161 381 1193 q 469 1075 469 1129 q 424 989 469 1019 q 304 958 378 958 q 185 988 231 958 q 140 1072 140 1018 q 189 1160 140 1128 q 310 1193 238 1193 m 656 1193 q 771 1161 726 1193 q 815 1075 815 1129 q 769 989 815 1019 q 650 958 724 958 q 531 988 576 958 q 486 1072 486 1018 q 535 1160 486 1128 q 656 1193 583 1193 z "},"Ė":{"ha":743,"x_min":-7,"x_max":828,"o":"m 485 958 q 366 988 411 958 q 321 1072 321 1018 q 369 1160 321 1128 q 490 1193 418 1193 q 606 1161 561 1193 q 650 1075 650 1129 q 604 989 650 1019 q 485 958 558 958 m 657 722 q 561 735 604 722 q 500 760 518 749 l 461 544 l 707 544 q 672 415 707 463 q 560 368 636 368 q 481 380 518 368 q 433 399 443 392 l 393 188 l 494 188 q 646 200 586 188 q 660 163 656 188 q 665 117 665 139 q 476 0 665 0 l -7 0 l 161 917 l 828 917 q 788 772 828 821 q 657 722 747 722 z "},"Ẹ":{"ha":743,"x_min":-7,"x_max":828,"o":"m 0 0 m 657 722 q 561 735 604 722 q 500 760 518 749 l 461 544 l 707 544 q 672 415 707 463 q 560 368 636 368 q 481 380 518 368 q 433 399 443 392 l 393 188 l 494 188 q 646 200 586 188 q 660 163 656 188 q 665 117 665 139 q 476 0 665 0 l -7 0 l 161 917 l 828 917 q 788 772 828 821 q 657 722 747 722 m 289 -44 q 404 -76 360 -44 q 449 -162 449 -108 q 403 -249 449 -218 q 283 -279 357 -279 q 165 -249 210 -279 q 119 -165 119 -219 q 168 -77 119 -110 q 289 -44 217 -44 z "},"È":{"ha":743,"x_min":-7,"x_max":828,"o":"m 0 0 m 657 722 q 561 735 604 722 q 500 760 518 749 l 461 544 l 707 544 q 672 415 707 463 q 560 368 636 368 q 481 380 518 368 q 433 399 443 392 l 393 188 l 494 188 q 646 200 586 188 q 660 163 656 188 q 665 117 665 139 q 476 0 665 0 l -7 0 l 161 917 l 828 917 q 788 772 828 821 q 657 722 747 722 m 632 986 l 464 990 q 317 1026 374 993 q 261 1128 261 1060 q 272 1174 261 1156 q 304 1208 283 1193 l 651 1058 l 632 986 z "},"Ē":{"ha":743,"x_min":-7,"x_max":828,"o":"m 271 1031 q 267 1069 267 1043 q 296 1138 268 1111 q 365 1164 324 1164 l 717 1164 q 722 1122 722 1142 q 694 1056 722 1082 q 611 1031 665 1031 l 271 1031 m 657 722 q 561 735 604 722 q 500 760 518 749 l 461 544 l 707 544 q 672 415 707 463 q 560 368 636 368 q 481 380 518 368 q 433 399 443 392 l 393 188 l 494 188 q 646 200 586 188 q 660 163 656 188 q 665 117 665 139 q 476 0 665 0 l -7 0 l 161 917 l 828 917 q 788 772 828 821 q 657 722 747 722 z "},"Ę":{"ha":743,"x_min":-7,"x_max":828,"o":"m 657 722 q 561 735 604 722 q 500 760 518 749 l 461 544 l 707 544 q 672 415 707 463 q 560 368 636 368 q 481 380 518 368 q 433 399 443 392 l 393 188 l 494 188 q 646 200 586 188 q 660 163 656 188 q 665 117 665 139 q 588 15 665 43 l 588 14 q 501 -69 533 -24 q 468 -160 468 -114 q 483 -206 468 -192 q 526 -221 497 -221 q 572 -212 550 -221 q 610 -186 594 -204 q 630 -226 624 -207 q 636 -269 636 -244 q 592 -333 636 -307 q 463 -358 547 -358 q 331 -322 378 -358 q 285 -214 285 -285 q 433 0 285 -71 l -7 0 l 161 917 l 828 917 q 788 772 828 821 q 657 722 747 722 z "},"Ẽ":{"ha":743,"x_min":-7,"x_max":828,"o":"m 0 0 m 657 722 q 561 735 604 722 q 500 760 518 749 l 461 544 l 707 544 q 672 415 707 463 q 560 368 636 368 q 481 380 518 368 q 433 399 443 392 l 393 188 l 494 188 q 646 200 586 188 q 660 163 656 188 q 665 117 665 139 q 476 0 665 0 l -7 0 l 161 917 l 828 917 q 788 772 828 821 q 657 722 747 722 m 761 1190 q 790 1113 790 1156 q 751 1030 790 1058 q 643 1001 713 1001 q 468 1015 599 1001 q 332 1028 365 1028 q 275 1020 304 1028 q 232 1003 246 1013 q 201 1089 201 1043 q 240 1164 201 1138 q 351 1190 279 1190 q 449 1185 388 1190 q 529 1178 511 1179 q 671 1167 643 1167 q 761 1190 736 1167 z "},"F":{"ha":774,"x_min":-7,"x_max":856,"o":"m 856 917 q 821 763 856 813 q 690 713 786 713 q 585 724 642 713 q 500 750 529 735 l 464 561 l 740 561 q 581 368 740 368 q 433 403 511 368 l 363 0 l -7 0 l 161 917 l 856 917 z "},"G":{"ha":978,"x_min":47,"x_max":989,"o":"m 989 482 q 908 247 935 363 q 882 0 881 132 q 832 -22 856 -15 q 778 -28 808 -28 q 695 -14 732 -28 q 638 21 658 0 q 615 58 617 42 q 502 -8 568 11 q 368 -28 436 -28 q 127 78 207 -28 q 47 369 47 183 q 120 679 47 550 q 330 876 193 808 q 657 944 467 944 q 876 911 788 944 q 965 783 965 878 q 935 687 965 731 q 853 618 904 643 q 743 593 801 593 q 682 596 704 593 q 694 719 694 665 q 618 846 694 846 q 515 775 564 846 q 437 597 467 704 q 407 390 407 490 q 435 226 407 300 q 536 153 463 153 q 581 161 558 153 q 613 185 604 169 l 657 457 l 989 482 z "},"Ğ":{"ha":978,"x_min":47,"x_max":989,"o":"m 47 0 m 989 482 q 908 247 935 363 q 882 0 881 132 q 832 -22 856 -15 q 778 -28 808 -28 q 695 -14 732 -28 q 638 21 658 0 q 615 58 617 42 q 502 -8 568 11 q 368 -28 436 -28 q 127 78 207 -28 q 47 369 47 183 q 120 679 47 550 q 330 876 193 808 q 657 944 467 944 q 876 911 788 944 q 965 783 965 878 q 935 687 965 731 q 853 618 904 643 q 743 593 801 593 q 682 596 704 593 q 694 719 694 665 q 618 846 694 846 q 515 775 564 846 q 437 597 467 704 q 407 390 407 490 q 435 226 407 300 q 536 153 463 153 q 581 161 558 153 q 613 185 604 169 l 657 457 l 989 482 m 635 1157 q 629 1100 629 1118 l 628 1078 q 667 1040 628 1040 q 705 1062 693 1040 q 728 1128 717 1083 q 735 1157 729 1138 l 972 1157 q 868 1024 954 1075 q 644 972 782 972 q 449 1014 513 972 q 385 1119 385 1056 q 389 1157 385 1136 l 635 1157 z "},"Ĝ":{"ha":978,"x_min":47,"x_max":989,"o":"m 47 0 m 989 482 q 908 247 935 363 q 882 0 881 132 q 832 -22 856 -15 q 778 -28 808 -28 q 695 -14 732 -28 q 638 21 658 0 q 615 58 617 42 q 502 -8 568 11 q 368 -28 436 -28 q 127 78 207 -28 q 47 369 47 183 q 120 679 47 550 q 330 876 193 808 q 657 944 467 944 q 876 911 788 944 q 965 783 965 878 q 935 687 965 731 q 853 618 904 643 q 743 593 801 593 q 682 596 704 593 q 694 719 694 665 q 618 846 694 846 q 515 775 564 846 q 437 597 467 704 q 407 390 407 490 q 435 226 407 300 q 536 153 463 153 q 581 161 558 153 q 613 185 604 169 l 657 457 l 989 482 m 936 1019 l 860 957 l 689 1008 l 471 957 l 425 1019 l 675 1186 l 738 1186 l 936 1019 z "},"Ģ":{"ha":978,"x_min":47,"x_max":989,"o":"m 47 0 m 989 482 q 908 247 935 363 q 882 0 881 132 q 832 -22 856 -15 q 778 -28 808 -28 q 695 -14 732 -28 q 638 21 658 0 q 615 58 617 42 q 502 -8 568 11 q 368 -28 436 -28 q 127 78 207 -28 q 47 369 47 183 q 120 679 47 550 q 330 876 193 808 q 657 944 467 944 q 876 911 788 944 q 965 783 965 878 q 935 687 965 731 q 853 618 904 643 q 743 593 801 593 q 682 596 704 593 q 694 719 694 665 q 618 846 694 846 q 515 775 564 846 q 437 597 467 704 q 407 390 407 490 q 435 226 407 300 q 536 153 463 153 q 581 161 558 153 q 613 185 604 169 l 657 457 l 989 482 m 517 -158 q 474 -275 517 -226 q 369 -349 431 -324 q 258 -374 308 -374 q 207 -364 236 -374 q 278 -274 260 -311 q 296 -172 296 -236 q 291 -129 296 -153 q 281 -94 286 -106 q 393 -72 347 -72 q 517 -158 517 -72 z "},"Ġ":{"ha":978,"x_min":47,"x_max":989,"o":"m 671 1193 q 786 1161 742 1193 q 831 1075 831 1129 q 785 989 831 1019 q 665 958 739 958 q 547 988 592 958 q 501 1072 501 1018 q 550 1160 501 1128 q 671 1193 599 1193 m 989 482 q 908 247 935 363 q 882 0 881 132 q 832 -22 856 -15 q 778 -28 808 -28 q 695 -14 732 -28 q 638 21 658 0 q 615 58 617 42 q 502 -8 568 11 q 368 -28 436 -28 q 127 78 207 -28 q 47 369 47 183 q 120 679 47 550 q 330 876 193 808 q 657 944 467 944 q 876 911 788 944 q 965 783 965 878 q 935 687 965 731 q 853 618 904 643 q 743 593 801 593 q 682 596 704 593 q 694 719 694 665 q 618 846 694 846 q 515 775 564 846 q 437 597 467 704 q 407 390 407 490 q 435 226 407 300 q 536 153 463 153 q 581 161 558 153 q 613 185 604 169 l 657 457 l 989 482 z "},"H":{"ha":968,"x_min":-15,"x_max":1028,"o":"m 901 267 q 886 126 886 175 q 892 67 886 96 q 906 26 899 38 q 815 -14 867 0 q 715 -28 764 -28 q 584 16 629 -28 q 539 132 539 60 q 551 260 539 160 l 574 393 l 414 393 l 338 0 l -15 0 l 161 917 l 517 917 l 438 510 l 596 510 l 671 917 l 1028 917 l 901 267 z "},"Ħ":{"ha":989,"x_min":-29,"x_max":1071,"o":"m 888 267 q 872 126 872 175 q 878 67 872 96 q 892 26 885 38 q 801 -14 853 0 q 701 -28 750 -28 q 570 16 615 -28 q 525 132 525 60 q 538 260 525 160 l 560 393 l 400 393 l 324 0 l -29 0 l 106 699 l 31 699 q 25 739 25 713 q 54 807 26 781 q 125 833 82 833 l 132 833 l 147 917 l 503 917 l 486 833 l 640 833 l 657 917 l 1014 917 l 997 833 l 1065 833 q 1071 792 1071 808 q 1046 727 1071 753 q 972 699 1021 701 l 888 267 m 582 510 l 617 699 l 460 699 l 424 510 l 582 510 z "},"Ĥ":{"ha":968,"x_min":-15,"x_max":1028,"o":"m 0 0 m 901 267 q 886 126 886 175 q 892 67 886 96 q 906 26 899 38 q 815 -14 867 0 q 715 -28 764 -28 q 584 16 629 -28 q 539 132 539 60 q 551 260 539 160 l 574 393 l 414 393 l 338 0 l -15 0 l 161 917 l 517 917 l 438 510 l 596 510 l 671 917 l 1028 917 l 901 267 m 888 1019 l 811 957 l 640 1008 l 422 957 l 376 1019 l 626 1186 l 689 1186 l 888 1019 z "},"Ḥ":{"ha":968,"x_min":-15,"x_max":1028,"o":"m 0 0 m 901 267 q 886 126 886 175 q 892 67 886 96 q 906 26 899 38 q 815 -14 867 0 q 715 -28 764 -28 q 584 16 629 -28 q 539 132 539 60 q 551 260 539 160 l 574 393 l 414 393 l 338 0 l -15 0 l 161 917 l 517 917 l 438 510 l 596 510 l 671 917 l 1028 917 l 901 267 m 421 -44 q 536 -76 492 -44 q 581 -162 581 -108 q 535 -249 581 -218 q 415 -279 489 -279 q 297 -249 342 -279 q 251 -165 251 -219 q 300 -77 251 -110 q 421 -44 349 -44 z "},"I":{"ha":471,"x_min":-15,"x_max":536,"o":"m 536 917 l 357 0 l -15 0 l 161 917 l 536 917 z "},"Ĳ":{"ha":942,"x_min":-15,"x_max":1004,"o":"m 0 0 m 536 917 l 357 0 l -15 0 l 161 917 l 536 917 m 882 274 q 785 -65 840 56 q 653 -235 729 -186 q 465 -285 576 -285 q 340 -264 390 -285 q 274 -203 290 -243 q 378 -142 344 -174 q 443 -17 411 -111 q 515 286 475 76 l 636 917 l 1004 917 l 882 274 z "},"Í":{"ha":471,"x_min":-15,"x_max":643,"o":"m 0 0 m 536 917 l 357 0 l -15 0 l 161 917 l 536 917 m 253 1056 l 600 1207 q 633 1172 622 1190 q 643 1125 643 1153 q 586 1024 643 1057 q 439 989 529 990 l 272 985 l 253 1056 z "},"Ĭ":{"ha":471,"x_min":-15,"x_max":683,"o":"m 0 0 m 536 917 l 357 0 l -15 0 l 161 917 l 536 917 m 346 1157 q 340 1100 340 1118 l 339 1078 q 378 1040 339 1040 q 416 1062 404 1040 q 439 1128 428 1083 q 446 1157 440 1138 l 683 1157 q 579 1024 665 1075 q 356 972 493 972 q 160 1014 224 972 q 96 1119 96 1056 q 100 1157 96 1136 l 346 1157 z "},"Î":{"ha":471,"x_min":-15,"x_max":647,"o":"m 0 0 m 536 917 l 357 0 l -15 0 l 161 917 l 536 917 m 647 1019 l 571 957 l 400 1008 l 182 957 l 136 1019 l 386 1186 l 449 1186 l 647 1019 z "},"Ï":{"ha":471,"x_min":-15,"x_max":707,"o":"m 0 0 m 536 917 l 357 0 l -15 0 l 161 917 l 536 917 m 201 1193 q 317 1161 272 1193 q 361 1075 361 1129 q 315 989 361 1019 q 196 958 269 958 q 77 988 122 958 q 32 1072 32 1018 q 81 1160 32 1128 q 201 1193 129 1193 m 547 1193 q 663 1161 618 1193 q 707 1075 707 1129 q 661 989 707 1019 q 542 958 615 958 q 423 988 468 958 q 378 1072 378 1018 q 426 1160 378 1128 q 547 1193 475 1193 z "},"İ":{"ha":471,"x_min":-15,"x_max":542,"o":"m 382 1193 q 497 1161 453 1193 q 542 1075 542 1129 q 496 989 542 1019 q 376 958 450 958 q 258 988 303 958 q 213 1072 213 1018 q 261 1160 213 1128 q 382 1193 310 1193 m 536 917 l 357 0 l -15 0 l 161 917 l 536 917 z "},"Ị":{"ha":471,"x_min":-15,"x_max":536,"o":"m 0 0 m 536 917 l 357 0 l -15 0 l 161 917 l 536 917 m 157 -44 q 272 -76 228 -44 q 317 -162 317 -108 q 271 -249 317 -218 q 151 -279 225 -279 q 33 -249 78 -279 q -12 -165 -12 -219 q 36 -77 -12 -110 q 157 -44 85 -44 z "},"Ì":{"ha":471,"x_min":-15,"x_max":543,"o":"m 0 0 m 536 917 l 357 0 l -15 0 l 161 917 l 536 917 m 524 986 l 356 990 q 209 1026 265 993 q 153 1128 153 1060 q 164 1174 153 1156 q 196 1208 175 1193 l 543 1058 l 524 986 z "},"Ī":{"ha":471,"x_min":-15,"x_max":614,"o":"m 608 1164 q 614 1122 614 1142 q 585 1056 614 1082 q 503 1031 557 1031 l 163 1031 q 158 1069 158 1043 q 188 1138 160 1111 q 257 1164 215 1164 l 608 1164 m 536 917 l 357 0 l -15 0 l 161 917 l 536 917 z "},"Į":{"ha":471,"x_min":-15,"x_max":536,"o":"m 299 -221 q 344 -212 322 -221 q 382 -186 367 -204 q 402 -226 396 -207 q 408 -269 408 -244 q 364 -333 408 -307 q 235 -358 319 -358 q 103 -322 150 -358 q 57 -214 57 -285 q 206 0 57 -71 l -15 0 l 161 917 l 536 917 l 360 14 l 357 0 l 340 0 q 267 -77 294 -36 q 240 -160 240 -118 q 255 -206 240 -192 q 299 -221 269 -221 z "},"Ĩ":{"ha":471,"x_min":-15,"x_max":682,"o":"m 0 0 m 536 917 l 357 0 l -15 0 l 161 917 l 536 917 m 653 1190 q 682 1113 682 1156 q 643 1030 682 1058 q 535 1001 604 1001 q 360 1015 490 1001 q 224 1028 257 1028 q 167 1020 196 1028 q 124 1003 138 1013 q 93 1089 93 1043 q 132 1164 93 1138 q 243 1190 171 1190 q 341 1185 279 1190 q 421 1178 403 1179 q 563 1167 535 1167 q 653 1190 628 1167 z "},"J":{"ha":471,"x_min":-197,"x_max":533,"o":"m 411 274 q 314 -65 369 56 q 182 -235 258 -186 q -6 -285 106 -285 q -131 -264 -81 -285 q -197 -203 -181 -243 q -93 -142 -126 -174 q -28 -17 -60 -111 q 44 286 4 76 l 165 917 l 533 917 l 411 274 z "},"Ĵ":{"ha":471,"x_min":-197,"x_max":639,"o":"m 0 0 m 411 274 q 314 -65 369 56 q 182 -235 258 -186 q -6 -285 106 -285 q -131 -264 -81 -285 q -197 -203 -181 -243 q -93 -142 -126 -174 q -28 -17 -60 -111 q 44 286 4 76 l 165 917 l 533 917 l 411 274 m 639 1019 l 563 957 l 392 1008 l 174 957 l 128 1019 l 378 1186 l 440 1186 l 639 1019 z "},"K":{"ha":1039,"x_min":-11,"x_max":1169,"o":"m 350 0 l -11 0 q 94 567 39 275 q 163 917 149 860 l 525 917 l 350 0 m 1169 917 q 863 587 953 700 q 768 467 774 474 q 964 99 833 168 q 771 -28 921 -28 q 599 38 663 -28 q 508 207 536 103 q 467 456 479 311 l 804 917 l 1169 917 z "},"Ķ":{"ha":1039,"x_min":-11,"x_max":1169,"o":"m 0 0 m 350 0 l -11 0 q 94 567 39 275 q 163 917 149 860 l 525 917 l 350 0 m 1169 917 q 863 587 953 700 q 768 467 774 474 q 964 99 833 168 q 771 -28 921 -28 q 599 38 663 -28 q 508 207 536 103 q 467 456 479 311 l 804 917 l 1169 917 m 546 -158 q 503 -275 546 -226 q 399 -349 460 -324 q 288 -374 338 -374 q 236 -364 265 -374 q 307 -274 289 -311 q 325 -172 325 -236 q 320 -129 325 -153 q 310 -94 315 -106 q 422 -72 376 -72 q 546 -158 546 -72 z "},"L":{"ha":706,"x_min":-3,"x_max":678,"o":"m 161 917 l 533 917 l 407 188 l 507 188 q 658 200 599 188 q 673 163 668 188 q 678 117 678 139 q 627 25 678 50 q 490 0 576 0 l -3 0 l 161 917 z "},"Ǉ":{"ha":1176,"x_min":-3,"x_max":1239,"o":"m 0 0 m 161 917 l 533 917 l 407 188 l 507 188 q 658 200 599 188 q 673 163 668 188 q 678 117 678 139 q 627 25 678 50 q 490 0 576 0 l -3 0 l 161 917 m 1117 274 q 1019 -65 1075 56 q 888 -235 964 -186 q 700 -285 811 -285 q 575 -264 625 -285 q 508 -203 525 -243 q 613 -142 579 -174 q 678 -17 646 -111 q 750 286 710 76 l 871 917 l 1239 917 l 1117 274 z "},"Ĺ":{"ha":706,"x_min":-3,"x_max":678,"o":"m 0 0 m 161 917 l 533 917 l 407 188 l 507 188 q 658 200 599 188 q 673 163 668 188 q 678 117 678 139 q 627 25 678 50 q 490 0 576 0 l -3 0 l 161 917 m 250 1056 l 597 1207 q 630 1172 619 1190 q 640 1125 640 1153 q 583 1024 640 1057 q 436 989 526 990 l 269 985 l 250 1056 z "},"Ľ":{"ha":706,"x_min":-3,"x_max":803,"o":"m 0 0 m 161 917 l 533 917 l 407 188 l 507 188 q 658 200 599 188 q 673 163 668 188 q 678 117 678 139 q 627 25 678 50 q 490 0 576 0 l -3 0 l 161 917 m 601 976 q 644 990 617 983 q 693 997 672 997 q 772 965 742 997 q 803 876 803 932 q 778 810 803 846 q 708 748 754 774 q 603 722 663 722 q 567 726 581 722 q 551 731 554 729 q 602 813 590 775 q 614 888 614 850 q 601 976 614 931 z "},"Ļ":{"ha":706,"x_min":-3,"x_max":678,"o":"m 0 0 m 161 917 l 533 917 l 407 188 l 507 188 q 658 200 599 188 q 673 163 668 188 q 678 117 678 139 q 627 25 678 50 q 490 0 576 0 l -3 0 l 161 917 m 372 -158 q 329 -275 372 -226 q 225 -349 286 -324 q 114 -374 164 -374 q 63 -364 92 -374 q 133 -274 115 -311 q 151 -172 151 -236 q 147 -129 151 -153 q 136 -94 142 -106 q 249 -72 203 -72 q 372 -158 372 -72 z "},"Ŀ":{"ha":706,"x_min":-3,"x_max":706,"o":"m 161 917 l 533 917 l 407 188 l 507 188 q 658 200 599 188 q 673 163 668 188 q 678 117 678 139 q 627 25 678 50 q 490 0 576 0 l -3 0 l 161 917 m 624 538 q 683 515 661 538 q 706 458 706 493 q 669 369 706 406 q 578 333 632 333 q 515 355 538 333 q 493 411 493 376 q 532 500 493 463 q 624 538 571 538 z "},"ǈ":{"ha":706,"x_min":-97,"x_max":678,"o":"m 396 1015 q 271 1047 318 1015 q 224 1135 224 1078 q 274 1227 224 1193 q 401 1261 325 1261 q 524 1228 478 1261 q 569 1138 569 1194 q 522 1047 569 1079 q 396 1015 474 1015 m 658 200 q 673 163 668 188 q 678 117 678 139 q 627 25 678 50 q 490 0 576 0 l 286 0 q 101 -69 214 -69 q -26 -42 28 -69 q -97 44 -79 -14 q 17 107 -24 46 l 161 917 l 201 917 l 542 950 l 511 790 l 407 188 l 507 188 q 658 200 599 188 z "},"Ł":{"ha":764,"x_min":-6,"x_max":767,"o":"m 596 188 q 747 200 688 188 q 762 163 757 188 q 767 117 767 139 q 716 25 767 50 q 579 0 665 0 l 86 0 l 139 299 l 25 258 q -6 328 -6 285 q 61 415 -6 392 l 167 453 l 250 917 l 622 917 l 567 600 l 674 639 q 695 606 688 626 q 703 565 703 585 q 678 506 703 531 q 599 463 654 482 l 540 442 l 496 188 l 596 188 z "},"M":{"ha":1144,"x_min":-50,"x_max":1144,"o":"m 1126 917 l 1096 282 l 1093 203 q 1104 111 1093 147 q 1144 57 1115 75 q 1072 -3 1126 21 q 946 -26 1017 -26 q 817 18 863 -26 q 771 146 771 63 q 770 165 771 151 q 771 190 769 179 l 799 576 l 547 0 l 361 0 l 250 576 l 121 0 l -50 0 l 185 917 l 515 917 l 606 465 l 814 917 l 1126 917 z "},"N":{"ha":953,"x_min":-4,"x_max":1010,"o":"m 171 0 l -4 0 l 161 917 l 508 917 l 733 329 l 832 917 l 1010 917 l 839 0 l 454 0 l 261 542 l 171 0 z "},"Ǌ":{"ha":1424,"x_min":-4,"x_max":1486,"o":"m 0 0 m 171 0 l -4 0 l 161 917 l 508 917 l 733 329 l 832 917 l 1010 917 l 839 0 l 454 0 l 261 542 l 171 0 m 1364 274 q 1267 -65 1322 56 q 1135 -235 1211 -186 q 947 -285 1058 -285 q 822 -264 872 -285 q 756 -203 772 -243 q 860 -142 826 -174 q 925 -17 893 -111 q 997 286 957 76 l 1118 917 l 1486 917 l 1364 274 z "},"Ń":{"ha":953,"x_min":-4,"x_max":1010,"o":"m 0 0 m 171 0 l -4 0 l 161 917 l 508 917 l 733 329 l 832 917 l 1010 917 l 839 0 l 454 0 l 261 542 l 171 0 m 482 1056 l 829 1207 q 862 1172 851 1190 q 872 1125 872 1153 q 815 1024 872 1057 q 668 989 758 990 l 501 985 l 482 1056 z "},"Ň":{"ha":953,"x_min":-4,"x_max":1010,"o":"m 0 0 m 171 0 l -4 0 l 161 917 l 508 917 l 733 329 l 832 917 l 1010 917 l 839 0 l 454 0 l 261 542 l 171 0 m 379 1146 l 456 1208 l 640 1129 l 872 1208 l 918 1146 l 696 965 l 550 965 l 379 1146 z "},"Ņ":{"ha":953,"x_min":-4,"x_max":1010,"o":"m 0 0 m 171 0 l -4 0 l 161 917 l 508 917 l 733 329 l 832 917 l 1010 917 l 839 0 l 454 0 l 261 542 l 171 0 m 499 -158 q 456 -275 499 -226 q 351 -349 413 -324 q 240 -374 290 -374 q 189 -364 218 -374 q 260 -274 242 -311 q 278 -172 278 -236 q 273 -129 278 -153 q 263 -94 268 -106 q 375 -72 329 -72 q 499 -158 499 -72 z "},"Ṅ":{"ha":953,"x_min":-4,"x_max":1010,"o":"m 611 1193 q 726 1161 682 1193 q 771 1075 771 1129 q 725 989 771 1019 q 606 958 679 958 q 487 988 532 958 q 442 1072 442 1018 q 490 1160 442 1128 q 611 1193 539 1193 m 171 0 l -4 0 l 161 917 l 508 917 l 733 329 l 832 917 l 1010 917 l 839 0 l 454 0 l 261 542 l 171 0 z "},"Ŋ":{"ha":951,"x_min":-4,"x_max":1010,"o":"m 171 0 l -4 0 l 161 917 l 508 917 l 733 329 l 832 917 l 1010 917 l 853 71 q 792 -153 825 -74 q 711 -266 758 -233 q 590 -299 664 -299 q 520 -286 549 -299 q 482 -250 492 -274 q 543 -228 493 -246 q 623 -156 593 -211 q 675 0 653 -101 l 464 0 l 261 542 l 171 0 z "},"ǋ":{"ha":953,"x_min":-4,"x_max":1010,"o":"m 628 1015 q 503 1047 550 1015 q 456 1135 456 1078 q 506 1227 456 1193 q 633 1261 557 1261 q 756 1228 710 1261 q 801 1138 801 1194 q 753 1047 801 1079 q 628 1015 706 1015 m 839 0 l 518 0 q 333 -69 446 -69 q 157 0 210 -69 l -4 0 l 161 917 l 433 917 l 774 950 l 682 464 l 733 329 l 832 917 l 1010 917 l 839 0 m 179 53 q 267 140 235 71 q 328 356 299 208 l 261 542 l 179 53 z "},"Ñ":{"ha":953,"x_min":-4,"x_max":1010,"o":"m 0 0 m 171 0 l -4 0 l 161 917 l 508 917 l 733 329 l 832 917 l 1010 917 l 839 0 l 454 0 l 261 542 l 171 0 m 882 1190 q 911 1113 911 1156 q 872 1030 911 1058 q 764 1001 833 1001 q 589 1015 719 1001 q 453 1028 486 1028 q 396 1020 425 1028 q 353 1003 367 1013 q 322 1089 322 1043 q 361 1164 322 1138 q 472 1190 400 1190 q 570 1185 508 1190 q 650 1178 632 1179 q 792 1167 764 1167 q 882 1190 857 1167 z "},"O":{"ha":1026,"x_min":50,"x_max":1021,"o":"m 614 944 q 916 844 811 944 q 1021 531 1021 743 q 953 235 1021 361 q 758 40 885 108 q 457 -28 631 -28 q 155 73 260 -28 q 50 386 50 174 q 117 681 50 556 q 313 876 185 807 q 614 944 440 944 m 596 847 q 499 738 542 847 q 428 372 457 629 q 415 189 415 263 q 428 101 415 132 q 479 71 442 71 q 643 546 588 71 q 656 729 656 656 q 643 816 656 785 q 596 847 631 847 z "},"Ó":{"ha":1026,"x_min":50,"x_max":1021,"o":"m 50 0 m 614 944 q 916 844 811 944 q 1021 531 1021 743 q 953 235 1021 361 q 758 40 885 108 q 457 -28 631 -28 q 155 73 260 -28 q 50 386 50 174 q 117 681 50 556 q 313 876 185 807 q 614 944 440 944 m 596 847 q 499 738 542 847 q 428 372 457 629 q 415 189 415 263 q 428 101 415 132 q 479 71 442 71 q 643 546 588 71 q 656 729 656 656 q 643 816 656 785 q 596 847 631 847 m 503 1056 l 850 1207 q 883 1172 872 1190 q 893 1125 893 1153 q 836 1024 893 1057 q 689 989 779 990 l 522 985 l 503 1056 z "},"Ŏ":{"ha":1026,"x_min":50,"x_max":1021,"o":"m 50 0 m 614 944 q 916 844 811 944 q 1021 531 1021 743 q 953 235 1021 361 q 758 40 885 108 q 457 -28 631 -28 q 155 73 260 -28 q 50 386 50 174 q 117 681 50 556 q 313 876 185 807 q 614 944 440 944 m 596 847 q 499 738 542 847 q 428 372 457 629 q 415 189 415 263 q 428 101 415 132 q 479 71 442 71 q 643 546 588 71 q 656 729 656 656 q 643 816 656 785 q 596 847 631 847 m 596 1157 q 590 1100 590 1118 l 589 1078 q 628 1040 589 1040 q 666 1062 654 1040 q 689 1128 678 1083 q 696 1157 690 1138 l 933 1157 q 829 1024 915 1075 q 606 972 743 972 q 410 1014 474 972 q 346 1119 346 1056 q 350 1157 346 1136 l 596 1157 z "},"Ô":{"ha":1026,"x_min":50,"x_max":1021,"o":"m 50 0 m 614 944 q 916 844 811 944 q 1021 531 1021 743 q 953 235 1021 361 q 758 40 885 108 q 457 -28 631 -28 q 155 73 260 -28 q 50 386 50 174 q 117 681 50 556 q 313 876 185 807 q 614 944 440 944 m 596 847 q 499 738 542 847 q 428 372 457 629 q 415 189 415 263 q 428 101 415 132 q 479 71 442 71 q 643 546 588 71 q 656 729 656 656 q 643 816 656 785 q 596 847 631 847 m 897 1019 l 821 957 l 650 1008 l 432 957 l 386 1019 l 636 1186 l 699 1186 l 897 1019 z "},"Ö":{"ha":1026,"x_min":50,"x_max":1021,"o":"m 50 0 m 614 944 q 916 844 811 944 q 1021 531 1021 743 q 953 235 1021 361 q 758 40 885 108 q 457 -28 631 -28 q 155 73 260 -28 q 50 386 50 174 q 117 681 50 556 q 313 876 185 807 q 614 944 440 944 m 596 847 q 499 738 542 847 q 428 372 457 629 q 415 189 415 263 q 428 101 415 132 q 479 71 442 71 q 643 546 588 71 q 656 729 656 656 q 643 816 656 785 q 596 847 631 847 m 451 1193 q 567 1161 522 1193 q 611 1075 611 1129 q 565 989 611 1019 q 446 958 519 958 q 327 988 372 958 q 282 1072 282 1018 q 331 1160 282 1128 q 451 1193 379 1193 m 797 1193 q 913 1161 868 1193 q 957 1075 957 1129 q 911 989 957 1019 q 792 958 865 958 q 673 988 718 958 q 628 1072 628 1018 q 676 1160 628 1128 q 797 1193 725 1193 z "},"Ọ":{"ha":1026,"x_min":50,"x_max":1021,"o":"m 50 0 m 614 944 q 916 844 811 944 q 1021 531 1021 743 q 953 235 1021 361 q 758 40 885 108 q 457 -28 631 -28 q 155 73 260 -28 q 50 386 50 174 q 117 681 50 556 q 313 876 185 807 q 614 944 440 944 m 596 847 q 499 738 542 847 q 428 372 457 629 q 415 189 415 263 q 428 101 415 132 q 479 71 442 71 q 643 546 588 71 q 656 729 656 656 q 643 816 656 785 q 596 847 631 847 m 463 -44 q 578 -76 533 -44 q 622 -162 622 -108 q 576 -249 622 -218 q 457 -279 531 -279 q 338 -249 383 -279 q 293 -165 293 -219 q 342 -77 293 -110 q 463 -44 390 -44 z "},"Ò":{"ha":1026,"x_min":50,"x_max":1021,"o":"m 50 0 m 614 944 q 916 844 811 944 q 1021 531 1021 743 q 953 235 1021 361 q 758 40 885 108 q 457 -28 631 -28 q 155 73 260 -28 q 50 386 50 174 q 117 681 50 556 q 313 876 185 807 q 614 944 440 944 m 596 847 q 499 738 542 847 q 428 372 457 629 q 415 189 415 263 q 428 101 415 132 q 479 71 442 71 q 643 546 588 71 q 656 729 656 656 q 643 816 656 785 q 596 847 631 847 m 774 986 l 606 990 q 459 1026 515 993 q 403 1128 403 1060 q 414 1174 403 1156 q 446 1208 425 1193 l 793 1058 l 774 986 z "},"Ő":{"ha":1026,"x_min":50,"x_max":1042,"o":"m 50 0 m 614 944 q 916 844 811 944 q 1021 531 1021 743 q 953 235 1021 361 q 758 40 885 108 q 457 -28 631 -28 q 155 73 260 -28 q 50 386 50 174 q 117 681 50 556 q 313 876 185 807 q 614 944 440 944 m 596 847 q 499 738 542 847 q 428 372 457 629 q 415 189 415 263 q 428 101 415 132 q 479 71 442 71 q 643 546 588 71 q 656 729 656 656 q 643 816 656 785 q 596 847 631 847 m 632 1197 q 682 1157 664 1182 q 700 1103 700 1132 q 663 1017 700 1047 q 544 979 626 988 l 399 961 l 356 1038 l 632 1197 m 978 1197 q 1024 1156 1007 1181 q 1042 1104 1042 1132 q 1005 1019 1042 1049 q 886 979 968 990 l 743 961 l 697 1038 l 978 1197 z "},"Ō":{"ha":1026,"x_min":50,"x_max":1021,"o":"m 858 1164 q 864 1122 864 1142 q 835 1056 864 1082 q 753 1031 807 1031 l 413 1031 q 408 1069 408 1043 q 438 1138 410 1111 q 507 1164 465 1164 l 858 1164 m 614 944 q 916 844 811 944 q 1021 531 1021 743 q 953 235 1021 361 q 758 40 885 108 q 457 -28 631 -28 q 155 73 260 -28 q 50 386 50 174 q 117 681 50 556 q 313 876 185 807 q 614 944 440 944 m 596 847 q 499 738 542 847 q 428 372 457 629 q 415 189 415 263 q 428 101 415 132 q 479 71 442 71 q 643 546 588 71 q 656 729 656 656 q 643 816 656 785 q 596 847 631 847 z "},"Ǫ":{"ha":1026,"x_min":50,"x_max":1021,"o":"m 701 14 q 615 -69 647 -24 q 582 -160 582 -114 q 597 -206 582 -192 q 640 -221 611 -221 q 686 -212 664 -221 q 724 -186 708 -204 q 744 -226 738 -207 q 750 -269 750 -244 q 706 -333 750 -307 q 576 -358 661 -358 q 445 -322 492 -358 q 399 -214 399 -285 q 500 -26 399 -96 q 457 -28 486 -28 q 155 73 260 -28 q 50 386 50 174 q 117 681 50 556 q 313 876 185 807 q 614 944 440 944 q 916 844 811 944 q 1021 531 1021 743 q 938 208 1021 342 q 701 15 854 74 l 701 14 m 415 189 q 428 101 415 132 q 479 71 442 71 q 643 546 588 71 q 656 729 656 656 q 643 816 656 785 q 596 847 631 847 q 499 738 542 847 q 428 372 457 629 q 415 189 415 263 z "},"Ø":{"ha":1026,"x_min":50,"x_max":1021,"o":"m 942 821 q 1021 531 1021 717 q 953 235 1021 361 q 758 40 885 108 q 457 -28 631 -28 q 232 15 322 -28 q 163 -83 185 -40 q 99 -58 124 -83 q 72 13 74 -32 q 82 67 72 40 q 110 113 92 93 l 114 118 q 50 386 50 218 q 117 681 50 556 q 313 876 185 807 q 614 944 440 944 q 807 915 729 944 q 878 1007 854 967 q 941 974 914 1007 q 968 900 968 940 q 926 806 968 847 l 942 821 m 656 739 q 642 819 653 790 q 596 847 631 847 q 536 815 560 847 q 494 712 513 782 q 447 500 475 642 l 656 739 m 479 71 q 552 134 522 71 q 598 272 582 197 q 635 474 614 347 l 415 224 q 424 110 414 149 q 479 71 435 71 z "},"Ǿ":{"ha":1026,"x_min":50,"x_max":1021,"o":"m 50 0 m 942 821 q 1021 531 1021 717 q 953 235 1021 361 q 758 40 885 108 q 457 -28 631 -28 q 232 15 322 -28 q 163 -83 185 -40 q 99 -58 124 -83 q 72 13 74 -32 q 82 67 72 40 q 110 113 92 93 l 114 118 q 50 386 50 218 q 117 681 50 556 q 313 876 185 807 q 614 944 440 944 q 807 915 729 944 q 878 1007 854 967 q 941 974 914 1007 q 968 900 968 940 q 926 806 968 847 l 942 821 m 656 739 q 642 819 653 790 q 596 847 631 847 q 536 815 560 847 q 494 712 513 782 q 447 500 475 642 l 656 739 m 479 71 q 552 134 522 71 q 598 272 582 197 q 635 474 614 347 l 415 224 q 424 110 414 149 q 479 71 435 71 m 468 1056 l 815 1207 q 848 1172 838 1190 q 858 1125 858 1153 q 801 1024 858 1057 q 654 989 744 990 l 488 985 l 468 1056 z "},"Õ":{"ha":1026,"x_min":50,"x_max":1021,"o":"m 50 0 m 614 944 q 916 844 811 944 q 1021 531 1021 743 q 953 235 1021 361 q 758 40 885 108 q 457 -28 631 -28 q 155 73 260 -28 q 50 386 50 174 q 117 681 50 556 q 313 876 185 807 q 614 944 440 944 m 596 847 q 499 738 542 847 q 428 372 457 629 q 415 189 415 263 q 428 101 415 132 q 479 71 442 71 q 643 546 588 71 q 656 729 656 656 q 643 816 656 785 q 596 847 631 847 m 903 1190 q 932 1113 932 1156 q 893 1030 932 1058 q 785 1001 854 1001 q 610 1015 740 1001 q 474 1028 507 1028 q 417 1020 446 1028 q 374 1003 388 1013 q 343 1089 343 1043 q 382 1164 343 1138 q 493 1190 421 1190 q 591 1185 529 1190 q 671 1178 653 1179 q 813 1167 785 1167 q 903 1190 878 1167 z "},"Œ":{"ha":1278,"x_min":50,"x_max":1332,"o":"m 1232 544 q 1194 415 1232 461 q 1085 368 1156 368 q 1015 377 1054 368 q 946 403 976 386 q 935 367 940 397 q 929 304 929 336 q 956 229 929 249 q 1049 210 982 210 q 1204 233 1142 210 q 1218 151 1218 196 q 958 -28 1218 -28 q 820 -7 872 -28 q 733 61 768 14 q 611 -8 686 13 q 451 -28 536 -28 q 154 74 258 -28 q 50 385 50 175 q 116 675 50 549 q 308 873 182 801 q 607 944 433 944 q 792 917 711 944 l 1332 917 q 1283 769 1332 817 q 1156 722 1235 722 q 1003 760 1079 722 l 967 544 l 1232 544 m 478 71 q 642 546 586 71 q 654 729 654 656 q 642 816 654 785 q 594 847 629 847 q 498 738 540 847 q 426 372 456 629 q 414 189 414 263 q 427 101 414 132 q 478 71 440 71 z "},"P":{"ha":960,"x_min":-12,"x_max":1001,"o":"m -12 0 l 161 917 l 272 921 q 428 924 353 924 q 769 910 657 924 q 942 844 882 897 q 1001 675 1001 792 q 955 509 1001 578 q 830 406 908 440 q 656 372 751 372 q 468 458 506 372 q 524 468 503 461 q 644 553 601 488 q 686 697 686 619 q 651 801 686 769 q 550 832 617 832 q 514 829 517 832 l 357 0 l -12 0 z "},"Þ":{"ha":940,"x_min":-15,"x_max":968,"o":"m 501 746 q 529 747 507 747 q 758 729 664 747 q 910 655 851 711 q 968 492 968 599 q 922 332 968 399 q 798 230 876 265 q 621 194 719 194 q 435 281 472 194 q 449 283 439 282 q 469 286 458 283 q 602 367 551 303 q 653 525 653 432 q 621 627 653 596 q 524 658 589 658 q 485 657 493 658 l 357 0 l -15 0 l 161 917 l 535 917 l 501 746 z "},"Q":{"ha":1021,"x_min":54,"x_max":1024,"o":"m 622 944 q 919 843 815 944 q 1024 535 1024 742 q 956 266 1024 389 q 771 68 889 143 q 510 -14 653 -7 q 676 -46 582 -46 q 783 -33 732 -46 q 872 3 835 -19 q 883 -37 879 -12 q 888 -87 888 -62 q 828 -234 888 -187 q 690 -281 768 -281 q 606 -267 646 -281 q 507 -228 565 -254 q 404 -185 449 -200 q 310 -171 360 -171 q 168 -214 228 -171 q 133 -153 143 -182 q 124 -90 124 -125 q 151 -3 124 -32 q 229 39 178 26 q 388 64 281 51 q 547 180 479 75 q 647 544 615 285 q 658 711 658 647 q 642 818 658 789 q 596 847 626 847 q 509 761 549 847 q 444 550 469 675 q 424 426 432 486 q 417 335 417 367 q 483 221 417 222 q 435 139 483 169 q 304 108 386 108 q 54 415 54 108 q 128 705 54 586 q 332 884 203 824 q 622 944 461 944 z "},"R":{"ha":956,"x_min":-7,"x_max":974,"o":"m 161 917 q 346 919 240 917 l 522 921 q 766 906 672 921 q 917 840 860 892 q 974 683 974 788 q 914 508 974 576 q 753 414 854 439 q 830 209 782 292 q 943 99 878 126 q 751 -28 897 -28 q 583 40 643 -28 q 498 213 522 108 q 457 483 474 318 q 454 485 454 485 q 603 538 550 485 q 657 697 657 590 q 633 799 657 765 q 551 833 610 833 l 515 833 l 357 0 l -7 0 l 161 917 z "},"Ŕ":{"ha":956,"x_min":-7,"x_max":974,"o":"m 0 0 m 161 917 q 346 919 240 917 l 522 921 q 766 906 672 921 q 917 840 860 892 q 974 683 974 788 q 914 508 974 576 q 753 414 854 439 q 830 209 782 292 q 943 99 878 126 q 751 -28 897 -28 q 583 40 643 -28 q 498 213 522 108 q 457 483 474 318 q 454 485 454 485 q 603 538 550 485 q 657 697 657 590 q 633 799 657 765 q 551 833 610 833 l 515 833 l 357 0 l -7 0 l 161 917 m 444 1056 l 792 1207 q 824 1172 814 1190 q 835 1125 835 1153 q 778 1024 835 1057 q 631 989 721 990 l 464 985 l 444 1056 z "},"Ř":{"ha":956,"x_min":-7,"x_max":974,"o":"m 0 0 m 161 917 q 346 919 240 917 l 522 921 q 766 906 672 921 q 917 840 860 892 q 974 683 974 788 q 914 508 974 576 q 753 414 854 439 q 830 209 782 292 q 943 99 878 126 q 751 -28 897 -28 q 583 40 643 -28 q 498 213 522 108 q 457 483 474 318 q 454 485 454 485 q 603 538 550 485 q 657 697 657 590 q 633 799 657 765 q 551 833 610 833 l 515 833 l 357 0 l -7 0 l 161 917 m 342 1146 l 418 1208 l 603 1129 l 835 1208 l 881 1146 l 658 965 l 513 965 l 342 1146 z "},"Ŗ":{"ha":956,"x_min":-7,"x_max":974,"o":"m 0 0 m 161 917 q 346 919 240 917 l 522 921 q 766 906 672 921 q 917 840 860 892 q 974 683 974 788 q 914 508 974 576 q 753 414 854 439 q 830 209 782 292 q 943 99 878 126 q 751 -28 897 -28 q 583 40 643 -28 q 498 213 522 108 q 457 483 474 318 q 454 485 454 485 q 603 538 550 485 q 657 697 657 590 q 633 799 657 765 q 551 833 610 833 l 515 833 l 357 0 l -7 0 l 161 917 m 540 -158 q 497 -275 540 -226 q 393 -349 454 -324 q 282 -374 332 -374 q 231 -364 260 -374 q 301 -274 283 -311 q 319 -172 319 -236 q 315 -129 319 -153 q 304 -94 310 -106 q 417 -72 371 -72 q 540 -158 540 -72 z "},"Ṛ":{"ha":956,"x_min":-7,"x_max":974,"o":"m 0 0 m 161 917 q 346 919 240 917 l 522 921 q 766 906 672 921 q 917 840 860 892 q 974 683 974 788 q 914 508 974 576 q 753 414 854 439 q 830 209 782 292 q 943 99 878 126 q 751 -28 897 -28 q 583 40 643 -28 q 498 213 522 108 q 457 483 474 318 q 454 485 454 485 q 603 538 550 485 q 657 697 657 590 q 633 799 657 765 q 551 833 610 833 l 515 833 l 357 0 l -7 0 l 161 917 m 453 -44 q 568 -76 524 -44 q 613 -162 613 -108 q 567 -249 613 -218 q 447 -279 521 -279 q 328 -249 374 -279 q 283 -165 283 -219 q 332 -77 283 -110 q 453 -44 381 -44 z "},"S":{"ha":824,"x_min":-11,"x_max":876,"o":"m 579 944 q 788 909 700 944 q 876 776 876 874 q 821 662 876 701 q 688 622 765 622 q 600 635 650 622 q 621 735 621 679 q 599 823 621 788 q 529 858 576 858 q 444 819 482 858 q 406 717 406 781 q 443 641 406 671 q 563 572 481 611 q 633 538 610 550 q 749 451 707 501 q 790 322 790 401 q 719 126 790 204 q 528 10 647 47 q 263 -26 408 -26 q 69 6 149 -26 q -11 144 -11 39 q 35 268 -11 218 q 168 318 81 318 q 282 300 228 318 q 258 175 258 239 q 277 94 258 125 q 336 64 296 64 q 416 92 385 64 q 447 171 447 121 q 406 254 447 219 q 283 331 365 289 q 224 363 263 340 q 113 453 153 400 q 72 590 72 507 q 138 774 72 693 q 319 899 203 854 q 579 944 435 944 z "},"Ś":{"ha":824,"x_min":-11,"x_max":876,"o":"m 0 0 m 579 944 q 788 909 700 944 q 876 776 876 874 q 821 662 876 701 q 688 622 765 622 q 600 635 650 622 q 621 735 621 679 q 599 823 621 788 q 529 858 576 858 q 444 819 482 858 q 406 717 406 781 q 443 641 406 671 q 563 572 481 611 q 633 538 610 550 q 749 451 707 501 q 790 322 790 401 q 719 126 790 204 q 528 10 647 47 q 263 -26 408 -26 q 69 6 149 -26 q -11 144 -11 39 q 35 268 -11 218 q 168 318 81 318 q 282 300 228 318 q 258 175 258 239 q 277 94 258 125 q 336 64 296 64 q 416 92 385 64 q 447 171 447 121 q 406 254 447 219 q 283 331 365 289 q 224 363 263 340 q 113 453 153 400 q 72 590 72 507 q 138 774 72 693 q 319 899 203 854 q 579 944 435 944 m 450 1056 l 797 1207 q 830 1172 819 1190 q 840 1125 840 1153 q 783 1024 840 1057 q 636 989 726 990 l 469 985 l 450 1056 z "},"Š":{"ha":824,"x_min":-11,"x_max":886,"o":"m 0 0 m 579 944 q 788 909 700 944 q 876 776 876 874 q 821 662 876 701 q 688 622 765 622 q 600 635 650 622 q 621 735 621 679 q 599 823 621 788 q 529 858 576 858 q 444 819 482 858 q 406 717 406 781 q 443 641 406 671 q 563 572 481 611 q 633 538 610 550 q 749 451 707 501 q 790 322 790 401 q 719 126 790 204 q 528 10 647 47 q 263 -26 408 -26 q 69 6 149 -26 q -11 144 -11 39 q 35 268 -11 218 q 168 318 81 318 q 282 300 228 318 q 258 175 258 239 q 277 94 258 125 q 336 64 296 64 q 416 92 385 64 q 447 171 447 121 q 406 254 447 219 q 283 331 365 289 q 224 363 263 340 q 113 453 153 400 q 72 590 72 507 q 138 774 72 693 q 319 899 203 854 q 579 944 435 944 m 347 1146 l 424 1208 l 608 1129 l 840 1208 l 886 1146 l 664 965 l 518 965 l 347 1146 z "},"Ş":{"ha":824,"x_min":-11,"x_max":876,"o":"m 688 622 q 600 635 650 622 q 621 735 621 679 q 599 823 621 788 q 529 858 576 858 q 444 819 482 858 q 406 717 406 781 q 443 641 406 671 q 563 572 481 611 q 633 538 610 550 q 749 451 707 501 q 790 322 790 401 q 685 92 790 176 q 406 -17 579 8 l 389 -75 l 393 -75 q 509 -103 464 -75 q 554 -190 554 -132 q 522 -279 554 -240 q 433 -340 489 -318 q 311 -361 376 -361 q 210 -340 247 -361 q 174 -285 174 -319 q 181 -241 174 -264 q 200 -203 188 -218 q 235 -238 214 -226 q 292 -250 256 -250 q 331 -237 313 -250 q 349 -199 349 -224 q 294 -153 349 -153 q 233 -156 272 -153 l 272 -26 l 263 -26 q 69 6 149 -26 q -11 144 -11 39 q 35 268 -11 218 q 168 318 81 318 q 282 300 228 318 q 258 175 258 239 q 277 94 258 125 q 336 64 296 64 q 416 92 385 64 q 447 171 447 121 q 406 254 447 219 q 283 331 365 289 q 224 363 263 340 q 113 453 153 400 q 72 590 72 507 q 138 774 72 693 q 319 899 203 854 q 579 944 435 944 q 788 909 700 944 q 876 776 876 874 q 821 662 876 701 q 688 622 765 622 z "},"Ŝ":{"ha":824,"x_min":-11,"x_max":876,"o":"m 0 0 m 579 944 q 788 909 700 944 q 876 776 876 874 q 821 662 876 701 q 688 622 765 622 q 600 635 650 622 q 621 735 621 679 q 599 823 621 788 q 529 858 576 858 q 444 819 482 858 q 406 717 406 781 q 443 641 406 671 q 563 572 481 611 q 633 538 610 550 q 749 451 707 501 q 790 322 790 401 q 719 126 790 204 q 528 10 647 47 q 263 -26 408 -26 q 69 6 149 -26 q -11 144 -11 39 q 35 268 -11 218 q 168 318 81 318 q 282 300 228 318 q 258 175 258 239 q 277 94 258 125 q 336 64 296 64 q 416 92 385 64 q 447 171 447 121 q 406 254 447 219 q 283 331 365 289 q 224 363 263 340 q 113 453 153 400 q 72 590 72 507 q 138 774 72 693 q 319 899 203 854 q 579 944 435 944 m 844 1019 l 768 957 l 597 1008 l 379 957 l 333 1019 l 583 1186 l 646 1186 l 844 1019 z "},"Ș":{"ha":824,"x_min":-11,"x_max":876,"o":"m 0 0 m 579 944 q 788 909 700 944 q 876 776 876 874 q 821 662 876 701 q 688 622 765 622 q 600 635 650 622 q 621 735 621 679 q 599 823 621 788 q 529 858 576 858 q 444 819 482 858 q 406 717 406 781 q 443 641 406 671 q 563 572 481 611 q 633 538 610 550 q 749 451 707 501 q 790 322 790 401 q 719 126 790 204 q 528 10 647 47 q 263 -26 408 -26 q 69 6 149 -26 q -11 144 -11 39 q 35 268 -11 218 q 168 318 81 318 q 282 300 228 318 q 258 175 258 239 q 277 94 258 125 q 336 64 296 64 q 416 92 385 64 q 447 171 447 121 q 406 254 447 219 q 283 331 365 289 q 224 363 263 340 q 113 453 153 400 q 72 590 72 507 q 138 774 72 693 q 319 899 203 854 q 579 944 435 944 m 422 -158 q 379 -275 422 -226 q 275 -349 336 -324 q 164 -374 214 -374 q 113 -364 142 -374 q 183 -274 165 -311 q 201 -172 201 -236 q 197 -129 201 -153 q 186 -94 192 -106 q 299 -72 253 -72 q 422 -158 422 -72 z "},"Ṣ":{"ha":824,"x_min":-11,"x_max":876,"o":"m 0 0 m 579 944 q 788 909 700 944 q 876 776 876 874 q 821 662 876 701 q 688 622 765 622 q 600 635 650 622 q 621 735 621 679 q 599 823 621 788 q 529 858 576 858 q 444 819 482 858 q 406 717 406 781 q 443 641 406 671 q 563 572 481 611 q 633 538 610 550 q 749 451 707 501 q 790 322 790 401 q 719 126 790 204 q 528 10 647 47 q 263 -26 408 -26 q 69 6 149 -26 q -11 144 -11 39 q 35 268 -11 218 q 168 318 81 318 q 282 300 228 318 q 258 175 258 239 q 277 94 258 125 q 336 64 296 64 q 416 92 385 64 q 447 171 447 121 q 406 254 447 219 q 283 331 365 289 q 224 363 263 340 q 113 453 153 400 q 72 590 72 507 q 138 774 72 693 q 319 899 203 854 q 579 944 435 944 m 335 -44 q 450 -76 406 -44 q 494 -162 494 -108 q 449 -249 494 -218 q 329 -279 403 -279 q 210 -249 256 -279 q 165 -165 165 -219 q 214 -77 165 -110 q 335 -44 263 -44 z "},"ẞ":{"ha":1082,"x_min":-40,"x_max":1046,"o":"m 51 460 q 181 766 90 660 q 389 908 272 872 q 653 944 506 944 q 899 911 806 944 q 1046 807 992 878 l 1001 783 q 883 708 926 746 q 840 611 840 671 q 857 561 840 582 q 908 514 874 540 q 990 431 961 474 q 1018 313 1018 389 q 960 133 1018 210 q 804 15 901 56 q 594 -26 707 -26 q 448 -1 510 -26 q 386 107 386 24 q 417 199 386 161 q 506 236 447 236 q 588 218 546 236 q 571 125 571 160 q 585 85 571 101 q 621 69 599 69 q 668 88 651 69 q 685 143 685 107 q 667 199 685 175 q 611 254 649 222 q 530 342 558 300 q 501 453 501 383 q 590 661 501 576 q 808 808 679 746 q 761 865 797 840 q 674 889 725 889 q 524 785 582 889 q 426 481 467 682 l 332 0 l -40 0 l 51 460 z "},"Ə":{"ha":860,"x_min":-14,"x_max":856,"o":"m 275 -36 q 65 10 144 -36 q -14 183 -14 57 q 85 388 -14 311 q 407 481 185 464 q 488 485 449 485 q 494 554 494 524 q 466 658 494 624 q 374 693 438 693 q 247 666 313 693 q 149 590 182 639 q 119 629 128 610 q 110 678 110 649 q 168 824 110 764 q 317 915 226 885 q 503 944 407 944 q 763 844 671 944 q 856 536 856 743 q 790 246 856 375 q 594 40 725 117 q 275 -36 464 -36 m 314 36 q 398 121 356 36 q 476 428 440 206 q 319 346 369 428 q 267 138 269 264 q 276 62 267 88 q 314 36 285 36 z "},"T":{"ha":722,"x_min":67,"x_max":815,"o":"m 644 917 q 793 929 746 917 q 810 890 804 915 q 815 842 815 865 q 774 753 815 776 q 654 729 733 729 l 597 729 l 507 267 q 492 126 492 175 q 498 67 492 96 q 511 26 504 38 q 422 -14 472 0 q 321 -28 371 -28 q 189 16 233 -28 q 144 139 144 60 q 200 518 144 247 l 247 729 l 156 729 l 67 729 l 68 785 q 101 886 68 856 q 206 917 135 917 l 644 917 z "},"Ŧ":{"ha":722,"x_min":49,"x_max":815,"o":"m 793 929 q 810 890 804 915 q 815 842 815 865 q 774 753 815 776 q 654 729 733 729 l 597 729 l 557 526 l 721 526 q 726 485 726 504 q 696 413 726 442 q 613 385 665 385 l 531 385 l 507 267 q 492 126 492 175 q 498 67 492 96 q 511 26 504 38 q 422 -14 472 0 q 321 -28 371 -28 q 189 16 233 -28 q 144 139 144 60 q 169 344 144 203 l 172 385 l 53 385 q 49 425 49 399 q 79 498 50 469 q 150 526 108 526 l 204 526 l 247 729 l 156 729 l 67 729 l 68 785 q 101 886 68 856 q 206 917 135 917 l 644 917 q 793 929 746 917 z "},"Ť":{"ha":722,"x_min":67,"x_max":815,"o":"m 67 0 m 644 917 q 793 929 746 917 q 810 890 804 915 q 815 842 815 865 q 774 753 815 776 q 654 729 733 729 l 597 729 l 507 267 q 492 126 492 175 q 498 67 492 96 q 511 26 504 38 q 422 -14 472 0 q 321 -28 371 -28 q 189 16 233 -28 q 144 139 144 60 q 200 518 144 247 l 247 729 l 156 729 l 67 729 l 68 785 q 101 886 68 856 q 206 917 135 917 l 644 917 m 238 1146 l 314 1208 l 499 1129 l 731 1208 l 776 1146 l 554 965 l 408 965 l 238 1146 z "},"Ţ":{"ha":722,"x_min":67,"x_max":815,"o":"m 793 929 q 810 890 804 915 q 815 842 815 865 q 774 753 815 776 q 654 729 733 729 l 597 729 l 507 267 q 492 126 492 175 q 498 67 492 96 q 511 26 504 38 q 361 -25 449 -15 l 347 -75 l 351 -75 q 467 -103 422 -75 q 513 -190 513 -132 q 480 -279 513 -240 q 391 -340 447 -318 q 269 -361 335 -361 q 169 -340 206 -361 q 132 -285 132 -319 q 139 -241 132 -264 q 158 -203 146 -218 q 193 -238 172 -226 q 250 -250 214 -250 q 289 -237 271 -250 q 307 -199 307 -224 q 253 -153 307 -153 q 192 -156 231 -153 l 235 -14 q 144 139 144 24 q 200 518 144 247 l 247 729 l 156 729 l 67 729 l 68 785 q 101 886 68 856 q 206 917 135 917 l 644 917 q 793 929 746 917 z "},"Ț":{"ha":722,"x_min":67,"x_max":815,"o":"m 67 0 m 644 917 q 793 929 746 917 q 810 890 804 915 q 815 842 815 865 q 774 753 815 776 q 654 729 733 729 l 597 729 l 507 267 q 492 126 492 175 q 498 67 492 96 q 511 26 504 38 q 422 -14 472 0 q 321 -28 371 -28 q 189 16 233 -28 q 144 139 144 60 q 200 518 144 247 l 247 729 l 156 729 l 67 729 l 68 785 q 101 886 68 856 q 206 917 135 917 l 644 917 m 381 -158 q 338 -275 381 -226 q 233 -349 294 -324 q 122 -374 172 -374 q 71 -364 100 -374 q 142 -274 124 -311 q 160 -172 160 -236 q 155 -129 160 -153 q 144 -94 150 -106 q 257 -72 211 -72 q 381 -158 381 -72 z "},"Ṭ":{"ha":722,"x_min":67,"x_max":815,"o":"m 67 0 m 644 917 q 793 929 746 917 q 810 890 804 915 q 815 842 815 865 q 774 753 815 776 q 654 729 733 729 l 597 729 l 507 267 q 492 126 492 175 q 498 67 492 96 q 511 26 504 38 q 422 -14 472 0 q 321 -28 371 -28 q 189 16 233 -28 q 144 139 144 60 q 200 518 144 247 l 247 729 l 156 729 l 67 729 l 68 785 q 101 886 68 856 q 206 917 135 917 l 644 917 m 293 -44 q 408 -76 364 -44 q 453 -162 453 -108 q 407 -249 453 -218 q 288 -279 361 -279 q 169 -249 214 -279 q 124 -165 124 -219 q 172 -77 124 -110 q 293 -44 221 -44 z "},"U":{"ha":899,"x_min":25,"x_max":971,"o":"m 863 344 q 713 62 826 151 q 389 -28 600 -28 q 126 24 228 -28 q 25 200 25 76 q 31 276 25 228 q 43 360 36 324 l 150 917 l 528 917 l 421 340 q 410 277 419 331 q 400 190 400 224 q 417 131 400 150 q 472 111 433 111 q 542 136 515 111 q 583 206 568 161 q 613 328 597 250 l 729 917 l 971 917 l 863 344 z "},"Ú":{"ha":899,"x_min":25,"x_max":971,"o":"m 25 0 m 863 344 q 713 62 826 151 q 389 -28 600 -28 q 126 24 228 -28 q 25 200 25 76 q 31 276 25 228 q 43 360 36 324 l 150 917 l 528 917 l 421 340 q 410 277 419 331 q 400 190 400 224 q 417 131 400 150 q 472 111 433 111 q 542 136 515 111 q 583 206 568 161 q 613 328 597 250 l 729 917 l 971 917 l 863 344 m 481 1056 l 828 1207 q 860 1172 850 1190 q 871 1125 871 1153 q 814 1024 871 1057 q 667 989 757 990 l 500 985 l 481 1056 z "},"Ŭ":{"ha":899,"x_min":25,"x_max":971,"o":"m 25 0 m 863 344 q 713 62 826 151 q 389 -28 600 -28 q 126 24 228 -28 q 25 200 25 76 q 31 276 25 228 q 43 360 36 324 l 150 917 l 528 917 l 421 340 q 410 277 419 331 q 400 190 400 224 q 417 131 400 150 q 472 111 433 111 q 542 136 515 111 q 583 206 568 161 q 613 328 597 250 l 729 917 l 971 917 l 863 344 m 574 1157 q 568 1100 568 1118 l 567 1078 q 606 1040 567 1040 q 644 1062 632 1040 q 667 1128 656 1083 q 674 1157 668 1138 l 911 1157 q 807 1024 893 1075 q 583 972 721 972 q 388 1014 451 972 q 324 1119 324 1056 q 328 1157 324 1136 l 574 1157 z "},"Û":{"ha":899,"x_min":25,"x_max":971,"o":"m 25 0 m 863 344 q 713 62 826 151 q 389 -28 600 -28 q 126 24 228 -28 q 25 200 25 76 q 31 276 25 228 q 43 360 36 324 l 150 917 l 528 917 l 421 340 q 410 277 419 331 q 400 190 400 224 q 417 131 400 150 q 472 111 433 111 q 542 136 515 111 q 583 206 568 161 q 613 328 597 250 l 729 917 l 971 917 l 863 344 m 875 1019 l 799 957 l 628 1008 l 410 957 l 364 1019 l 614 1186 l 676 1186 l 875 1019 z "},"Ü":{"ha":899,"x_min":25,"x_max":971,"o":"m 25 0 m 863 344 q 713 62 826 151 q 389 -28 600 -28 q 126 24 228 -28 q 25 200 25 76 q 31 276 25 228 q 43 360 36 324 l 150 917 l 528 917 l 421 340 q 410 277 419 331 q 400 190 400 224 q 417 131 400 150 q 472 111 433 111 q 542 136 515 111 q 583 206 568 161 q 613 328 597 250 l 729 917 l 971 917 l 863 344 m 429 1193 q 544 1161 500 1193 q 589 1075 589 1129 q 543 989 589 1019 q 424 958 497 958 q 305 988 350 958 q 260 1072 260 1018 q 308 1160 260 1128 q 429 1193 357 1193 m 775 1193 q 890 1161 846 1193 q 935 1075 935 1129 q 889 989 935 1019 q 769 958 843 958 q 651 988 696 958 q 606 1072 606 1018 q 654 1160 606 1128 q 775 1193 703 1193 z "},"Ụ":{"ha":899,"x_min":25,"x_max":971,"o":"m 25 0 m 863 344 q 713 62 826 151 q 389 -28 600 -28 q 126 24 228 -28 q 25 200 25 76 q 31 276 25 228 q 43 360 36 324 l 150 917 l 528 917 l 421 340 q 410 277 419 331 q 400 190 400 224 q 417 131 400 150 q 472 111 433 111 q 542 136 515 111 q 583 206 568 161 q 613 328 597 250 l 729 917 l 971 917 l 863 344 m 393 -44 q 508 -76 464 -44 q 553 -162 553 -108 q 507 -249 553 -218 q 388 -279 461 -279 q 269 -249 314 -279 q 224 -165 224 -219 q 272 -77 224 -110 q 393 -44 321 -44 z "},"Ù":{"ha":899,"x_min":25,"x_max":971,"o":"m 25 0 m 863 344 q 713 62 826 151 q 389 -28 600 -28 q 126 24 228 -28 q 25 200 25 76 q 31 276 25 228 q 43 360 36 324 l 150 917 l 528 917 l 421 340 q 410 277 419 331 q 400 190 400 224 q 417 131 400 150 q 472 111 433 111 q 542 136 515 111 q 583 206 568 161 q 613 328 597 250 l 729 917 l 971 917 l 863 344 m 751 986 l 583 990 q 437 1026 493 993 q 381 1128 381 1060 q 392 1174 381 1156 q 424 1208 403 1193 l 771 1058 l 751 986 z "},"Ű":{"ha":899,"x_min":25,"x_max":1019,"o":"m 25 0 m 863 344 q 713 62 826 151 q 389 -28 600 -28 q 126 24 228 -28 q 25 200 25 76 q 31 276 25 228 q 43 360 36 324 l 150 917 l 528 917 l 421 340 q 410 277 419 331 q 400 190 400 224 q 417 131 400 150 q 472 111 433 111 q 542 136 515 111 q 583 206 568 161 q 613 328 597 250 l 729 917 l 971 917 l 863 344 m 610 1197 q 660 1157 642 1182 q 678 1103 678 1132 q 641 1017 678 1047 q 522 979 604 988 l 376 961 l 333 1038 l 610 1197 m 956 1197 q 1002 1156 985 1181 q 1019 1104 1019 1132 q 983 1019 1019 1049 q 864 979 946 990 l 721 961 l 675 1038 l 956 1197 z "},"Ū":{"ha":899,"x_min":25,"x_max":971,"o":"m 836 1164 q 842 1122 842 1142 q 813 1056 842 1082 q 731 1031 785 1031 l 390 1031 q 386 1069 386 1043 q 415 1138 388 1111 q 485 1164 443 1164 l 836 1164 m 863 344 q 713 62 826 151 q 389 -28 600 -28 q 126 24 228 -28 q 25 200 25 76 q 31 276 25 228 q 43 360 36 324 l 150 917 l 528 917 l 421 340 q 410 277 419 331 q 400 190 400 224 q 417 131 400 150 q 472 111 433 111 q 542 136 515 111 q 583 206 568 161 q 613 328 597 250 l 729 917 l 971 917 l 863 344 z "},"Ų":{"ha":899,"x_min":25,"x_max":971,"o":"m 971 917 l 863 344 q 783 139 839 219 q 638 17 728 58 l 638 14 q 551 -69 583 -24 q 518 -160 518 -114 q 533 -206 518 -192 q 576 -221 547 -221 q 622 -212 600 -221 q 660 -186 644 -204 q 680 -226 674 -207 q 686 -269 686 -244 q 642 -333 686 -307 q 513 -358 597 -358 q 381 -322 428 -358 q 335 -214 335 -285 q 436 -26 335 -96 q 389 -28 421 -28 q 126 24 228 -28 q 25 200 25 76 q 31 276 25 228 q 43 360 36 324 l 150 917 l 528 917 l 421 340 q 410 277 419 331 q 400 190 400 224 q 417 131 400 150 q 472 111 433 111 q 542 136 515 111 q 583 206 568 161 q 613 328 597 250 l 729 917 l 971 917 z "},"Ů":{"ha":899,"x_min":25,"x_max":971,"o":"m 25 0 m 863 344 q 713 62 826 151 q 389 -28 600 -28 q 126 24 228 -28 q 25 200 25 76 q 31 276 25 228 q 43 360 36 324 l 150 917 l 528 917 l 421 340 q 410 277 419 331 q 400 190 400 224 q 417 131 400 150 q 472 111 433 111 q 542 136 515 111 q 583 206 568 161 q 613 328 597 250 l 729 917 l 971 917 l 863 344 m 775 1089 q 720 994 775 1029 q 589 958 665 958 q 493 984 529 958 q 457 1054 457 1010 q 514 1150 457 1114 q 650 1186 571 1186 q 741 1161 707 1186 q 775 1089 775 1136 m 675 1085 q 666 1119 675 1108 q 636 1129 657 1129 q 578 1110 597 1129 q 558 1056 558 1090 q 568 1022 558 1032 q 601 1011 578 1011 q 675 1085 675 1011 z "},"Ũ":{"ha":899,"x_min":25,"x_max":971,"o":"m 25 0 m 863 344 q 713 62 826 151 q 389 -28 600 -28 q 126 24 228 -28 q 25 200 25 76 q 31 276 25 228 q 43 360 36 324 l 150 917 l 528 917 l 421 340 q 410 277 419 331 q 400 190 400 224 q 417 131 400 150 q 472 111 433 111 q 542 136 515 111 q 583 206 568 161 q 613 328 597 250 l 729 917 l 971 917 l 863 344 m 881 1190 q 910 1113 910 1156 q 871 1030 910 1058 q 763 1001 832 1001 q 588 1015 718 1001 q 451 1028 485 1028 q 394 1020 424 1028 q 351 1003 365 1013 q 321 1089 321 1043 q 360 1164 321 1138 q 471 1190 399 1190 q 569 1185 507 1190 q 649 1178 631 1179 q 790 1167 763 1167 q 881 1190 856 1167 z "},"V":{"ha":849,"x_min":56,"x_max":992,"o":"m 138 628 q 110 772 131 718 q 56 856 89 826 q 133 923 85 901 q 257 944 182 944 q 414 902 360 944 q 486 783 468 860 q 503 588 504 707 l 483 200 l 815 917 l 992 917 l 554 0 l 176 0 l 138 628 z "},"W":{"ha":1392,"x_min":56,"x_max":1535,"o":"m 138 628 q 110 772 131 718 q 56 856 89 826 q 133 923 85 901 q 257 944 182 944 q 414 902 360 944 q 486 783 468 860 q 503 588 504 707 l 483 200 l 794 917 l 988 917 l 1028 200 l 1358 917 l 1535 917 l 1100 0 l 763 0 l 733 371 l 554 0 l 176 0 l 138 628 z "},"Ẃ":{"ha":1392,"x_min":56,"x_max":1535,"o":"m 56 0 m 138 628 q 110 772 131 718 q 56 856 89 826 q 133 923 85 901 q 257 944 182 944 q 414 902 360 944 q 486 783 468 860 q 503 588 504 707 l 483 200 l 794 917 l 988 917 l 1028 200 l 1358 917 l 1535 917 l 1100 0 l 763 0 l 733 371 l 554 0 l 176 0 l 138 628 m 774 1056 l 1121 1207 q 1153 1172 1143 1190 q 1164 1125 1164 1153 q 1107 1024 1164 1057 q 960 989 1050 990 l 793 985 l 774 1056 z "},"Ŵ":{"ha":1392,"x_min":56,"x_max":1535,"o":"m 56 0 m 138 628 q 110 772 131 718 q 56 856 89 826 q 133 923 85 901 q 257 944 182 944 q 414 902 360 944 q 486 783 468 860 q 503 588 504 707 l 483 200 l 794 917 l 988 917 l 1028 200 l 1358 917 l 1535 917 l 1100 0 l 763 0 l 733 371 l 554 0 l 176 0 l 138 628 m 1168 1019 l 1092 957 l 921 1008 l 703 957 l 657 1019 l 907 1186 l 969 1186 l 1168 1019 z "},"Ẅ":{"ha":1392,"x_min":56,"x_max":1535,"o":"m 56 0 m 138 628 q 110 772 131 718 q 56 856 89 826 q 133 923 85 901 q 257 944 182 944 q 414 902 360 944 q 486 783 468 860 q 503 588 504 707 l 483 200 l 794 917 l 988 917 l 1028 200 l 1358 917 l 1535 917 l 1100 0 l 763 0 l 733 371 l 554 0 l 176 0 l 138 628 m 722 1193 q 838 1161 793 1193 q 882 1075 882 1129 q 836 989 882 1019 q 717 958 790 958 q 598 988 643 958 q 553 1072 553 1018 q 601 1160 553 1128 q 722 1193 650 1193 m 1068 1193 q 1183 1161 1139 1193 q 1228 1075 1228 1129 q 1182 989 1228 1019 q 1063 958 1136 958 q 944 988 989 958 q 899 1072 899 1018 q 947 1160 899 1128 q 1068 1193 996 1193 z "},"Ẁ":{"ha":1392,"x_min":56,"x_max":1535,"o":"m 56 0 m 138 628 q 110 772 131 718 q 56 856 89 826 q 133 923 85 901 q 257 944 182 944 q 414 902 360 944 q 486 783 468 860 q 503 588 504 707 l 483 200 l 794 917 l 988 917 l 1028 200 l 1358 917 l 1535 917 l 1100 0 l 763 0 l 733 371 l 554 0 l 176 0 l 138 628 m 1044 986 l 876 990 q 730 1026 786 993 q 674 1128 674 1060 q 685 1174 674 1156 q 717 1208 696 1193 l 1064 1058 l 1044 986 z "},"X":{"ha":832,"x_min":-68,"x_max":943,"o":"m 161 710 q 116 808 136 779 q 57 864 96 838 q 158 923 103 903 q 290 943 214 943 q 389 930 351 943 q 453 883 426 917 q 503 783 481 849 l 551 642 l 749 917 l 943 917 l 613 467 l 689 240 q 749 135 711 178 q 818 85 786 92 q 731 0 793 28 q 597 -28 669 -28 q 441 27 497 -28 q 346 193 385 82 l 324 257 l 126 0 l -68 0 l 261 432 l 161 710 z "},"Y":{"ha":883,"x_min":54,"x_max":1019,"o":"m 511 444 q 681 827 592 710 q 894 944 771 944 q 1019 861 999 944 q 856 756 939 832 q 703 567 774 681 q 590 318 633 453 l 528 0 l 157 0 l 233 390 q 197 652 217 564 q 147 784 178 740 q 54 863 115 828 q 274 944 140 944 q 462 869 400 944 q 524 638 524 794 q 519 551 524 597 l 511 444 z "},"Ý":{"ha":883,"x_min":54,"x_max":1019,"o":"m 54 0 m 511 444 q 681 827 592 710 q 894 944 771 944 q 1019 861 999 944 q 856 756 939 832 q 703 567 774 681 q 590 318 633 453 l 528 0 l 157 0 l 233 390 q 197 652 217 564 q 147 784 178 740 q 54 863 115 828 q 274 944 140 944 q 462 869 400 944 q 524 638 524 794 q 519 551 524 597 l 511 444 m 478 1056 l 825 1207 q 858 1172 847 1190 q 868 1125 868 1153 q 811 1024 868 1057 q 664 989 754 990 l 497 985 l 478 1056 z "},"Ŷ":{"ha":883,"x_min":54,"x_max":1019,"o":"m 54 0 m 511 444 q 681 827 592 710 q 894 944 771 944 q 1019 861 999 944 q 856 756 939 832 q 703 567 774 681 q 590 318 633 453 l 528 0 l 157 0 l 233 390 q 197 652 217 564 q 147 784 178 740 q 54 863 115 828 q 274 944 140 944 q 462 869 400 944 q 524 638 524 794 q 519 551 524 597 l 511 444 m 872 1019 l 796 957 l 625 1008 l 407 957 l 361 1019 l 611 1186 l 674 1186 l 872 1019 z "},"Ÿ":{"ha":883,"x_min":54,"x_max":1019,"o":"m 54 0 m 511 444 q 681 827 592 710 q 894 944 771 944 q 1019 861 999 944 q 856 756 939 832 q 703 567 774 681 q 590 318 633 453 l 528 0 l 157 0 l 233 390 q 197 652 217 564 q 147 784 178 740 q 54 863 115 828 q 274 944 140 944 q 462 869 400 944 q 524 638 524 794 q 519 551 524 597 l 511 444 m 426 1193 q 542 1161 497 1193 q 586 1075 586 1129 q 540 989 586 1019 q 421 958 494 958 q 302 988 347 958 q 257 1072 257 1018 q 306 1160 257 1128 q 426 1193 354 1193 m 772 1193 q 888 1161 843 1193 q 932 1075 932 1129 q 886 989 932 1019 q 767 958 840 958 q 648 988 693 958 q 603 1072 603 1018 q 651 1160 603 1128 q 772 1193 700 1193 z "},"Ỳ":{"ha":883,"x_min":54,"x_max":1019,"o":"m 54 0 m 511 444 q 681 827 592 710 q 894 944 771 944 q 1019 861 999 944 q 856 756 939 832 q 703 567 774 681 q 590 318 633 453 l 528 0 l 157 0 l 233 390 q 197 652 217 564 q 147 784 178 740 q 54 863 115 828 q 274 944 140 944 q 462 869 400 944 q 524 638 524 794 q 519 551 524 597 l 511 444 m 749 986 l 581 990 q 434 1026 490 993 q 378 1128 378 1060 q 389 1174 378 1156 q 421 1208 400 1193 l 768 1058 l 749 986 z "},"Ỹ":{"ha":883,"x_min":54,"x_max":1019,"o":"m 54 0 m 511 444 q 681 827 592 710 q 894 944 771 944 q 1019 861 999 944 q 856 756 939 832 q 703 567 774 681 q 590 318 633 453 l 528 0 l 157 0 l 233 390 q 197 652 217 564 q 147 784 178 740 q 54 863 115 828 q 274 944 140 944 q 462 869 400 944 q 524 638 524 794 q 519 551 524 597 l 511 444 m 878 1190 q 907 1113 907 1156 q 868 1030 907 1058 q 760 1001 829 1001 q 585 1015 715 1001 q 449 1028 482 1028 q 392 1020 421 1028 q 349 1003 363 1013 q 318 1089 318 1043 q 357 1164 318 1138 q 468 1190 396 1190 q 566 1185 504 1190 q 646 1178 628 1179 q 788 1167 760 1167 q 878 1190 853 1167 z "},"Z":{"ha":781,"x_min":8,"x_max":831,"o":"m 529 613 q 296 639 393 639 q 199 631 235 639 q 132 611 163 624 q 85 764 85 685 q 140 894 85 851 q 299 938 196 938 q 458 921 344 938 q 632 904 575 904 q 764 917 706 904 q 817 846 803 885 q 831 760 831 807 q 799 637 831 688 q 699 532 768 586 l 279 306 q 535 275 386 275 q 627 284 589 275 q 693 324 665 293 q 747 163 747 236 q 678 33 747 81 q 475 -15 608 -15 q 253 8 389 -15 q 132 22 158 22 q 92 17 106 22 q 72 0 79 11 q 27 73 46 22 q 8 176 8 124 q 35 283 8 233 q 125 383 63 333 l 529 613 z "},"Ź":{"ha":781,"x_min":8,"x_max":831,"o":"m 8 0 m 529 613 q 296 639 393 639 q 199 631 235 639 q 132 611 163 624 q 85 764 85 685 q 140 894 85 851 q 299 938 196 938 q 458 921 344 938 q 632 904 575 904 q 764 917 706 904 q 817 846 803 885 q 831 760 831 807 q 799 637 831 688 q 699 532 768 586 l 279 306 q 535 275 386 275 q 627 284 589 275 q 693 324 665 293 q 747 163 747 236 q 678 33 747 81 q 475 -15 608 -15 q 253 8 389 -15 q 132 22 158 22 q 92 17 106 22 q 72 0 79 11 q 27 73 46 22 q 8 176 8 124 q 35 283 8 233 q 125 383 63 333 l 529 613 m 371 1056 l 718 1207 q 751 1172 740 1190 q 761 1125 761 1153 q 704 1024 761 1057 q 557 989 647 990 l 390 985 l 371 1056 z "},"Ž":{"ha":781,"x_min":8,"x_max":831,"o":"m 8 0 m 529 613 q 296 639 393 639 q 199 631 235 639 q 132 611 163 624 q 85 764 85 685 q 140 894 85 851 q 299 938 196 938 q 458 921 344 938 q 632 904 575 904 q 764 917 706 904 q 817 846 803 885 q 831 760 831 807 q 799 637 831 688 q 699 532 768 586 l 279 306 q 535 275 386 275 q 627 284 589 275 q 693 324 665 293 q 747 163 747 236 q 678 33 747 81 q 475 -15 608 -15 q 253 8 389 -15 q 132 22 158 22 q 92 17 106 22 q 72 0 79 11 q 27 73 46 22 q 8 176 8 124 q 35 283 8 233 q 125 383 63 333 l 529 613 m 268 1146 l 344 1208 l 529 1129 l 761 1208 l 807 1146 l 585 965 l 439 965 l 268 1146 z "},"Ż":{"ha":781,"x_min":8,"x_max":831,"o":"m 500 1193 q 615 1161 571 1193 q 660 1075 660 1129 q 614 989 660 1019 q 494 958 568 958 q 376 988 421 958 q 331 1072 331 1018 q 379 1160 331 1128 q 500 1193 428 1193 m 529 613 q 296 639 393 639 q 199 631 235 639 q 132 611 163 624 q 85 764 85 685 q 140 894 85 851 q 299 938 196 938 q 458 921 344 938 q 632 904 575 904 q 764 917 706 904 q 817 846 803 885 q 831 760 831 807 q 799 637 831 688 q 699 532 768 586 l 279 306 q 535 275 386 275 q 627 284 589 275 q 693 324 665 293 q 747 163 747 236 q 678 33 747 81 q 475 -15 608 -15 q 253 8 389 -15 q 132 22 158 22 q 92 17 106 22 q 72 0 79 11 q 27 73 46 22 q 8 176 8 124 q 35 283 8 233 q 125 383 63 333 l 529 613 z "},"Ẓ":{"ha":781,"x_min":8,"x_max":831,"o":"m 8 0 m 529 613 q 296 639 393 639 q 199 631 235 639 q 132 611 163 624 q 85 764 85 685 q 140 894 85 851 q 299 938 196 938 q 458 921 344 938 q 632 904 575 904 q 764 917 706 904 q 817 846 803 885 q 831 760 831 807 q 799 637 831 688 q 699 532 768 586 l 279 306 q 535 275 386 275 q 627 284 589 275 q 693 324 665 293 q 747 163 747 236 q 678 33 747 81 q 475 -15 608 -15 q 253 8 389 -15 q 132 22 158 22 q 92 17 106 22 q 72 0 79 11 q 27 73 46 22 q 8 176 8 124 q 35 283 8 233 q 125 383 63 333 l 529 613 m 365 -44 q 481 -76 436 -44 q 525 -162 525 -108 q 479 -249 525 -218 q 360 -279 433 -279 q 241 -249 286 -279 q 196 -165 196 -219 q 244 -77 196 -110 q 365 -44 293 -44 z "},"a":{"ha":872,"x_min":10,"x_max":868,"o":"m 774 240 q 767 182 767 203 q 786 122 767 147 q 843 93 806 97 q 762 3 825 35 q 631 -28 699 -28 q 531 -8 576 -28 q 467 51 485 13 q 369 -6 428 15 q 240 -28 311 -28 q 64 44 118 -28 q 10 253 10 115 q 65 510 10 401 q 224 678 121 619 q 468 736 328 736 q 536 731 506 736 q 608 711 567 725 l 868 742 l 774 240 m 517 636 q 467 653 499 653 q 412 625 436 653 q 366 517 388 597 q 325 288 344 438 q 317 165 317 221 q 326 91 317 118 q 358 64 335 64 q 415 107 396 64 q 444 213 435 150 l 517 636 z "},"á":{"ha":872,"x_min":10,"x_max":868,"o":"m 10 0 m 774 240 q 767 182 767 203 q 786 122 767 147 q 843 93 806 97 q 762 3 825 35 q 631 -28 699 -28 q 531 -8 576 -28 q 467 51 485 13 q 369 -6 428 15 q 240 -28 311 -28 q 64 44 118 -28 q 10 253 10 115 q 65 510 10 401 q 224 678 121 619 q 468 736 328 736 q 536 731 506 736 q 608 711 567 725 l 868 742 l 774 240 m 517 636 q 467 653 499 653 q 412 625 436 653 q 366 517 388 597 q 325 288 344 438 q 317 165 317 221 q 326 91 317 118 q 358 64 335 64 q 415 107 396 64 q 444 213 435 150 l 517 636 m 697 1082 q 750 985 750 1063 q 701 876 750 911 q 564 829 651 842 l 385 801 l 353 874 l 697 1082 z "},"ă":{"ha":872,"x_min":10,"x_max":868,"o":"m 10 0 m 774 240 q 767 182 767 203 q 786 122 767 147 q 843 93 806 97 q 762 3 825 35 q 631 -28 699 -28 q 531 -8 576 -28 q 467 51 485 13 q 369 -6 428 15 q 240 -28 311 -28 q 64 44 118 -28 q 10 253 10 115 q 65 510 10 401 q 224 678 121 619 q 468 736 328 736 q 536 731 506 736 q 608 711 567 725 l 868 742 l 774 240 m 517 636 q 467 653 499 653 q 412 625 436 653 q 366 517 388 597 q 325 288 344 438 q 317 165 317 221 q 326 91 317 118 q 358 64 335 64 q 415 107 396 64 q 444 213 435 150 l 517 636 m 510 1021 q 504 964 504 982 l 503 931 q 540 876 503 876 q 580 903 568 876 q 603 986 592 929 l 610 1021 l 847 1021 q 744 867 831 926 q 518 808 657 808 q 315 856 371 808 q 260 983 260 903 q 264 1021 260 1000 l 510 1021 z "},"â":{"ha":872,"x_min":10,"x_max":868,"o":"m 10 0 m 774 240 q 767 182 767 203 q 786 122 767 147 q 843 93 806 97 q 762 3 825 35 q 631 -28 699 -28 q 531 -8 576 -28 q 467 51 485 13 q 369 -6 428 15 q 240 -28 311 -28 q 64 44 118 -28 q 10 253 10 115 q 65 510 10 401 q 224 678 121 619 q 468 736 328 736 q 536 731 506 736 q 608 711 567 725 l 868 742 l 774 240 m 517 636 q 467 653 499 653 q 412 625 436 653 q 366 517 388 597 q 325 288 344 438 q 317 165 317 221 q 326 91 317 118 q 358 64 335 64 q 415 107 396 64 q 444 213 435 150 l 517 636 m 783 879 l 707 817 l 536 868 l 318 817 l 272 879 l 522 1046 l 585 1046 l 783 879 z "},"ä":{"ha":872,"x_min":10,"x_max":871,"o":"m 10 0 m 774 240 q 767 182 767 203 q 786 122 767 147 q 843 93 806 97 q 762 3 825 35 q 631 -28 699 -28 q 531 -8 576 -28 q 467 51 485 13 q 369 -6 428 15 q 240 -28 311 -28 q 64 44 118 -28 q 10 253 10 115 q 65 510 10 401 q 224 678 121 619 q 468 736 328 736 q 536 731 506 736 q 608 711 567 725 l 868 742 l 774 240 m 517 636 q 467 653 499 653 q 412 625 436 653 q 366 517 388 597 q 325 288 344 438 q 317 165 317 221 q 326 91 317 118 q 358 64 335 64 q 415 107 396 64 q 444 213 435 150 l 517 636 m 703 1053 q 825 1019 779 1053 q 871 929 871 986 q 823 839 871 871 q 697 807 775 807 q 572 838 619 807 q 525 926 525 869 q 576 1019 525 985 q 703 1053 626 1053 m 340 1053 q 463 1019 417 1053 q 508 929 508 986 q 460 839 508 871 q 335 807 413 807 q 210 838 257 807 q 163 926 163 869 q 213 1019 163 985 q 340 1053 264 1053 z "},"à":{"ha":872,"x_min":10,"x_max":868,"o":"m 10 0 m 774 240 q 767 182 767 203 q 786 122 767 147 q 843 93 806 97 q 762 3 825 35 q 631 -28 699 -28 q 531 -8 576 -28 q 467 51 485 13 q 369 -6 428 15 q 240 -28 311 -28 q 64 44 118 -28 q 10 253 10 115 q 65 510 10 401 q 224 678 121 619 q 468 736 328 736 q 536 731 506 736 q 608 711 567 725 l 868 742 l 774 240 m 517 636 q 467 653 499 653 q 412 625 436 653 q 366 517 388 597 q 325 288 344 438 q 317 165 317 221 q 326 91 317 118 q 358 64 335 64 q 415 107 396 64 q 444 213 435 150 l 517 636 m 472 829 q 335 878 385 843 q 285 985 285 913 q 298 1047 285 1021 q 338 1082 311 1072 l 682 874 l 650 801 l 472 829 z "},"ā":{"ha":872,"x_min":10,"x_max":868,"o":"m 10 0 m 774 240 q 767 182 767 203 q 786 122 767 147 q 843 93 806 97 q 762 3 825 35 q 631 -28 699 -28 q 531 -8 576 -28 q 467 51 485 13 q 369 -6 428 15 q 240 -28 311 -28 q 64 44 118 -28 q 10 253 10 115 q 65 510 10 401 q 224 678 121 619 q 468 736 328 736 q 536 731 506 736 q 608 711 567 725 l 868 742 l 774 240 m 517 636 q 467 653 499 653 q 412 625 436 653 q 366 517 388 597 q 325 288 344 438 q 317 165 317 221 q 326 91 317 118 q 358 64 335 64 q 415 107 396 64 q 444 213 435 150 l 517 636 m 767 989 q 772 947 772 967 q 744 881 772 907 q 661 856 715 856 l 321 856 q 317 894 317 868 q 346 963 318 936 q 415 989 374 989 l 767 989 z "},"ą":{"ha":872,"x_min":10,"x_max":868,"o":"m 783 14 q 697 -69 729 -24 q 664 -160 664 -114 q 678 -206 664 -192 q 722 -221 693 -221 q 768 -212 746 -221 q 806 -186 790 -204 q 826 -226 819 -207 q 832 -269 832 -244 q 788 -333 832 -307 q 658 -358 743 -358 q 527 -322 574 -358 q 481 -214 481 -285 q 586 -24 481 -93 q 513 2 544 -17 q 467 51 482 21 q 369 -6 428 15 q 240 -28 311 -28 q 64 44 118 -28 q 10 253 10 115 q 65 510 10 401 q 224 678 121 619 q 468 736 328 736 q 536 731 506 736 q 608 711 567 725 l 868 742 l 774 240 q 767 182 767 203 q 786 122 767 147 q 843 93 806 97 q 783 17 829 49 l 783 14 m 517 636 q 467 653 499 653 q 412 625 436 653 q 366 517 388 597 q 325 288 344 438 q 317 165 317 221 q 326 91 317 118 q 358 64 335 64 q 415 107 396 64 q 444 213 435 150 l 517 636 z "},"å":{"ha":872,"x_min":10,"x_max":868,"o":"m 10 0 m 774 240 q 767 182 767 203 q 786 122 767 147 q 843 93 806 97 q 762 3 825 35 q 631 -28 699 -28 q 531 -8 576 -28 q 467 51 485 13 q 369 -6 428 15 q 240 -28 311 -28 q 64 44 118 -28 q 10 253 10 115 q 65 510 10 401 q 224 678 121 619 q 468 736 328 736 q 536 731 506 736 q 608 711 567 725 l 868 742 l 774 240 m 517 636 q 467 653 499 653 q 412 625 436 653 q 366 517 388 597 q 325 288 344 438 q 317 165 317 221 q 326 91 317 118 q 358 64 335 64 q 415 107 396 64 q 444 213 435 150 l 517 636 m 503 789 q 401 817 439 789 q 364 900 364 846 q 423 1013 364 969 q 563 1056 482 1056 q 659 1027 624 1056 q 694 944 694 999 q 638 831 694 874 q 503 789 582 789 m 518 846 q 569 872 547 846 q 590 936 590 899 q 578 978 590 963 q 543 994 567 994 q 493 967 513 994 q 474 903 474 940 q 485 861 474 876 q 518 846 496 846 z "},"ǻ":{"ha":872,"x_min":10,"x_max":868,"o":"m 408 1131 l 756 1282 q 788 1247 778 1265 q 799 1200 799 1228 q 742 1099 799 1132 q 594 1064 685 1065 l 428 1060 l 408 1131 m 501 761 q 400 790 438 761 q 363 872 363 818 q 422 985 363 942 q 561 1028 481 1028 q 658 999 622 1028 q 693 917 693 971 q 637 803 693 846 q 501 761 581 761 m 517 818 q 567 844 546 818 q 589 908 589 871 q 577 951 589 935 q 542 967 565 967 q 492 940 511 967 q 472 875 472 913 q 483 833 472 849 q 517 818 494 818 m 774 240 q 767 182 767 203 q 786 122 767 147 q 843 93 806 97 q 762 3 825 35 q 631 -28 699 -28 q 531 -8 576 -28 q 467 51 485 13 q 369 -6 428 15 q 240 -28 311 -28 q 64 44 118 -28 q 10 253 10 115 q 65 510 10 401 q 224 678 121 619 q 468 736 328 736 q 536 731 506 736 q 608 711 567 725 l 868 742 l 774 240 m 517 636 q 467 653 499 653 q 412 625 436 653 q 366 517 388 597 q 325 288 344 438 q 317 165 317 221 q 326 91 317 118 q 358 64 335 64 q 415 107 396 64 q 444 213 435 150 l 517 636 z "},"ã":{"ha":872,"x_min":10,"x_max":868,"o":"m 10 0 m 774 240 q 767 182 767 203 q 786 122 767 147 q 843 93 806 97 q 762 3 825 35 q 631 -28 699 -28 q 531 -8 576 -28 q 467 51 485 13 q 369 -6 428 15 q 240 -28 311 -28 q 64 44 118 -28 q 10 253 10 115 q 65 510 10 401 q 224 678 121 619 q 468 736 328 736 q 536 731 506 736 q 608 711 567 725 l 868 742 l 774 240 m 517 636 q 467 653 499 653 q 412 625 436 653 q 366 517 388 597 q 325 288 344 438 q 317 165 317 221 q 326 91 317 118 q 358 64 335 64 q 415 107 396 64 q 444 213 435 150 l 517 636 m 786 1014 q 815 938 815 979 q 776 854 815 883 q 669 825 738 825 q 492 840 614 825 q 357 851 378 851 q 301 844 329 851 q 257 826 272 836 q 226 913 226 867 q 265 988 226 961 q 376 1014 304 1014 q 554 1001 410 1014 q 697 990 671 990 q 786 1014 761 990 z "},"æ":{"ha":1168,"x_min":10,"x_max":1213,"o":"m 942 736 q 1142 699 1071 736 q 1213 561 1213 663 q 1137 407 1213 461 q 889 331 1061 353 q 785 324 821 325 q 781 278 781 303 q 806 201 781 226 q 886 176 831 176 q 997 197 939 176 q 1079 253 1054 218 q 1107 222 1099 238 q 1115 181 1115 206 q 1070 71 1115 118 q 946 -2 1025 24 q 767 -28 867 -28 q 606 -6 683 -28 q 476 90 529 17 q 251 -28 425 -28 q 65 41 121 -28 q 10 250 10 110 q 63 508 10 399 q 215 677 115 618 q 449 736 314 736 q 663 681 582 736 q 799 724 735 713 q 942 736 863 736 m 928 669 q 794 379 840 669 q 926 441 885 379 q 968 597 968 503 q 960 651 968 632 q 928 669 953 669 m 517 636 q 467 653 499 653 q 412 625 436 653 q 366 517 388 597 q 325 288 344 438 q 317 165 317 221 q 326 91 317 118 q 358 64 335 64 q 415 107 396 64 q 444 213 435 150 l 517 636 z "},"ǽ":{"ha":1168,"x_min":10,"x_max":1213,"o":"m 10 0 m 942 736 q 1142 699 1071 736 q 1213 561 1213 663 q 1137 407 1213 461 q 889 331 1061 353 q 785 324 821 325 q 781 278 781 303 q 806 201 781 226 q 886 176 831 176 q 997 197 939 176 q 1079 253 1054 218 q 1107 222 1099 238 q 1115 181 1115 206 q 1070 71 1115 118 q 946 -2 1025 24 q 767 -28 867 -28 q 606 -6 683 -28 q 476 90 529 17 q 251 -28 425 -28 q 65 41 121 -28 q 10 250 10 110 q 63 508 10 399 q 215 677 115 618 q 449 736 314 736 q 663 681 582 736 q 799 724 735 713 q 942 736 863 736 m 928 669 q 794 379 840 669 q 926 441 885 379 q 968 597 968 503 q 960 651 968 632 q 928 669 953 669 m 517 636 q 467 653 499 653 q 412 625 436 653 q 366 517 388 597 q 325 288 344 438 q 317 165 317 221 q 326 91 317 118 q 358 64 335 64 q 415 107 396 64 q 444 213 435 150 l 517 636 m 885 1082 q 938 985 938 1063 q 888 876 938 911 q 751 829 839 842 l 572 801 l 540 874 l 885 1082 z "},"b":{"ha":844,"x_min":-8,"x_max":836,"o":"m 467 840 q 417 679 449 747 q 508 721 454 706 q 619 736 561 736 q 786 669 736 736 q 836 468 836 601 q 781 204 836 315 q 617 33 725 93 q 357 -28 510 -28 q 151 -2 257 -28 q -8 79 46 24 l 160 972 l 499 1006 l 467 840 m 318 72 q 369 56 339 56 q 425 83 401 56 q 472 190 449 111 q 517 419 494 269 q 528 543 525 478 q 519 618 528 592 q 488 646 511 644 q 430 603 450 646 q 399 496 410 560 l 318 72 z "},"c":{"ha":697,"x_min":15,"x_max":746,"o":"m 504 736 q 746 585 746 736 q 692 472 746 508 q 554 436 639 436 q 489 443 507 436 q 508 518 500 474 q 517 596 517 563 q 509 639 517 624 q 482 654 501 654 q 406 588 440 654 q 351 433 371 522 q 331 283 331 343 q 353 203 331 229 q 428 176 375 176 q 533 203 482 176 q 607 276 585 231 q 650 238 638 258 q 663 185 663 218 q 613 68 663 117 q 488 -4 564 19 q 328 -28 411 -28 q 98 52 181 -28 q 15 294 15 132 q 76 533 15 433 q 248 685 138 633 q 504 736 358 736 z "},"ć":{"ha":697,"x_min":15,"x_max":746,"o":"m 15 0 m 504 736 q 746 585 746 736 q 692 472 746 508 q 554 436 639 436 q 489 443 507 436 q 508 518 500 474 q 517 596 517 563 q 509 639 517 624 q 482 654 501 654 q 406 588 440 654 q 351 433 371 522 q 331 283 331 343 q 353 203 331 229 q 428 176 375 176 q 533 203 482 176 q 607 276 585 231 q 650 238 638 258 q 663 185 663 218 q 613 68 663 117 q 488 -4 564 19 q 328 -28 411 -28 q 98 52 181 -28 q 15 294 15 132 q 76 533 15 433 q 248 685 138 633 q 504 736 358 736 m 689 1082 q 742 985 742 1063 q 692 876 742 911 q 556 829 643 842 l 376 801 l 344 874 l 689 1082 z "},"č":{"ha":697,"x_min":15,"x_max":779,"o":"m 15 0 m 504 736 q 746 585 746 736 q 692 472 746 508 q 554 436 639 436 q 489 443 507 436 q 508 518 500 474 q 517 596 517 563 q 509 639 517 624 q 482 654 501 654 q 406 588 440 654 q 351 433 371 522 q 331 283 331 343 q 353 203 331 229 q 428 176 375 176 q 533 203 482 176 q 607 276 585 231 q 650 238 638 258 q 663 185 663 218 q 613 68 663 117 q 488 -4 564 19 q 328 -28 411 -28 q 98 52 181 -28 q 15 294 15 132 q 76 533 15 433 q 248 685 138 633 q 504 736 358 736 m 268 1025 l 344 1088 l 515 981 l 733 1088 l 779 1025 l 571 817 l 425 817 l 268 1025 z "},"ç":{"ha":697,"x_min":15,"x_max":746,"o":"m 554 436 q 489 443 507 436 q 508 518 500 474 q 517 596 517 563 q 509 639 517 624 q 482 654 501 654 q 406 588 440 654 q 351 433 371 522 q 331 283 331 343 q 353 203 331 229 q 428 176 375 176 q 533 203 482 176 q 607 276 585 231 q 650 238 638 258 q 663 185 663 218 q 584 43 663 97 q 393 -24 506 -11 l 378 -75 l 382 -75 q 498 -103 453 -75 q 543 -190 543 -132 q 510 -279 543 -240 q 422 -340 478 -318 q 300 -361 365 -361 q 199 -340 236 -361 q 163 -285 163 -319 q 169 -241 163 -264 q 189 -203 176 -218 q 224 -238 203 -226 q 281 -250 244 -250 q 319 -237 301 -250 q 338 -199 338 -224 q 283 -153 338 -153 q 222 -156 261 -153 l 263 -24 q 80 72 144 -7 q 15 294 15 151 q 76 533 15 433 q 248 685 138 633 q 504 736 358 736 q 746 585 746 736 q 692 472 746 508 q 554 436 639 436 z "},"ĉ":{"ha":697,"x_min":15,"x_max":775,"o":"m 15 0 m 504 736 q 746 585 746 736 q 692 472 746 508 q 554 436 639 436 q 489 443 507 436 q 508 518 500 474 q 517 596 517 563 q 509 639 517 624 q 482 654 501 654 q 406 588 440 654 q 351 433 371 522 q 331 283 331 343 q 353 203 331 229 q 428 176 375 176 q 533 203 482 176 q 607 276 585 231 q 650 238 638 258 q 663 185 663 218 q 613 68 663 117 q 488 -4 564 19 q 328 -28 411 -28 q 98 52 181 -28 q 15 294 15 132 q 76 533 15 433 q 248 685 138 633 q 504 736 358 736 m 775 879 l 699 817 l 528 868 l 310 817 l 264 879 l 514 1046 l 576 1046 l 775 879 z "},"ċ":{"ha":697,"x_min":15,"x_max":746,"o":"m 15 0 m 504 736 q 746 585 746 736 q 692 472 746 508 q 554 436 639 436 q 489 443 507 436 q 508 518 500 474 q 517 596 517 563 q 509 639 517 624 q 482 654 501 654 q 406 588 440 654 q 351 433 371 522 q 331 283 331 343 q 353 203 331 229 q 428 176 375 176 q 533 203 482 176 q 607 276 585 231 q 650 238 638 258 q 663 185 663 218 q 613 68 663 117 q 488 -4 564 19 q 328 -28 411 -28 q 98 52 181 -28 q 15 294 15 132 q 76 533 15 433 q 248 685 138 633 q 504 736 358 736 m 538 1053 q 660 1019 614 1053 q 706 929 706 986 q 658 839 706 871 q 532 807 610 807 q 407 838 454 807 q 360 926 360 869 q 410 1019 360 985 q 538 1053 461 1053 z "},"d":{"ha":872,"x_min":10,"x_max":918,"o":"m 774 240 q 767 182 767 203 q 786 122 767 147 q 843 93 806 97 q 762 3 825 35 q 631 -28 699 -28 q 531 -8 576 -28 q 467 51 485 13 q 369 -6 428 15 q 240 -28 311 -28 q 64 44 118 -28 q 10 253 10 115 q 65 510 10 401 q 224 678 121 619 q 469 736 328 736 q 540 733 522 736 l 582 972 l 918 1006 l 774 240 m 517 636 q 467 653 499 653 q 412 625 436 653 q 366 517 388 597 q 325 288 344 438 q 317 165 317 221 q 326 91 317 118 q 358 64 335 64 q 415 107 396 64 q 444 213 435 150 l 517 636 z "},"ð":{"ha":850,"x_min":11,"x_max":893,"o":"m 893 960 q 876 919 893 936 q 819 889 860 903 l 775 874 q 816 779 804 824 q 828 667 828 735 q 781 362 828 521 q 619 88 733 203 q 318 -28 506 -28 q 91 49 171 -28 q 11 276 11 125 q 70 509 11 408 q 228 664 129 610 q 446 718 328 718 q 513 714 481 718 q 556 703 544 710 q 565 799 565 761 l 424 747 q 401 797 401 772 q 414 834 401 818 q 451 858 426 850 l 526 886 q 458 906 497 906 q 434 902 444 906 q 424 897 424 899 q 419 919 419 901 q 457 978 419 957 q 561 1000 494 1000 q 636 990 603 1000 q 707 953 669 981 l 874 1015 q 893 960 893 997 m 424 897 m 531 618 q 481 635 513 635 q 423 609 449 635 q 372 506 397 583 q 322 278 347 428 q 311 156 311 189 q 350 54 306 54 q 414 119 389 54 q 465 307 439 185 l 531 618 z "},"ď":{"ha":872,"x_min":10,"x_max":1144,"o":"m 10 0 m 774 240 q 767 182 767 203 q 786 122 767 147 q 843 93 806 97 q 762 3 825 35 q 631 -28 699 -28 q 531 -8 576 -28 q 467 51 485 13 q 369 -6 428 15 q 240 -28 311 -28 q 64 44 118 -28 q 10 253 10 115 q 65 510 10 401 q 224 678 121 619 q 469 736 328 736 q 540 733 522 736 l 582 972 l 918 1006 l 774 240 m 517 636 q 467 653 499 653 q 412 625 436 653 q 366 517 388 597 q 325 288 344 438 q 317 165 317 221 q 326 91 317 118 q 358 64 335 64 q 415 107 396 64 q 444 213 435 150 l 517 636 m 943 976 q 986 990 958 983 q 1035 997 1014 997 q 1114 965 1083 997 q 1144 876 1144 932 q 1120 810 1144 846 q 1050 748 1096 774 q 944 722 1004 722 q 909 726 922 722 q 893 731 896 729 q 944 813 932 775 q 956 888 956 850 q 943 976 956 931 z "},"đ":{"ha":882,"x_min":19,"x_max":1010,"o":"m 1004 922 q 1010 881 1010 897 q 979 809 1010 838 q 896 781 949 781 l 885 781 l 783 240 q 776 182 776 203 q 796 122 776 147 q 853 93 815 97 q 772 3 835 35 q 640 -28 708 -28 q 540 -8 586 -28 q 476 51 494 13 q 379 -6 438 15 q 250 -28 321 -28 q 74 44 128 -28 q 19 253 19 115 q 75 510 19 401 q 234 678 131 619 q 479 736 338 736 q 550 733 532 736 l 558 781 l 447 781 q 442 819 442 793 q 473 893 443 864 q 544 922 503 922 l 583 922 l 592 972 l 928 1006 l 911 922 l 1004 922 m 526 636 q 476 653 508 653 q 422 625 446 653 q 376 517 397 597 q 335 288 354 438 q 326 165 326 221 q 335 91 326 118 q 368 64 344 64 q 425 107 406 64 q 454 213 444 150 l 526 636 z "},"ḍ":{"ha":872,"x_min":10,"x_max":918,"o":"m 10 0 m 774 240 q 767 182 767 203 q 786 122 767 147 q 843 93 806 97 q 762 3 825 35 q 631 -28 699 -28 q 531 -8 576 -28 q 467 51 485 13 q 369 -6 428 15 q 240 -28 311 -28 q 64 44 118 -28 q 10 253 10 115 q 65 510 10 401 q 224 678 121 619 q 469 736 328 736 q 540 733 522 736 l 582 972 l 918 1006 l 774 240 m 517 636 q 467 653 499 653 q 412 625 436 653 q 366 517 388 597 q 325 288 344 438 q 317 165 317 221 q 326 91 317 118 q 358 64 335 64 q 415 107 396 64 q 444 213 435 150 l 517 636 m 393 -44 q 508 -76 464 -44 q 553 -162 553 -108 q 507 -249 553 -218 q 388 -279 461 -279 q 269 -249 314 -279 q 224 -165 224 -219 q 272 -77 224 -110 q 393 -44 321 -44 z "},"ǳ":{"ha":1549,"x_min":10,"x_max":1572,"o":"m 10 0 m 774 240 q 767 182 767 203 q 786 122 767 147 q 843 93 806 97 q 762 3 825 35 q 631 -28 699 -28 q 531 -8 576 -28 q 467 51 485 13 q 369 -6 428 15 q 240 -28 311 -28 q 64 44 118 -28 q 10 253 10 115 q 65 510 10 401 q 224 678 121 619 q 469 736 328 736 q 540 733 522 736 l 582 972 l 918 1006 l 774 240 m 517 636 q 467 653 499 653 q 412 625 436 653 q 366 517 388 597 q 325 288 344 438 q 317 165 317 221 q 326 91 317 118 q 358 64 335 64 q 415 107 396 64 q 444 213 435 150 l 517 636 m 1288 447 q 1115 479 1189 479 q 978 406 1004 479 q 935 485 950 438 q 919 578 919 532 q 972 699 919 661 q 1111 736 1024 736 q 1219 728 1157 736 q 1293 718 1282 719 q 1451 701 1413 701 q 1531 717 1501 701 q 1572 622 1572 678 q 1542 532 1572 571 q 1458 457 1513 493 l 1136 285 q 1231 258 1193 267 q 1303 249 1269 249 q 1394 265 1349 249 q 1469 313 1440 281 q 1515 178 1515 261 q 1458 22 1515 75 q 1300 -31 1401 -31 q 1235 -25 1267 -31 q 1151 -8 1203 -19 q 1096 3 1143 -7 q 1006 13 1049 13 q 913 0 968 13 q 872 41 886 17 q 858 104 858 65 q 884 196 858 156 q 957 271 910 236 l 1288 447 z "},"ǆ":{"ha":1549,"x_min":10,"x_max":1572,"o":"m 10 0 m 774 240 q 767 182 767 203 q 786 122 767 147 q 843 93 806 97 q 762 3 825 35 q 631 -28 699 -28 q 531 -8 576 -28 q 467 51 485 13 q 369 -6 428 15 q 240 -28 311 -28 q 64 44 118 -28 q 10 253 10 115 q 65 510 10 401 q 224 678 121 619 q 469 736 328 736 q 540 733 522 736 l 582 972 l 918 1006 l 774 240 m 517 636 q 467 653 499 653 q 412 625 436 653 q 366 517 388 597 q 325 288 344 438 q 317 165 317 221 q 326 91 317 118 q 358 64 335 64 q 415 107 396 64 q 444 213 435 150 l 517 636 m 1288 447 q 1115 479 1189 479 q 978 406 1004 479 q 935 485 950 438 q 919 578 919 532 q 972 699 919 661 q 1111 736 1024 736 q 1219 728 1157 736 q 1293 718 1282 719 q 1451 701 1413 701 q 1531 717 1501 701 q 1572 622 1572 678 q 1542 532 1572 571 q 1458 457 1513 493 l 1136 285 q 1231 258 1193 267 q 1303 249 1269 249 q 1394 265 1349 249 q 1469 313 1440 281 q 1515 178 1515 261 q 1458 22 1515 75 q 1300 -31 1401 -31 q 1235 -25 1267 -31 q 1151 -8 1203 -19 q 1096 3 1143 -7 q 1006 13 1049 13 q 913 0 968 13 q 872 41 886 17 q 858 104 858 65 q 884 196 858 156 q 957 271 910 236 l 1288 447 m 1056 1025 l 1132 1088 l 1303 981 l 1521 1088 l 1567 1025 l 1358 817 l 1213 817 l 1056 1025 z "},"e":{"ha":738,"x_min":14,"x_max":760,"o":"m 506 736 q 689 699 618 736 q 760 561 760 661 q 675 400 760 460 q 400 328 590 340 q 331 324 389 326 q 326 278 326 303 q 352 201 326 226 q 433 176 378 176 q 543 197 486 176 q 626 253 600 218 q 653 222 646 238 q 661 181 661 206 q 612 67 661 114 q 486 -4 563 19 q 328 -28 410 -28 q 97 51 181 -28 q 14 290 14 131 q 68 517 14 415 q 233 677 122 618 q 506 736 343 736 m 475 669 q 340 379 389 669 q 436 414 396 379 q 497 499 476 449 q 518 596 518 550 q 507 649 518 629 q 475 669 496 669 z "},"é":{"ha":738,"x_min":14,"x_max":760,"o":"m 14 0 m 506 736 q 689 699 618 736 q 760 561 760 661 q 675 400 760 460 q 400 328 590 340 q 331 324 389 326 q 326 278 326 303 q 352 201 326 226 q 433 176 378 176 q 543 197 486 176 q 626 253 600 218 q 653 222 646 238 q 661 181 661 206 q 612 67 661 114 q 486 -4 563 19 q 328 -28 410 -28 q 97 51 181 -28 q 14 290 14 131 q 68 517 14 415 q 233 677 122 618 q 506 736 343 736 m 475 669 q 340 379 389 669 q 436 414 396 379 q 497 499 476 449 q 518 596 518 550 q 507 649 518 629 q 475 669 496 669 m 676 1082 q 729 985 729 1063 q 680 876 729 911 q 543 829 631 842 l 364 801 l 332 874 l 676 1082 z "},"ĕ":{"ha":738,"x_min":14,"x_max":826,"o":"m 14 0 m 506 736 q 689 699 618 736 q 760 561 760 661 q 675 400 760 460 q 400 328 590 340 q 331 324 389 326 q 326 278 326 303 q 352 201 326 226 q 433 176 378 176 q 543 197 486 176 q 626 253 600 218 q 653 222 646 238 q 661 181 661 206 q 612 67 661 114 q 486 -4 563 19 q 328 -28 410 -28 q 97 51 181 -28 q 14 290 14 131 q 68 517 14 415 q 233 677 122 618 q 506 736 343 736 m 475 669 q 340 379 389 669 q 436 414 396 379 q 497 499 476 449 q 518 596 518 550 q 507 649 518 629 q 475 669 496 669 m 489 1021 q 483 964 483 982 l 482 931 q 519 876 482 876 q 559 903 547 876 q 582 986 571 929 l 589 1021 l 826 1021 q 723 867 810 926 q 497 808 636 808 q 294 856 350 808 q 239 983 239 903 q 243 1021 239 1000 l 489 1021 z "},"ě":{"ha":738,"x_min":14,"x_max":767,"o":"m 14 0 m 506 736 q 689 699 618 736 q 760 561 760 661 q 675 400 760 460 q 400 328 590 340 q 331 324 389 326 q 326 278 326 303 q 352 201 326 226 q 433 176 378 176 q 543 197 486 176 q 626 253 600 218 q 653 222 646 238 q 661 181 661 206 q 612 67 661 114 q 486 -4 563 19 q 328 -28 410 -28 q 97 51 181 -28 q 14 290 14 131 q 68 517 14 415 q 233 677 122 618 q 506 736 343 736 m 475 669 q 340 379 389 669 q 436 414 396 379 q 497 499 476 449 q 518 596 518 550 q 507 649 518 629 q 475 669 496 669 m 256 1025 l 332 1088 l 503 981 l 721 1088 l 767 1025 l 558 817 l 413 817 l 256 1025 z "},"ê":{"ha":738,"x_min":14,"x_max":763,"o":"m 14 0 m 506 736 q 689 699 618 736 q 760 561 760 661 q 675 400 760 460 q 400 328 590 340 q 331 324 389 326 q 326 278 326 303 q 352 201 326 226 q 433 176 378 176 q 543 197 486 176 q 626 253 600 218 q 653 222 646 238 q 661 181 661 206 q 612 67 661 114 q 486 -4 563 19 q 328 -28 410 -28 q 97 51 181 -28 q 14 290 14 131 q 68 517 14 415 q 233 677 122 618 q 506 736 343 736 m 475 669 q 340 379 389 669 q 436 414 396 379 q 497 499 476 449 q 518 596 518 550 q 507 649 518 629 q 475 669 496 669 m 763 879 l 686 817 l 515 868 l 297 817 l 251 879 l 501 1046 l 564 1046 l 763 879 z "},"ë":{"ha":738,"x_min":14,"x_max":850,"o":"m 14 0 m 506 736 q 689 699 618 736 q 760 561 760 661 q 675 400 760 460 q 400 328 590 340 q 331 324 389 326 q 326 278 326 303 q 352 201 326 226 q 433 176 378 176 q 543 197 486 176 q 626 253 600 218 q 653 222 646 238 q 661 181 661 206 q 612 67 661 114 q 486 -4 563 19 q 328 -28 410 -28 q 97 51 181 -28 q 14 290 14 131 q 68 517 14 415 q 233 677 122 618 q 506 736 343 736 m 475 669 q 340 379 389 669 q 436 414 396 379 q 497 499 476 449 q 518 596 518 550 q 507 649 518 629 q 475 669 496 669 m 682 1053 q 804 1019 758 1053 q 850 929 850 986 q 802 839 850 871 q 676 807 754 807 q 551 838 599 807 q 504 926 504 869 q 555 1019 504 985 q 682 1053 606 1053 m 319 1053 q 442 1019 396 1053 q 488 929 488 986 q 440 839 488 871 q 314 807 392 807 q 189 838 236 807 q 142 926 142 869 q 192 1019 142 985 q 319 1053 243 1053 z "},"ė":{"ha":738,"x_min":14,"x_max":760,"o":"m 14 0 m 506 736 q 689 699 618 736 q 760 561 760 661 q 675 400 760 460 q 400 328 590 340 q 331 324 389 326 q 326 278 326 303 q 352 201 326 226 q 433 176 378 176 q 543 197 486 176 q 626 253 600 218 q 653 222 646 238 q 661 181 661 206 q 612 67 661 114 q 486 -4 563 19 q 328 -28 410 -28 q 97 51 181 -28 q 14 290 14 131 q 68 517 14 415 q 233 677 122 618 q 506 736 343 736 m 475 669 q 340 379 389 669 q 436 414 396 379 q 497 499 476 449 q 518 596 518 550 q 507 649 518 629 q 475 669 496 669 m 525 1053 q 647 1019 601 1053 q 693 929 693 986 q 645 839 693 871 q 519 807 597 807 q 394 838 442 807 q 347 926 347 869 q 398 1019 347 985 q 525 1053 449 1053 z "},"ẹ":{"ha":738,"x_min":14,"x_max":760,"o":"m 14 0 m 506 736 q 689 699 618 736 q 760 561 760 661 q 675 400 760 460 q 400 328 590 340 q 331 324 389 326 q 326 278 326 303 q 352 201 326 226 q 433 176 378 176 q 543 197 486 176 q 626 253 600 218 q 653 222 646 238 q 661 181 661 206 q 612 67 661 114 q 486 -4 563 19 q 328 -28 410 -28 q 97 51 181 -28 q 14 290 14 131 q 68 517 14 415 q 233 677 122 618 q 506 736 343 736 m 475 669 q 340 379 389 669 q 436 414 396 379 q 497 499 476 449 q 518 596 518 550 q 507 649 518 629 q 475 669 496 669 m 339 -44 q 454 -76 410 -44 q 499 -162 499 -108 q 453 -249 499 -218 q 333 -279 407 -279 q 215 -249 260 -279 q 169 -165 169 -219 q 218 -77 169 -110 q 339 -44 267 -44 z "},"è":{"ha":738,"x_min":14,"x_max":760,"o":"m 14 0 m 506 736 q 689 699 618 736 q 760 561 760 661 q 675 400 760 460 q 400 328 590 340 q 331 324 389 326 q 326 278 326 303 q 352 201 326 226 q 433 176 378 176 q 543 197 486 176 q 626 253 600 218 q 653 222 646 238 q 661 181 661 206 q 612 67 661 114 q 486 -4 563 19 q 328 -28 410 -28 q 97 51 181 -28 q 14 290 14 131 q 68 517 14 415 q 233 677 122 618 q 506 736 343 736 m 475 669 q 340 379 389 669 q 436 414 396 379 q 497 499 476 449 q 518 596 518 550 q 507 649 518 629 q 475 669 496 669 m 451 829 q 314 878 364 843 q 264 985 264 913 q 277 1047 264 1021 q 317 1082 290 1072 l 661 874 l 629 801 l 451 829 z "},"ē":{"ha":738,"x_min":14,"x_max":760,"o":"m 14 0 m 506 736 q 689 699 618 736 q 760 561 760 661 q 675 400 760 460 q 400 328 590 340 q 331 324 389 326 q 326 278 326 303 q 352 201 326 226 q 433 176 378 176 q 543 197 486 176 q 626 253 600 218 q 653 222 646 238 q 661 181 661 206 q 612 67 661 114 q 486 -4 563 19 q 328 -28 410 -28 q 97 51 181 -28 q 14 290 14 131 q 68 517 14 415 q 233 677 122 618 q 506 736 343 736 m 475 669 q 340 379 389 669 q 436 414 396 379 q 497 499 476 449 q 518 596 518 550 q 507 649 518 629 q 475 669 496 669 m 746 989 q 751 947 751 967 q 723 881 751 907 q 640 856 694 856 l 300 856 q 296 894 296 868 q 325 963 297 936 q 394 989 353 989 l 746 989 z "},"ę":{"ha":738,"x_min":14,"x_max":760,"o":"m 400 328 q 331 324 389 326 q 326 278 326 303 q 352 201 326 226 q 433 176 378 176 q 543 197 486 176 q 626 253 600 218 q 653 222 646 238 q 661 181 661 206 q 626 83 661 125 q 532 13 592 40 q 446 -70 478 -25 q 414 -160 414 -115 q 428 -206 414 -192 q 472 -221 443 -221 q 518 -212 496 -221 q 556 -186 540 -204 q 576 -226 569 -207 q 582 -269 582 -244 q 538 -333 582 -307 q 408 -358 493 -358 q 277 -322 324 -358 q 231 -214 231 -285 q 331 -28 231 -96 l 328 -28 q 97 51 181 -28 q 14 290 14 131 q 68 517 14 415 q 233 677 122 618 q 506 736 343 736 q 689 699 618 736 q 760 561 760 661 q 675 400 760 460 q 400 328 590 340 m 475 669 q 340 379 389 669 q 436 414 396 379 q 497 499 476 449 q 518 596 518 550 q 507 649 518 629 q 475 669 496 669 z "},"ẽ":{"ha":738,"x_min":14,"x_max":794,"o":"m 14 0 m 506 736 q 689 699 618 736 q 760 561 760 661 q 675 400 760 460 q 400 328 590 340 q 331 324 389 326 q 326 278 326 303 q 352 201 326 226 q 433 176 378 176 q 543 197 486 176 q 626 253 600 218 q 653 222 646 238 q 661 181 661 206 q 612 67 661 114 q 486 -4 563 19 q 328 -28 410 -28 q 97 51 181 -28 q 14 290 14 131 q 68 517 14 415 q 233 677 122 618 q 506 736 343 736 m 475 669 q 340 379 389 669 q 436 414 396 379 q 497 499 476 449 q 518 596 518 550 q 507 649 518 629 q 475 669 496 669 m 765 1014 q 794 938 794 979 q 756 854 794 883 q 649 825 717 825 q 471 840 593 825 q 336 851 357 851 q 280 844 308 851 q 236 826 251 836 q 206 913 206 867 q 244 988 206 961 q 356 1014 283 1014 q 533 1001 389 1014 q 676 990 650 990 q 765 1014 740 990 z "},"ə":{"ha":768,"x_min":0,"x_max":746,"o":"m 254 -28 q 71 10 142 -28 q 0 147 0 47 q 85 308 0 249 q 360 381 169 368 q 429 385 371 382 q 433 431 433 406 q 408 507 433 482 q 326 532 382 532 q 217 511 274 532 q 133 456 160 490 q 106 487 114 471 q 99 528 99 503 q 148 642 99 594 q 274 713 197 689 q 432 736 350 736 q 663 657 579 736 q 746 418 746 578 q 692 192 746 293 q 527 31 638 90 q 254 -28 417 -28 m 285 39 q 419 329 371 39 q 324 294 364 329 q 263 209 283 260 q 242 113 242 158 q 253 59 242 79 q 285 39 264 39 z "},"f":{"ha":453,"x_min":-12,"x_max":810,"o":"m 151 793 q 283 958 182 915 q 532 1000 385 1000 q 810 885 810 1000 q 765 813 810 836 q 658 789 721 789 q 565 806 606 789 q 580 849 575 822 q 585 897 585 876 q 578 928 585 918 q 557 939 572 939 q 510 905 528 939 q 479 803 492 871 l 463 708 l 589 708 l 581 646 l 450 646 l 338 0 l -12 -33 l 119 646 l 21 646 l 33 708 l 131 708 l 151 793 z "},"g":{"ha":836,"x_min":-74,"x_max":867,"o":"m 763 188 q 683 -67 733 32 q 533 -222 633 -167 q 265 -278 433 -278 q 28 -244 129 -278 q -74 -124 -74 -211 q -24 -23 -74 -61 q 101 15 26 15 q 200 -1 153 15 q 276 -53 247 -18 q 242 -128 242 -90 q 249 -160 242 -144 q 278 -175 256 -175 q 370 -99 328 -175 q 447 169 413 -22 q 342 104 406 128 q 211 81 279 81 q 69 128 119 81 q 19 289 19 175 q 76 512 19 410 q 235 675 132 614 q 474 736 339 736 q 596 715 554 736 l 867 739 l 763 188 m 518 638 q 468 654 500 654 q 394 586 425 654 q 349 429 364 518 q 333 289 333 340 q 376 193 333 193 q 432 235 414 193 q 463 342 450 276 l 518 638 z "},"ğ":{"ha":836,"x_min":-74,"x_max":867,"o":"m 0 0 m 763 188 q 683 -67 733 32 q 533 -222 633 -167 q 265 -278 433 -278 q 28 -244 129 -278 q -74 -124 -74 -211 q -24 -23 -74 -61 q 101 15 26 15 q 200 -1 153 15 q 276 -53 247 -18 q 242 -128 242 -90 q 249 -160 242 -144 q 278 -175 256 -175 q 370 -99 328 -175 q 447 169 413 -22 q 342 104 406 128 q 211 81 279 81 q 69 128 119 81 q 19 289 19 175 q 76 512 19 410 q 235 675 132 614 q 474 736 339 736 q 596 715 554 736 l 867 739 l 763 188 m 518 638 q 468 654 500 654 q 394 586 425 654 q 349 429 364 518 q 333 289 333 340 q 376 193 333 193 q 432 235 414 193 q 463 342 450 276 l 518 638 m 517 1021 q 511 964 511 982 l 510 931 q 547 876 510 876 q 587 903 575 876 q 610 986 599 929 l 617 1021 l 854 1021 q 751 867 838 926 q 525 808 664 808 q 322 856 378 808 q 267 983 267 903 q 271 1021 267 1000 l 517 1021 z "},"ĝ":{"ha":836,"x_min":-74,"x_max":867,"o":"m 0 0 m 763 188 q 683 -67 733 32 q 533 -222 633 -167 q 265 -278 433 -278 q 28 -244 129 -278 q -74 -124 -74 -211 q -24 -23 -74 -61 q 101 15 26 15 q 200 -1 153 15 q 276 -53 247 -18 q 242 -128 242 -90 q 249 -160 242 -144 q 278 -175 256 -175 q 370 -99 328 -175 q 447 169 413 -22 q 342 104 406 128 q 211 81 279 81 q 69 128 119 81 q 19 289 19 175 q 76 512 19 410 q 235 675 132 614 q 474 736 339 736 q 596 715 554 736 l 867 739 l 763 188 m 518 638 q 468 654 500 654 q 394 586 425 654 q 349 429 364 518 q 333 289 333 340 q 376 193 333 193 q 432 235 414 193 q 463 342 450 276 l 518 638 m 790 879 l 714 817 l 543 868 l 325 817 l 279 879 l 529 1046 l 592 1046 l 790 879 z "},"ģ":{"ha":836,"x_min":-74,"x_max":867,"o":"m 0 0 m 763 188 q 683 -67 733 32 q 533 -222 633 -167 q 265 -278 433 -278 q 28 -244 129 -278 q -74 -124 -74 -211 q -24 -23 -74 -61 q 101 15 26 15 q 200 -1 153 15 q 276 -53 247 -18 q 242 -128 242 -90 q 249 -160 242 -144 q 278 -175 256 -175 q 370 -99 328 -175 q 447 169 413 -22 q 342 104 406 128 q 211 81 279 81 q 69 128 119 81 q 19 289 19 175 q 76 512 19 410 q 235 675 132 614 q 474 736 339 736 q 596 715 554 736 l 867 739 l 763 188 m 518 638 q 468 654 500 654 q 394 586 425 654 q 349 429 364 518 q 333 289 333 340 q 376 193 333 193 q 432 235 414 193 q 463 342 450 276 l 518 638 m 619 1086 q 681 1082 631 1086 q 604 988 625 1031 q 583 888 583 946 q 599 807 583 843 q 553 790 586 797 q 490 783 519 783 q 393 803 424 783 q 363 867 363 822 q 398 974 363 924 q 493 1056 433 1025 q 619 1086 553 1086 z "},"ġ":{"ha":836,"x_min":-74,"x_max":867,"o":"m 0 0 m 763 188 q 683 -67 733 32 q 533 -222 633 -167 q 265 -278 433 -278 q 28 -244 129 -278 q -74 -124 -74 -211 q -24 -23 -74 -61 q 101 15 26 15 q 200 -1 153 15 q 276 -53 247 -18 q 242 -128 242 -90 q 249 -160 242 -144 q 278 -175 256 -175 q 370 -99 328 -175 q 447 169 413 -22 q 342 104 406 128 q 211 81 279 81 q 69 128 119 81 q 19 289 19 175 q 76 512 19 410 q 235 675 132 614 q 474 736 339 736 q 596 715 554 736 l 867 739 l 763 188 m 518 638 q 468 654 500 654 q 394 586 425 654 q 349 429 364 518 q 333 289 333 340 q 376 193 333 193 q 432 235 414 193 q 463 342 450 276 l 518 638 m 553 1053 q 675 1019 629 1053 q 721 929 721 986 q 673 839 721 871 q 547 807 625 807 q 422 838 469 807 q 375 926 375 869 q 426 1019 375 985 q 553 1053 476 1053 z "},"h":{"ha":879,"x_min":-25,"x_max":857,"o":"m 479 840 q 429 679 461 747 q 643 736 510 736 q 851 579 851 736 q 842 499 851 544 q 815 378 833 453 q 781 188 781 239 q 857 93 781 103 q 775 3 838 35 q 638 -28 713 -28 q 499 15 553 -28 q 446 135 446 57 q 455 215 446 169 q 486 354 464 260 q 526 572 526 513 q 494 629 526 629 q 436 578 456 629 q 400 440 417 528 l 314 0 l -25 -33 l 172 972 l 511 1006 l 479 840 z "},"ħ":{"ha":879,"x_min":-25,"x_max":857,"o":"m 463 767 q 429 679 446 714 q 643 736 510 736 q 851 579 851 736 q 842 499 851 544 q 815 378 833 453 q 781 188 781 239 q 857 93 781 103 q 775 3 838 35 q 638 -28 713 -28 q 499 15 553 -28 q 446 135 446 57 q 455 215 446 169 q 486 354 464 260 q 526 572 526 513 q 494 629 526 629 q 436 578 456 629 q 400 440 417 528 l 314 0 l -25 -33 l 132 767 l 57 767 q 53 807 53 781 q 83 879 54 850 q 156 908 113 908 l 160 908 l 172 972 l 511 1006 l 492 908 l 614 908 q 619 867 619 883 q 589 795 619 824 q 506 767 558 767 l 463 767 z "},"ĥ":{"ha":879,"x_min":-25,"x_max":857,"o":"m 781 188 q 857 93 781 103 q 775 3 838 35 q 638 -28 713 -28 q 499 15 553 -28 q 446 135 446 57 q 455 215 446 169 q 486 354 464 260 q 526 572 526 513 q 494 629 526 629 q 436 578 456 629 q 400 440 417 528 l 314 0 l -25 -33 l 172 972 l 511 1006 l 404 1038 l 186 986 l 140 1049 l 390 1215 l 453 1215 l 651 1049 l 575 986 l 511 1006 l 479 840 q 429 679 461 747 q 643 736 510 736 q 851 579 851 736 q 842 499 851 544 q 815 378 833 453 q 781 188 781 239 z "},"ḥ":{"ha":879,"x_min":-25,"x_max":857,"o":"m 0 0 m 479 840 q 429 679 461 747 q 643 736 510 736 q 851 579 851 736 q 842 499 851 544 q 815 378 833 453 q 781 188 781 239 q 857 93 781 103 q 775 3 838 35 q 638 -28 713 -28 q 499 15 553 -28 q 446 135 446 57 q 455 215 446 169 q 486 354 464 260 q 526 572 526 513 q 494 629 526 629 q 436 578 456 629 q 400 440 417 528 l 314 0 l -25 -33 l 172 972 l 511 1006 l 479 840 m 393 -44 q 508 -76 464 -44 q 553 -162 553 -108 q 507 -249 553 -218 q 388 -279 461 -279 q 269 -249 314 -279 q 224 -165 224 -219 q 272 -77 224 -110 q 393 -44 321 -44 z "},"i":{"ha":461,"x_min":21,"x_max":493,"o":"m 325 1053 q 447 1019 401 1053 q 493 929 493 986 q 445 839 493 871 q 319 807 397 807 q 194 838 242 807 q 147 926 147 869 q 198 1019 147 985 q 325 1053 249 1053 m 363 240 q 356 182 356 203 q 375 122 356 147 q 432 93 394 97 q 351 3 414 35 q 213 -28 288 -28 q 74 15 126 -28 q 21 140 21 57 q 33 263 21 185 q 69 465 46 342 q 83 536 82 531 l 117 708 l 458 742 l 363 240 z "},"ı":{"ha":453,"x_min":13,"x_max":450,"o":"m 354 240 q 347 182 347 203 q 367 122 347 147 q 424 93 386 97 q 342 3 406 35 q 204 -28 279 -28 q 65 15 118 -28 q 13 140 13 57 q 25 263 13 185 q 61 465 38 342 q 75 536 74 531 l 108 708 l 450 742 l 354 240 z "},"í":{"ha":453,"x_min":13,"x_max":533,"o":"m 13 0 m 354 240 q 347 182 347 203 q 367 122 347 147 q 424 93 386 97 q 342 3 406 35 q 204 -28 279 -28 q 65 15 118 -28 q 13 140 13 57 q 25 263 13 185 q 61 465 38 342 q 75 536 74 531 l 108 708 l 450 742 l 354 240 m 481 1082 q 533 985 533 1063 q 484 876 533 911 q 347 829 435 842 l 168 801 l 136 874 l 481 1082 z "},"ĭ":{"ha":453,"x_min":13,"x_max":631,"o":"m 13 0 m 354 240 q 347 182 347 203 q 367 122 347 147 q 424 93 386 97 q 342 3 406 35 q 204 -28 279 -28 q 65 15 118 -28 q 13 140 13 57 q 25 263 13 185 q 61 465 38 342 q 75 536 74 531 l 108 708 l 450 742 l 354 240 m 293 1021 q 288 964 288 982 l 286 931 q 324 876 286 876 q 363 903 351 876 q 386 986 375 929 l 393 1021 l 631 1021 q 527 867 614 926 q 301 808 440 808 q 99 856 154 808 q 43 983 43 903 q 47 1021 43 1000 l 293 1021 z "},"î":{"ha":453,"x_min":13,"x_max":567,"o":"m 13 0 m 354 240 q 347 182 347 203 q 367 122 347 147 q 424 93 386 97 q 342 3 406 35 q 204 -28 279 -28 q 65 15 118 -28 q 13 140 13 57 q 25 263 13 185 q 61 465 38 342 q 75 536 74 531 l 108 708 l 450 742 l 354 240 m 567 879 l 490 817 l 319 868 l 101 817 l 56 879 l 306 1046 l 368 1046 l 567 879 z "},"ï":{"ha":453,"x_min":-54,"x_max":654,"o":"m 0 0 m 354 240 q 347 182 347 203 q 367 122 347 147 q 424 93 386 97 q 342 3 406 35 q 204 -28 279 -28 q 65 15 118 -28 q 13 140 13 57 q 25 263 13 185 q 61 465 38 342 q 75 536 74 531 l 108 708 l 450 742 l 354 240 m 486 1053 q 608 1019 563 1053 q 654 929 654 986 q 606 839 654 871 q 481 807 558 807 q 356 838 403 807 q 308 926 308 869 q 359 1019 308 985 q 486 1053 410 1053 m 124 1053 q 246 1019 200 1053 q 292 929 292 986 q 244 839 292 871 q 118 807 196 807 q -7 838 40 807 q -54 926 -54 869 q -3 1019 -54 985 q 124 1053 47 1053 z "},"ị":{"ha":461,"x_min":1,"x_max":493,"o":"m 1 0 m 325 1053 q 447 1019 401 1053 q 493 929 493 986 q 445 839 493 871 q 319 807 397 807 q 194 838 242 807 q 147 926 147 869 q 198 1019 147 985 q 325 1053 249 1053 m 363 240 q 356 182 356 203 q 375 122 356 147 q 432 93 394 97 q 351 3 414 35 q 213 -28 288 -28 q 74 15 126 -28 q 21 140 21 57 q 33 263 21 185 q 69 465 46 342 q 83 536 82 531 l 117 708 l 458 742 l 363 240 m 171 -44 q 286 -76 242 -44 q 331 -162 331 -108 q 285 -249 331 -218 q 165 -279 239 -279 q 47 -249 92 -279 q 1 -165 1 -219 q 50 -77 1 -110 q 171 -44 99 -44 z "},"ì":{"ha":453,"x_min":13,"x_max":465,"o":"m 13 0 m 354 240 q 347 182 347 203 q 367 122 347 147 q 424 93 386 97 q 342 3 406 35 q 204 -28 279 -28 q 65 15 118 -28 q 13 140 13 57 q 25 263 13 185 q 61 465 38 342 q 75 536 74 531 l 108 708 l 450 742 l 354 240 m 256 829 q 118 878 168 843 q 68 985 68 913 q 81 1047 68 1021 q 121 1082 94 1072 l 465 874 l 433 801 l 256 829 z "},"ĳ":{"ha":892,"x_min":21,"x_max":946,"o":"m 21 0 m 325 1053 q 447 1019 401 1053 q 493 929 493 986 q 445 839 493 871 q 319 807 397 807 q 194 838 242 807 q 147 926 147 869 q 198 1019 147 985 q 325 1053 249 1053 m 363 240 q 356 182 356 203 q 375 122 356 147 q 432 93 394 97 q 351 3 414 35 q 213 -28 288 -28 q 74 15 126 -28 q 21 140 21 57 q 33 263 21 185 q 69 465 46 342 q 83 536 82 531 l 117 708 l 458 742 l 363 240 m 778 1053 q 900 1019 854 1053 q 946 929 946 986 q 898 839 946 871 q 772 807 850 807 q 647 838 694 807 q 600 926 600 869 q 651 1019 600 985 q 778 1053 701 1053 m 810 169 q 742 -82 781 14 q 640 -228 703 -178 q 478 -278 576 -278 q 351 -250 404 -278 q 279 -164 297 -222 q 369 -129 335 -162 q 428 -28 404 -96 q 475 164 451 40 l 578 708 l 918 742 l 810 169 z "},"ī":{"ha":453,"x_min":13,"x_max":556,"o":"m 13 0 m 354 240 q 347 182 347 203 q 367 122 347 147 q 424 93 386 97 q 342 3 406 35 q 204 -28 279 -28 q 65 15 118 -28 q 13 140 13 57 q 25 263 13 185 q 61 465 38 342 q 75 536 74 531 l 108 708 l 450 742 l 354 240 m 550 989 q 556 947 556 967 q 527 881 556 907 q 444 856 499 856 l 104 856 q 100 894 100 868 q 129 963 101 936 q 199 989 157 989 l 550 989 z "},"į":{"ha":453,"x_min":13,"x_max":497,"o":"m 329 1053 q 451 1019 406 1053 q 497 929 497 986 q 449 839 497 871 q 324 807 401 807 q 199 838 246 807 q 151 926 151 869 q 202 1019 151 985 q 329 1053 253 1053 m 354 240 q 347 182 347 203 q 367 122 347 147 q 424 93 386 97 q 363 15 408 46 l 363 14 q 276 -69 308 -24 q 243 -160 243 -114 q 258 -206 243 -192 q 301 -221 272 -221 q 347 -212 325 -221 q 385 -186 369 -204 q 405 -226 399 -207 q 411 -269 411 -244 q 367 -333 411 -307 q 238 -358 322 -358 q 106 -322 153 -358 q 60 -214 60 -285 q 164 -25 60 -94 q 53 26 94 -17 q 13 140 13 68 q 25 263 13 185 q 61 465 38 342 q 75 536 74 531 l 108 708 l 450 742 l 354 240 z "},"ĩ":{"ha":453,"x_min":10,"x_max":599,"o":"m 10 0 m 354 240 q 347 182 347 203 q 367 122 347 147 q 424 93 386 97 q 342 3 406 35 q 204 -28 279 -28 q 65 15 118 -28 q 13 140 13 57 q 25 263 13 185 q 61 465 38 342 q 75 536 74 531 l 108 708 l 450 742 l 354 240 m 569 1014 q 599 938 599 979 q 560 854 599 883 q 453 825 521 825 q 275 840 397 825 q 140 851 161 851 q 84 844 113 851 q 40 826 56 836 q 10 913 10 867 q 49 988 10 961 q 160 1014 88 1014 q 338 1001 193 1014 q 481 990 454 990 q 569 1014 544 990 z "},"j":{"ha":431,"x_min":-182,"x_max":485,"o":"m 317 1053 q 439 1019 393 1053 q 485 929 485 986 q 437 839 485 871 q 311 807 389 807 q 186 838 233 807 q 139 926 139 869 q 190 1019 139 985 q 317 1053 240 1053 m 349 169 q 281 -82 319 14 q 178 -228 242 -178 q 17 -278 115 -278 q -110 -250 -57 -278 q -182 -164 -164 -222 q -92 -129 -126 -162 q -33 -28 -57 -96 q 14 164 -10 40 l 117 708 l 457 742 l 349 169 z "},"ȷ":{"ha":425,"x_min":-182,"x_max":457,"o":"m 349 169 q 281 -82 319 14 q 178 -228 242 -178 q 17 -278 115 -278 q -110 -250 -57 -278 q -182 -164 -164 -222 q -92 -129 -126 -162 q -33 -28 -57 -96 q 14 164 -10 40 l 117 708 l 457 742 l 349 169 z "},"ĵ":{"ha":425,"x_min":-182,"x_max":564,"o":"m 0 0 m 349 169 q 281 -82 319 14 q 178 -228 242 -178 q 17 -278 115 -278 q -110 -250 -57 -278 q -182 -164 -164 -222 q -92 -129 -126 -162 q -33 -28 -57 -96 q 14 164 -10 40 l 117 708 l 457 742 l 349 169 m 564 879 l 488 817 l 317 868 l 99 817 l 53 879 l 303 1046 l 365 1046 l 564 879 z "},"k":{"ha":846,"x_min":-36,"x_max":851,"o":"m 468 840 q 418 679 450 747 q 633 736 497 736 q 851 554 851 736 q 809 413 851 471 q 679 332 767 354 l 731 199 q 768 129 747 154 q 818 103 789 104 q 737 6 796 39 q 608 -28 678 -28 q 479 15 529 -28 q 407 124 429 58 q 385 257 385 189 q 390 322 385 296 q 487 408 449 339 q 525 556 525 476 q 489 629 525 629 q 389 440 425 629 l 303 0 l -36 -33 l 161 972 l 500 1006 l 468 840 z "},"ķ":{"ha":846,"x_min":-36,"x_max":851,"o":"m 0 0 m 468 840 q 418 679 450 747 q 633 736 497 736 q 851 554 851 736 q 809 413 851 471 q 679 332 767 354 l 731 199 q 768 129 747 154 q 818 103 789 104 q 737 6 796 39 q 608 -28 678 -28 q 479 15 529 -28 q 407 124 429 58 q 385 257 385 189 q 390 322 385 296 q 487 408 449 339 q 525 556 525 476 q 489 629 525 629 q 389 440 425 629 l 303 0 l -36 -33 l 161 972 l 500 1006 l 468 840 m 486 -158 q 443 -275 486 -226 q 339 -349 400 -324 q 228 -374 278 -374 q 176 -364 206 -374 q 247 -274 229 -311 q 265 -172 265 -236 q 260 -129 265 -153 q 250 -94 256 -106 q 363 -72 317 -72 q 486 -158 486 -72 z "},"ĸ":{"ha":857,"x_min":-25,"x_max":863,"o":"m 372 599 q 487 710 413 685 q 644 736 561 736 q 863 554 863 736 q 820 413 863 471 q 690 332 778 354 l 742 199 q 779 129 758 154 q 829 103 800 104 q 748 6 807 39 q 619 -28 689 -28 q 490 15 540 -28 q 418 124 440 58 q 396 257 396 189 q 401 322 396 296 q 498 408 460 339 q 536 556 536 476 q 500 629 536 629 q 400 440 436 629 l 314 0 l -25 -33 l 121 708 l 397 742 l 372 599 z "},"l":{"ha":458,"x_min":18,"x_max":504,"o":"m 360 240 q 353 182 353 203 q 372 122 353 147 q 429 93 392 97 q 348 3 411 35 q 210 -28 285 -28 q 71 15 124 -28 q 18 140 18 57 q 31 263 18 185 q 67 465 43 342 q 81 536 79 531 l 160 972 l 504 1006 l 360 240 z "},"ĺ":{"ha":458,"x_min":18,"x_max":582,"o":"m 18 0 m 360 240 q 353 182 353 203 q 372 122 353 147 q 429 93 392 97 q 348 3 411 35 q 210 -28 285 -28 q 71 15 124 -28 q 18 140 18 57 q 31 263 18 185 q 67 465 43 342 q 81 536 79 531 l 160 972 l 504 1006 l 360 240 m 192 1086 l 539 1238 q 572 1202 561 1221 q 582 1156 582 1183 q 525 1054 582 1088 q 378 1019 468 1021 l 211 1015 l 192 1086 z "},"ľ":{"ha":458,"x_min":18,"x_max":733,"o":"m 18 0 m 360 240 q 353 182 353 203 q 372 122 353 147 q 429 93 392 97 q 348 3 411 35 q 210 -28 285 -28 q 71 15 124 -28 q 18 140 18 57 q 31 263 18 185 q 67 465 43 342 q 81 536 79 531 l 160 972 l 504 1006 l 360 240 m 532 979 q 575 993 547 986 q 624 1000 603 1000 q 703 967 672 1000 q 733 879 733 935 q 709 813 733 849 q 639 751 685 776 q 533 725 593 725 q 498 728 511 725 q 482 733 485 732 q 533 815 521 778 q 544 890 544 853 q 532 979 544 933 z "},"ļ":{"ha":458,"x_min":-40,"x_max":504,"o":"m 0 0 m 360 240 q 353 182 353 203 q 372 122 353 147 q 429 93 392 97 q 348 3 411 35 q 210 -28 285 -28 q 71 15 124 -28 q 18 140 18 57 q 31 263 18 185 q 67 465 43 342 q 81 536 79 531 l 160 972 l 504 1006 l 360 240 m 269 -158 q 226 -275 269 -226 q 122 -349 183 -324 q 11 -374 61 -374 q -40 -364 -11 -374 q 31 -274 13 -311 q 49 -172 49 -236 q 44 -129 49 -153 q 33 -94 39 -106 q 146 -72 100 -72 q 269 -158 269 -72 z "},"ŀ":{"ha":582,"x_min":18,"x_max":632,"o":"m 360 240 q 353 182 353 203 q 372 122 353 147 q 429 93 392 97 q 348 3 411 35 q 210 -28 285 -28 q 71 15 124 -28 q 18 140 18 57 q 31 263 18 185 q 67 465 43 342 q 81 536 79 531 l 160 972 l 504 1006 l 360 240 m 550 565 q 610 543 589 565 q 632 486 632 521 q 595 398 632 435 q 504 361 558 361 q 442 383 464 361 q 419 439 419 404 q 458 528 419 490 q 550 565 497 565 z "},"ǉ":{"ha":458,"x_min":-156,"x_max":511,"o":"m 338 1046 q 213 1077 260 1046 q 165 1165 165 1108 q 216 1258 165 1224 q 343 1292 267 1292 q 465 1258 419 1292 q 511 1168 511 1225 q 463 1078 511 1110 q 338 1046 415 1046 m 360 240 q 353 182 353 203 q 372 122 353 147 q 429 93 392 97 q 348 3 411 35 q 210 -28 285 -28 q 147 -21 179 -28 q 43 -39 103 -39 q -84 -11 -31 -39 q -156 75 -137 17 q -65 110 -100 76 q -7 211 -31 143 q 40 403 17 279 l 143 947 l 156 949 l 160 972 l 504 1006 l 360 240 z "},"ł":{"ha":511,"x_min":-47,"x_max":554,"o":"m 525 626 q 547 593 539 614 q 554 553 554 572 q 530 494 554 518 q 450 450 506 469 l 431 444 l 393 240 q 386 182 386 203 q 406 122 386 147 q 463 93 425 97 q 381 3 443 35 q 243 -28 318 -28 q 104 15 157 -28 q 51 140 51 57 q 61 251 51 186 l 71 314 l -15 283 q -47 351 -47 310 q -31 403 -47 379 q 21 439 -15 428 l 100 468 l 193 972 l 538 1006 l 460 601 l 525 626 z "},"m":{"ha":1307,"x_min":-25,"x_max":1285,"o":"m 372 600 q 628 736 439 736 q 828 632 788 736 q 926 712 867 688 q 1065 736 986 736 q 1219 701 1164 736 q 1274 579 1274 667 q 1239 376 1274 521 q 1226 318 1236 363 q 1212 241 1217 274 q 1207 188 1207 208 q 1285 93 1207 103 q 1203 3 1265 35 q 1065 -28 1140 -28 q 926 15 979 -28 q 872 135 872 57 q 882 220 872 169 q 911 356 892 271 q 951 578 951 519 q 925 629 951 629 q 867 573 888 629 q 831 440 847 517 l 746 0 l 406 -33 l 488 340 l 494 369 q 519 487 511 440 q 528 571 528 533 q 500 629 528 629 q 400 440 435 629 l 314 0 l -25 -33 l 121 708 l 397 742 l 372 600 z "},"n":{"ha":879,"x_min":-25,"x_max":857,"o":"m 372 600 q 636 736 442 736 q 794 701 738 736 q 851 581 851 665 q 842 499 851 546 q 815 378 833 451 q 781 188 781 239 q 857 93 781 103 q 775 3 838 35 q 638 -28 713 -28 q 499 15 553 -28 q 446 135 446 57 q 455 215 446 169 q 486 354 464 260 q 526 572 526 513 q 494 629 526 629 q 436 578 456 629 q 400 440 417 528 l 314 0 l -25 -33 l 121 708 l 397 742 l 372 600 z "},"ń":{"ha":879,"x_min":-25,"x_max":857,"o":"m 0 0 m 372 600 q 636 736 442 736 q 794 701 738 736 q 851 581 851 665 q 842 499 851 546 q 815 378 833 451 q 781 188 781 239 q 857 93 781 103 q 775 3 838 35 q 638 -28 713 -28 q 499 15 553 -28 q 446 135 446 57 q 455 215 446 169 q 486 354 464 260 q 526 572 526 513 q 494 629 526 629 q 436 578 456 629 q 400 440 417 528 l 314 0 l -25 -33 l 121 708 l 397 742 l 372 600 m 719 1082 q 772 985 772 1063 q 723 876 772 911 q 586 829 674 842 l 407 801 l 375 874 l 719 1082 z "},"ŉ":{"ha":879,"x_min":-143,"x_max":857,"o":"m 61 1038 q 176 1005 136 1038 q 217 897 217 972 q 179 799 217 853 q 76 709 142 746 q -69 672 11 672 q -119 676 -100 672 q -143 681 -137 679 q -70 797 -89 743 q -51 892 -51 851 q -56 953 -51 928 q -68 1006 -60 978 q -11 1028 -50 1019 q 61 1038 28 1038 m 636 736 q 794 701 738 736 q 851 581 851 665 q 842 499 851 546 q 815 378 833 451 q 781 188 781 239 q 857 93 781 103 q 775 3 838 35 q 638 -28 713 -28 q 499 15 553 -28 q 446 135 446 57 q 455 215 446 169 q 486 354 464 260 q 526 572 526 513 q 494 629 526 629 q 436 578 456 629 q 400 440 417 528 l 314 0 l -25 -33 l 121 708 l 397 742 l 372 600 q 636 736 442 736 z "},"ň":{"ha":879,"x_min":-25,"x_max":857,"o":"m 0 0 m 372 600 q 636 736 442 736 q 794 701 738 736 q 851 581 851 665 q 842 499 851 546 q 815 378 833 451 q 781 188 781 239 q 857 93 781 103 q 775 3 838 35 q 638 -28 713 -28 q 499 15 553 -28 q 446 135 446 57 q 455 215 446 169 q 486 354 464 260 q 526 572 526 513 q 494 629 526 629 q 436 578 456 629 q 400 440 417 528 l 314 0 l -25 -33 l 121 708 l 397 742 l 372 600 m 299 1025 l 375 1088 l 546 981 l 764 1088 l 810 1025 l 601 817 l 456 817 l 299 1025 z "},"ņ":{"ha":879,"x_min":-25,"x_max":857,"o":"m 0 0 m 372 600 q 636 736 442 736 q 794 701 738 736 q 851 581 851 665 q 842 499 851 546 q 815 378 833 451 q 781 188 781 239 q 857 93 781 103 q 775 3 838 35 q 638 -28 713 -28 q 499 15 553 -28 q 446 135 446 57 q 455 215 446 169 q 486 354 464 260 q 526 572 526 513 q 494 629 526 629 q 436 578 456 629 q 400 440 417 528 l 314 0 l -25 -33 l 121 708 l 397 742 l 372 600 m 476 -158 q 433 -275 476 -226 q 329 -349 390 -324 q 218 -374 268 -374 q 167 -364 196 -374 q 238 -274 219 -311 q 256 -172 256 -236 q 251 -129 256 -153 q 240 -94 246 -106 q 353 -72 307 -72 q 476 -158 476 -72 z "},"ṅ":{"ha":879,"x_min":-25,"x_max":857,"o":"m 0 0 m 372 600 q 636 736 442 736 q 794 701 738 736 q 851 581 851 665 q 842 499 851 546 q 815 378 833 451 q 781 188 781 239 q 857 93 781 103 q 775 3 838 35 q 638 -28 713 -28 q 499 15 553 -28 q 446 135 446 57 q 455 215 446 169 q 486 354 464 260 q 526 572 526 513 q 494 629 526 629 q 436 578 456 629 q 400 440 417 528 l 314 0 l -25 -33 l 121 708 l 397 742 l 372 600 m 568 1053 q 690 1019 644 1053 q 736 929 736 986 q 688 839 736 871 q 563 807 640 807 q 438 838 485 807 q 390 926 390 869 q 441 1019 390 985 q 568 1053 492 1053 z "},"ŋ":{"ha":878,"x_min":-25,"x_max":851,"o":"m 397 742 l 372 600 q 636 736 442 736 q 795 701 739 736 q 851 576 851 665 q 839 478 851 544 l 778 169 q 710 -80 747 15 q 609 -226 672 -175 q 446 -278 546 -278 q 317 -250 371 -278 q 246 -164 264 -222 q 342 -130 304 -161 q 408 -28 381 -99 q 457 164 435 42 q 476 267 468 224 q 490 338 485 310 q 519 485 510 431 q 528 572 528 539 q 520 615 528 601 q 496 629 513 629 q 436 578 456 629 q 400 440 417 526 l 314 0 l -25 -33 l 121 708 l 397 742 z "},"ǌ":{"ha":879,"x_min":-25,"x_max":857,"o":"m 563 807 q 438 838 485 807 q 390 926 390 869 q 441 1019 390 985 q 568 1053 492 1053 q 690 1019 644 1053 q 736 929 736 986 q 688 839 736 871 q 563 807 640 807 m 781 188 q 857 93 781 103 q 775 3 838 35 q 638 -28 713 -28 q 556 -15 593 -28 q 447 -214 514 -150 q 268 -278 381 -278 q 141 -250 194 -278 q 69 -164 88 -222 q 163 -126 128 -162 q 225 -8 199 -89 l -25 -33 l 121 708 l 397 742 l 392 711 l 532 725 q 636 736 583 736 l 650 736 l 708 742 l 707 732 q 851 581 851 708 q 842 499 851 546 q 815 378 833 451 q 781 188 781 239 z "},"ñ":{"ha":879,"x_min":-25,"x_max":857,"o":"m 0 0 m 372 600 q 636 736 442 736 q 794 701 738 736 q 851 581 851 665 q 842 499 851 546 q 815 378 833 451 q 781 188 781 239 q 857 93 781 103 q 775 3 838 35 q 638 -28 713 -28 q 499 15 553 -28 q 446 135 446 57 q 455 215 446 169 q 486 354 464 260 q 526 572 526 513 q 494 629 526 629 q 436 578 456 629 q 400 440 417 528 l 314 0 l -25 -33 l 121 708 l 397 742 l 372 600 m 808 1014 q 838 938 838 979 q 799 854 838 883 q 692 825 760 825 q 514 840 636 825 q 379 851 400 851 q 323 844 351 851 q 279 826 294 836 q 249 913 249 867 q 288 988 249 961 q 399 1014 326 1014 q 576 1001 432 1014 q 719 990 693 990 q 808 1014 783 990 z "},"o":{"ha":825,"x_min":15,"x_max":811,"o":"m 486 736 q 724 664 638 736 q 811 418 811 592 q 753 188 811 289 q 588 29 694 86 q 342 -28 481 -28 q 15 296 15 -28 q 74 526 15 426 q 239 681 132 626 q 486 736 346 736 m 458 653 q 383 549 415 653 q 336 310 351 444 q 325 144 325 214 q 335 79 325 103 q 369 56 344 56 q 440 149 411 56 q 485 375 468 242 q 500 569 500 490 q 491 631 500 610 q 458 653 482 653 z "},"ó":{"ha":825,"x_min":15,"x_max":811,"o":"m 15 0 m 486 736 q 724 664 638 736 q 811 418 811 592 q 753 188 811 289 q 588 29 694 86 q 342 -28 481 -28 q 15 296 15 -28 q 74 526 15 426 q 239 681 132 626 q 486 736 346 736 m 458 653 q 383 549 415 653 q 336 310 351 444 q 325 144 325 214 q 335 79 325 103 q 369 56 344 56 q 440 149 411 56 q 485 375 468 242 q 500 569 500 490 q 491 631 500 610 q 458 653 482 653 m 699 1082 q 751 985 751 1063 q 702 876 751 911 q 565 829 653 842 l 386 801 l 354 874 l 699 1082 z "},"ŏ":{"ha":825,"x_min":15,"x_max":849,"o":"m 15 0 m 486 736 q 724 664 638 736 q 811 418 811 592 q 753 188 811 289 q 588 29 694 86 q 342 -28 481 -28 q 15 296 15 -28 q 74 526 15 426 q 239 681 132 626 q 486 736 346 736 m 458 653 q 383 549 415 653 q 336 310 351 444 q 325 144 325 214 q 335 79 325 103 q 369 56 344 56 q 440 149 411 56 q 485 375 468 242 q 500 569 500 490 q 491 631 500 610 q 458 653 482 653 m 511 1021 q 506 964 506 982 l 504 931 q 542 876 504 876 q 581 903 569 876 q 604 986 593 929 l 611 1021 l 849 1021 q 745 867 832 926 q 519 808 658 808 q 317 856 372 808 q 261 983 261 903 q 265 1021 261 1000 l 511 1021 z "},"ô":{"ha":825,"x_min":15,"x_max":811,"o":"m 15 0 m 486 736 q 724 664 638 736 q 811 418 811 592 q 753 188 811 289 q 588 29 694 86 q 342 -28 481 -28 q 15 296 15 -28 q 74 526 15 426 q 239 681 132 626 q 486 736 346 736 m 458 653 q 383 549 415 653 q 336 310 351 444 q 325 144 325 214 q 335 79 325 103 q 369 56 344 56 q 440 149 411 56 q 485 375 468 242 q 500 569 500 490 q 491 631 500 610 q 458 653 482 653 m 785 879 l 708 817 l 538 868 l 319 817 l 274 879 l 524 1046 l 586 1046 l 785 879 z "},"ö":{"ha":825,"x_min":15,"x_max":872,"o":"m 15 0 m 486 736 q 724 664 638 736 q 811 418 811 592 q 753 188 811 289 q 588 29 694 86 q 342 -28 481 -28 q 15 296 15 -28 q 74 526 15 426 q 239 681 132 626 q 486 736 346 736 m 458 653 q 383 549 415 653 q 336 310 351 444 q 325 144 325 214 q 335 79 325 103 q 369 56 344 56 q 440 149 411 56 q 485 375 468 242 q 500 569 500 490 q 491 631 500 610 q 458 653 482 653 m 704 1053 q 826 1019 781 1053 q 872 929 872 986 q 824 839 872 871 q 699 807 776 807 q 574 838 621 807 q 526 926 526 869 q 577 1019 526 985 q 704 1053 628 1053 m 342 1053 q 464 1019 418 1053 q 510 929 510 986 q 462 839 510 871 q 336 807 414 807 q 211 838 258 807 q 164 926 164 869 q 215 1019 164 985 q 342 1053 265 1053 z "},"ọ":{"ha":825,"x_min":15,"x_max":811,"o":"m 15 0 m 486 736 q 724 664 638 736 q 811 418 811 592 q 753 188 811 289 q 588 29 694 86 q 342 -28 481 -28 q 15 296 15 -28 q 74 526 15 426 q 239 681 132 626 q 486 736 346 736 m 458 653 q 383 549 415 653 q 336 310 351 444 q 325 144 325 214 q 335 79 325 103 q 369 56 344 56 q 440 149 411 56 q 485 375 468 242 q 500 569 500 490 q 491 631 500 610 q 458 653 482 653 m 351 -44 q 467 -76 422 -44 q 511 -162 511 -108 q 465 -249 511 -218 q 346 -279 419 -279 q 227 -249 272 -279 q 182 -165 182 -219 q 231 -77 182 -110 q 351 -44 279 -44 z "},"ò":{"ha":825,"x_min":15,"x_max":811,"o":"m 15 0 m 486 736 q 724 664 638 736 q 811 418 811 592 q 753 188 811 289 q 588 29 694 86 q 342 -28 481 -28 q 15 296 15 -28 q 74 526 15 426 q 239 681 132 626 q 486 736 346 736 m 458 653 q 383 549 415 653 q 336 310 351 444 q 325 144 325 214 q 335 79 325 103 q 369 56 344 56 q 440 149 411 56 q 485 375 468 242 q 500 569 500 490 q 491 631 500 610 q 458 653 482 653 m 474 829 q 336 878 386 843 q 286 985 286 913 q 299 1047 286 1021 q 339 1082 313 1072 l 683 874 l 651 801 l 474 829 z "},"ő":{"ha":825,"x_min":15,"x_max":913,"o":"m 15 0 m 486 736 q 724 664 638 736 q 811 418 811 592 q 753 188 811 289 q 588 29 694 86 q 342 -28 481 -28 q 15 296 15 -28 q 74 526 15 426 q 239 681 132 626 q 486 736 346 736 m 458 653 q 383 549 415 653 q 336 310 351 444 q 325 144 325 214 q 335 79 325 103 q 369 56 344 56 q 440 149 411 56 q 485 375 468 242 q 500 569 500 490 q 491 631 500 610 q 458 653 482 653 m 507 1108 q 593 1065 561 1097 q 625 986 625 1032 q 588 888 625 928 q 478 817 551 849 l 339 743 l 269 779 l 507 1108 m 793 1108 q 880 1065 847 1097 q 913 986 913 1032 q 875 889 913 928 q 765 817 838 850 l 625 743 l 556 779 l 793 1108 z "},"ō":{"ha":825,"x_min":15,"x_max":811,"o":"m 15 0 m 486 736 q 724 664 638 736 q 811 418 811 592 q 753 188 811 289 q 588 29 694 86 q 342 -28 481 -28 q 15 296 15 -28 q 74 526 15 426 q 239 681 132 626 q 486 736 346 736 m 458 653 q 383 549 415 653 q 336 310 351 444 q 325 144 325 214 q 335 79 325 103 q 369 56 344 56 q 440 149 411 56 q 485 375 468 242 q 500 569 500 490 q 491 631 500 610 q 458 653 482 653 m 768 989 q 774 947 774 967 q 745 881 774 907 q 663 856 717 856 l 322 856 q 318 894 318 868 q 347 963 319 936 q 417 989 375 989 l 768 989 z "},"ǫ":{"ha":825,"x_min":15,"x_max":811,"o":"m 551 11 q 467 -70 499 -25 q 435 -160 435 -115 q 449 -206 435 -192 q 493 -221 464 -221 q 539 -212 517 -221 q 576 -186 561 -204 q 597 -226 590 -207 q 603 -269 603 -244 q 558 -333 603 -307 q 429 -358 514 -358 q 298 -322 344 -358 q 251 -214 251 -285 q 351 -28 251 -96 l 342 -28 q 15 296 15 -28 q 74 526 15 426 q 239 681 132 626 q 486 736 346 736 q 724 664 638 736 q 811 418 811 592 q 742 170 811 278 q 551 11 674 63 m 325 144 q 335 79 325 103 q 369 56 344 56 q 440 149 411 56 q 485 375 468 242 q 500 569 500 490 q 491 631 500 610 q 458 653 482 653 q 383 549 415 653 q 336 310 351 444 q 325 144 325 214 z "},"ø":{"ha":825,"x_min":15,"x_max":811,"o":"m 743 644 q 811 418 811 564 q 753 188 811 289 q 588 29 694 86 q 342 -28 481 -28 q 161 4 231 -28 q 127 -39 142 -17 q 100 -83 113 -61 q 48 -61 67 -83 q 29 -7 29 -39 q 58 71 29 36 l 69 83 q 15 296 15 161 q 74 526 15 426 q 239 681 132 626 q 486 736 346 736 q 639 714 578 736 l 653 732 q 729 828 704 789 q 776 803 753 828 q 800 744 800 779 q 768 671 800 704 l 743 644 m 372 506 q 353 399 364 467 l 507 568 q 498 628 507 604 q 460 653 489 653 q 414 623 435 653 q 372 506 393 593 m 368 56 q 434 136 403 56 q 485 358 465 217 l 325 183 l 325 163 q 368 56 325 56 z "},"ǿ":{"ha":825,"x_min":15,"x_max":811,"o":"m 15 0 m 743 644 q 811 418 811 564 q 753 188 811 289 q 588 29 694 86 q 342 -28 481 -28 q 161 4 231 -28 q 127 -39 142 -17 q 100 -83 113 -61 q 48 -61 67 -83 q 29 -7 29 -39 q 58 71 29 36 l 69 83 q 15 296 15 161 q 74 526 15 426 q 239 681 132 626 q 486 736 346 736 q 639 714 578 736 l 653 732 q 729 828 704 789 q 776 803 753 828 q 800 744 800 779 q 768 671 800 704 l 743 644 m 372 506 q 353 399 364 467 l 507 568 q 498 628 507 604 q 460 653 489 653 q 414 623 435 653 q 372 506 393 593 m 368 56 q 434 136 403 56 q 485 358 465 217 l 325 183 l 325 163 q 368 56 325 56 m 671 1082 q 724 985 724 1063 q 674 876 724 911 q 538 829 625 842 l 358 801 l 326 874 l 671 1082 z "},"õ":{"ha":825,"x_min":15,"x_max":817,"o":"m 15 0 m 486 736 q 724 664 638 736 q 811 418 811 592 q 753 188 811 289 q 588 29 694 86 q 342 -28 481 -28 q 15 296 15 -28 q 74 526 15 426 q 239 681 132 626 q 486 736 346 736 m 458 653 q 383 549 415 653 q 336 310 351 444 q 325 144 325 214 q 335 79 325 103 q 369 56 344 56 q 440 149 411 56 q 485 375 468 242 q 500 569 500 490 q 491 631 500 610 q 458 653 482 653 m 788 1014 q 817 938 817 979 q 778 854 817 883 q 671 825 739 825 q 493 840 615 825 q 358 851 379 851 q 302 844 331 851 q 258 826 274 836 q 228 913 228 867 q 267 988 228 961 q 378 1014 306 1014 q 556 1001 411 1014 q 699 990 672 990 q 788 1014 763 990 z "},"œ":{"ha":1168,"x_min":15,"x_max":1213,"o":"m 950 736 q 1141 699 1069 736 q 1213 563 1213 661 q 908 331 1213 368 q 785 324 833 325 q 781 292 781 311 q 889 176 781 176 q 993 195 936 176 q 1079 253 1050 214 q 1107 222 1099 238 q 1115 181 1115 206 q 1065 65 1115 111 q 938 -5 1014 18 q 789 -28 863 -28 q 676 -15 732 -28 q 581 21 619 -1 q 343 -28 469 -28 q 101 51 188 -28 q 15 293 15 129 q 73 524 15 424 q 235 681 131 625 q 478 736 340 736 q 697 689 607 736 q 815 724 756 713 q 950 736 874 736 m 929 669 q 794 379 843 669 q 890 414 850 379 q 951 499 931 449 q 972 596 972 550 q 961 649 972 629 q 929 669 950 669 m 369 56 q 440 149 411 56 q 485 375 468 242 q 500 569 500 490 q 491 631 500 610 q 458 653 482 653 q 383 549 415 653 q 336 310 351 444 q 325 144 325 214 q 335 79 325 103 q 369 56 344 56 z "},"p":{"ha":843,"x_min":-71,"x_max":833,"o":"m 378 643 q 460 715 410 693 q 586 738 511 738 q 775 667 717 738 q 833 454 833 596 q 778 199 833 308 q 619 32 722 90 q 374 -26 515 -26 q 301 -22 331 -26 l 265 -250 l -71 -283 l 119 708 l 396 742 l 378 643 m 324 71 q 374 54 342 54 q 428 82 404 54 q 474 190 453 110 q 515 419 496 269 q 524 542 524 486 q 515 616 524 589 q 482 643 506 643 q 425 600 444 643 q 396 494 406 557 l 324 71 z "},"þ":{"ha":843,"x_min":-69,"x_max":833,"o":"m 478 840 q 443 714 469 778 q 505 733 474 728 q 585 738 536 738 q 776 667 718 738 q 833 454 833 597 q 778 197 833 306 q 618 31 722 89 q 374 -26 514 -26 q 303 -22 331 -26 l 267 -250 l -69 -283 l 171 972 l 511 1006 l 478 840 m 325 71 q 375 54 343 54 q 430 82 406 54 q 476 190 454 110 q 517 419 497 269 q 525 542 525 486 q 516 616 525 589 q 483 643 507 643 q 426 600 446 643 q 397 494 407 557 l 325 71 z "},"q":{"ha":854,"x_min":8,"x_max":875,"o":"m 696 -243 l 349 -276 l 378 -132 q 426 29 396 -33 q 335 -12 389 3 q 224 -28 282 -28 q 58 39 107 -28 q 8 239 8 106 q 63 502 8 390 q 224 675 118 614 q 479 736 331 736 q 615 711 568 736 l 875 742 l 696 -243 m 528 636 q 478 653 510 653 q 422 625 447 653 q 374 517 397 597 q 329 288 351 438 q 319 153 319 203 q 360 64 319 64 q 447 213 424 64 l 528 636 z "},"r":{"ha":728,"x_min":-25,"x_max":786,"o":"m 371 600 q 459 703 406 671 q 593 736 513 736 q 736 693 686 736 q 786 564 786 650 q 726 406 786 467 q 571 346 665 346 q 514 353 540 346 q 474 374 488 360 q 520 466 501 408 q 539 571 539 524 q 531 613 539 597 q 501 629 524 629 q 440 583 469 629 q 390 419 410 538 l 325 0 l -25 -33 l 118 708 l 396 742 l 371 600 z "},"ŕ":{"ha":728,"x_min":-25,"x_max":786,"o":"m 0 0 m 371 600 q 459 703 406 671 q 593 736 513 736 q 736 693 686 736 q 786 564 786 650 q 726 406 786 467 q 571 346 665 346 q 514 353 540 346 q 474 374 488 360 q 520 466 501 408 q 539 571 539 524 q 531 613 539 597 q 501 629 524 629 q 440 583 469 629 q 390 419 410 538 l 325 0 l -25 -33 l 118 708 l 396 742 l 371 600 m 494 1082 q 547 985 547 1063 q 498 876 547 911 q 361 829 449 842 l 182 801 l 150 874 l 494 1082 z "},"ř":{"ha":728,"x_min":-25,"x_max":786,"o":"m 0 0 m 371 600 q 459 703 406 671 q 593 736 513 736 q 736 693 686 736 q 786 564 786 650 q 726 406 786 467 q 571 346 665 346 q 514 353 540 346 q 474 374 488 360 q 520 466 501 408 q 539 571 539 524 q 531 613 539 597 q 501 629 524 629 q 440 583 469 629 q 390 419 410 538 l 325 0 l -25 -33 l 118 708 l 396 742 l 371 600 m 74 1025 l 150 1088 l 321 981 l 539 1088 l 585 1025 l 376 817 l 231 817 l 74 1025 z "},"ŗ":{"ha":728,"x_min":-71,"x_max":786,"o":"m 0 0 m 371 600 q 459 703 406 671 q 593 736 513 736 q 736 693 686 736 q 786 564 786 650 q 726 406 786 467 q 571 346 665 346 q 514 353 540 346 q 474 374 488 360 q 520 466 501 408 q 539 571 539 524 q 531 613 539 597 q 501 629 524 629 q 440 583 469 629 q 390 419 410 538 l 325 0 l -25 -33 l 118 708 l 396 742 l 371 600 m 239 -158 q 196 -275 239 -226 q 92 -349 153 -324 q -19 -374 31 -374 q -71 -364 -42 -374 q 0 -274 -18 -311 q 18 -172 18 -236 q 13 -129 18 -153 q 3 -94 8 -106 q 115 -72 69 -72 q 239 -158 239 -72 z "},"ṛ":{"ha":728,"x_min":-25,"x_max":786,"o":"m 0 0 m 371 600 q 459 703 406 671 q 593 736 513 736 q 736 693 686 736 q 786 564 786 650 q 726 406 786 467 q 571 346 665 346 q 514 353 540 346 q 474 374 488 360 q 520 466 501 408 q 539 571 539 524 q 531 613 539 597 q 501 629 524 629 q 440 583 469 629 q 390 419 410 538 l 325 0 l -25 -33 l 118 708 l 396 742 l 371 600 m 151 -44 q 267 -76 222 -44 q 311 -162 311 -108 q 265 -249 311 -218 q 146 -279 219 -279 q 27 -249 72 -279 q -18 -165 -18 -219 q 31 -77 -18 -110 q 151 -44 79 -44 z "},"s":{"ha":658,"x_min":-39,"x_max":679,"o":"m 344 124 q 320 165 344 143 q 246 219 296 186 l 199 251 q 99 344 136 297 q 63 447 63 390 q 110 594 63 529 q 248 698 157 660 q 465 736 339 736 q 624 705 569 736 q 679 599 679 674 q 639 499 679 535 q 521 464 599 464 q 454 479 479 464 q 474 586 474 536 q 456 645 474 625 q 411 665 438 665 q 355 642 381 665 q 329 586 329 618 q 362 507 329 538 q 463 436 394 476 q 573 353 535 393 q 611 246 611 313 q 568 106 611 168 q 439 9 525 44 q 226 -26 353 -26 q 38 5 115 -26 q -39 111 -39 36 q 1 199 -39 164 q 110 233 42 233 q 214 208 171 233 q 197 132 197 163 q 217 70 197 92 q 265 49 236 49 q 320 69 296 49 q 344 124 344 89 z "},"ś":{"ha":658,"x_min":-39,"x_max":701,"o":"m 0 0 m 344 124 q 320 165 344 143 q 246 219 296 186 l 199 251 q 99 344 136 297 q 63 447 63 390 q 110 594 63 529 q 248 698 157 660 q 465 736 339 736 q 624 705 569 736 q 679 599 679 674 q 639 499 679 535 q 521 464 599 464 q 454 479 479 464 q 474 586 474 536 q 456 645 474 625 q 411 665 438 665 q 355 642 381 665 q 329 586 329 618 q 362 507 329 538 q 463 436 394 476 q 573 353 535 393 q 611 246 611 313 q 568 106 611 168 q 439 9 525 44 q 226 -26 353 -26 q 38 5 115 -26 q -39 111 -39 36 q 1 199 -39 164 q 110 233 42 233 q 214 208 171 233 q 197 132 197 163 q 217 70 197 92 q 265 49 236 49 q 320 69 296 49 q 344 124 344 89 m 649 1082 q 701 985 701 1063 q 652 876 701 911 q 515 829 603 842 l 336 801 l 304 874 l 649 1082 z "},"š":{"ha":658,"x_min":-39,"x_max":739,"o":"m 0 0 m 344 124 q 320 165 344 143 q 246 219 296 186 l 199 251 q 99 344 136 297 q 63 447 63 390 q 110 594 63 529 q 248 698 157 660 q 465 736 339 736 q 624 705 569 736 q 679 599 679 674 q 639 499 679 535 q 521 464 599 464 q 454 479 479 464 q 474 586 474 536 q 456 645 474 625 q 411 665 438 665 q 355 642 381 665 q 329 586 329 618 q 362 507 329 538 q 463 436 394 476 q 573 353 535 393 q 611 246 611 313 q 568 106 611 168 q 439 9 525 44 q 226 -26 353 -26 q 38 5 115 -26 q -39 111 -39 36 q 1 199 -39 164 q 110 233 42 233 q 214 208 171 233 q 197 132 197 163 q 217 70 197 92 q 265 49 236 49 q 320 69 296 49 q 344 124 344 89 m 228 1025 l 304 1088 l 475 981 l 693 1088 l 739 1025 l 531 817 l 385 817 l 228 1025 z "},"ş":{"ha":658,"x_min":-39,"x_max":679,"o":"m 521 464 q 454 479 479 464 q 474 586 474 536 q 456 645 474 625 q 411 665 438 665 q 355 642 381 665 q 329 586 329 618 q 362 507 329 538 q 463 436 394 476 q 573 353 535 393 q 611 246 611 313 q 538 71 611 143 q 322 -21 464 -1 l 307 -75 l 311 -75 q 427 -103 382 -75 q 472 -190 472 -132 q 440 -279 472 -240 q 351 -340 407 -318 q 229 -361 294 -361 q 128 -340 165 -361 q 92 -285 92 -319 q 99 -241 92 -264 q 118 -203 106 -218 q 153 -238 132 -226 q 210 -250 174 -250 q 249 -237 231 -250 q 267 -199 267 -224 q 213 -153 267 -153 q 151 -156 190 -153 l 190 -25 q 26 11 92 -21 q -39 111 -39 43 q 1 199 -39 164 q 110 233 42 233 q 214 208 171 233 q 197 132 197 163 q 217 70 197 92 q 265 49 236 49 q 320 69 296 49 q 344 124 344 89 q 320 165 344 143 q 246 219 296 186 l 199 251 q 99 344 136 297 q 63 447 63 390 q 110 594 63 529 q 248 698 157 660 q 465 736 339 736 q 624 705 569 736 q 679 599 679 674 q 639 499 679 535 q 521 464 599 464 z "},"ŝ":{"ha":658,"x_min":-39,"x_max":735,"o":"m 0 0 m 344 124 q 320 165 344 143 q 246 219 296 186 l 199 251 q 99 344 136 297 q 63 447 63 390 q 110 594 63 529 q 248 698 157 660 q 465 736 339 736 q 624 705 569 736 q 679 599 679 674 q 639 499 679 535 q 521 464 599 464 q 454 479 479 464 q 474 586 474 536 q 456 645 474 625 q 411 665 438 665 q 355 642 381 665 q 329 586 329 618 q 362 507 329 538 q 463 436 394 476 q 573 353 535 393 q 611 246 611 313 q 568 106 611 168 q 439 9 525 44 q 226 -26 353 -26 q 38 5 115 -26 q -39 111 -39 36 q 1 199 -39 164 q 110 233 42 233 q 214 208 171 233 q 197 132 197 163 q 217 70 197 92 q 265 49 236 49 q 320 69 296 49 q 344 124 344 89 m 735 879 l 658 817 l 488 868 l 269 817 l 224 879 l 474 1046 l 536 1046 l 735 879 z "},"ș":{"ha":658,"x_min":-39,"x_max":679,"o":"m 0 0 m 344 124 q 320 165 344 143 q 246 219 296 186 l 199 251 q 99 344 136 297 q 63 447 63 390 q 110 594 63 529 q 248 698 157 660 q 465 736 339 736 q 624 705 569 736 q 679 599 679 674 q 639 499 679 535 q 521 464 599 464 q 454 479 479 464 q 474 586 474 536 q 456 645 474 625 q 411 665 438 665 q 355 642 381 665 q 329 586 329 618 q 362 507 329 538 q 463 436 394 476 q 573 353 535 393 q 611 246 611 313 q 568 106 611 168 q 439 9 525 44 q 226 -26 353 -26 q 38 5 115 -26 q -39 111 -39 36 q 1 199 -39 164 q 110 233 42 233 q 214 208 171 233 q 197 132 197 163 q 217 70 197 92 q 265 49 236 49 q 320 69 296 49 q 344 124 344 89 m 340 -158 q 297 -275 340 -226 q 193 -349 254 -324 q 82 -374 132 -374 q 31 -364 60 -374 q 101 -274 83 -311 q 119 -172 119 -236 q 115 -129 119 -153 q 104 -94 110 -106 q 217 -72 171 -72 q 340 -158 340 -72 z "},"ṣ":{"ha":658,"x_min":-39,"x_max":679,"o":"m 0 0 m 344 124 q 320 165 344 143 q 246 219 296 186 l 199 251 q 99 344 136 297 q 63 447 63 390 q 110 594 63 529 q 248 698 157 660 q 465 736 339 736 q 624 705 569 736 q 679 599 679 674 q 639 499 679 535 q 521 464 599 464 q 454 479 479 464 q 474 586 474 536 q 456 645 474 625 q 411 665 438 665 q 355 642 381 665 q 329 586 329 618 q 362 507 329 538 q 463 436 394 476 q 573 353 535 393 q 611 246 611 313 q 568 106 611 168 q 439 9 525 44 q 226 -26 353 -26 q 38 5 115 -26 q -39 111 -39 36 q 1 199 -39 164 q 110 233 42 233 q 214 208 171 233 q 197 132 197 163 q 217 70 197 92 q 265 49 236 49 q 320 69 296 49 q 344 124 344 89 m 253 -44 q 368 -76 324 -44 q 413 -162 413 -108 q 367 -249 413 -218 q 247 -279 321 -279 q 128 -249 174 -279 q 83 -165 83 -219 q 132 -77 83 -110 q 253 -44 181 -44 z "},"ß":{"ha":1142,"x_min":-186,"x_max":1099,"o":"m 160 690 q 310 929 194 858 q 604 1000 425 1000 q 856 956 754 1000 q 957 815 957 911 q 928 750 957 781 q 847 681 900 719 q 780 624 800 643 q 760 581 760 604 q 784 535 760 554 q 864 490 808 517 q 894 476 889 479 q 1000 417 960 443 q 1069 352 1040 392 q 1099 258 1099 313 q 1038 115 1099 181 q 884 12 978 50 q 696 -26 790 -26 q 524 13 600 -26 q 449 131 449 53 q 483 215 449 185 q 590 244 517 244 q 696 219 650 244 q 674 131 674 183 q 690 62 674 86 q 735 38 707 38 q 785 56 765 38 q 804 108 804 74 q 774 177 804 143 q 678 264 743 211 l 622 310 q 530 406 564 358 q 496 503 496 453 q 524 604 496 564 q 608 693 553 644 q 681 767 657 735 q 704 842 704 799 q 683 910 704 883 q 628 938 663 938 q 475 679 526 938 l 350 10 q 285 -167 329 -104 q 174 -256 240 -231 q 10 -281 107 -281 q -111 -258 -68 -281 q -186 -182 -154 -236 q -162 -185 -169 -185 q -52 -129 -104 -185 q 22 26 0 -74 l 160 690 z "},"ſ":{"ha":429,"x_min":-36,"x_max":786,"o":"m 128 793 q 256 958 153 917 q 508 1000 360 1000 q 786 885 786 1000 q 742 813 786 836 q 635 789 697 789 q 542 806 582 789 q 556 849 551 822 q 561 897 561 876 q 555 928 561 918 q 533 939 549 939 q 485 904 503 939 q 456 803 467 869 l 314 0 l -36 -33 l 128 793 z "},"t":{"ha":478,"x_min":28,"x_max":563,"o":"m 454 708 l 563 708 l 550 646 l 444 646 l 369 240 q 363 182 363 203 q 382 122 363 147 q 439 93 401 97 q 358 3 421 35 q 219 -28 294 -28 q 81 15 133 -28 q 28 139 28 57 q 71 435 28 206 l 111 646 l 38 646 l 43 688 q 413 867 224 738 l 490 867 l 454 708 z "},"ŧ":{"ha":478,"x_min":-40,"x_max":563,"o":"m 546 496 q 551 454 551 471 q 520 383 551 411 q 433 354 489 354 l 389 354 l 369 240 q 363 182 363 203 q 382 122 363 147 q 439 93 401 97 q 358 3 421 35 q 219 -28 294 -28 q 81 15 133 -28 q 28 139 28 57 q 35 217 28 167 q 49 315 42 267 l 54 354 l -35 354 q -40 393 -40 368 q -8 467 -39 438 q 67 496 22 496 l 82 496 l 111 646 l 38 646 l 43 688 q 413 867 224 738 l 490 867 l 454 708 l 563 708 l 550 646 l 444 646 l 417 496 l 546 496 z "},"ť":{"ha":478,"x_min":28,"x_max":751,"o":"m 550 979 q 593 993 565 986 q 643 1000 621 1000 q 722 967 692 1000 q 751 879 751 933 q 727 813 751 849 q 657 751 703 776 q 551 725 611 725 q 516 728 529 725 q 500 733 503 732 q 551 815 540 778 q 563 890 563 851 q 558 944 563 917 q 550 979 553 971 m 454 708 l 563 708 l 550 646 l 444 646 l 369 240 q 363 182 363 203 q 382 122 363 147 q 439 93 401 97 q 358 3 421 35 q 219 -28 294 -28 q 81 15 133 -28 q 28 139 28 57 q 71 435 28 206 l 111 646 l 38 646 l 43 688 q 413 867 224 738 l 490 867 l 454 708 z "},"ţ":{"ha":478,"x_min":28,"x_max":563,"o":"m 563 708 l 550 646 l 444 646 l 369 240 q 363 182 363 203 q 382 122 363 147 q 439 93 401 97 q 373 13 424 43 q 258 -25 322 -18 l 244 -75 l 249 -75 q 365 -103 319 -75 q 410 -190 410 -132 q 377 -279 410 -240 q 288 -340 344 -318 q 167 -361 232 -361 q 66 -340 103 -361 q 29 -285 29 -319 q 36 -241 29 -264 q 56 -203 43 -218 q 90 -238 69 -226 q 147 -250 111 -250 q 186 -237 168 -250 q 204 -199 204 -224 q 150 -153 204 -153 q 89 -156 128 -153 l 132 -14 q 56 42 83 3 q 28 139 28 82 q 71 435 28 206 l 111 646 l 38 646 l 43 688 q 413 867 224 738 l 490 867 l 454 708 l 563 708 z "},"ț":{"ha":478,"x_min":-32,"x_max":563,"o":"m 0 0 m 454 708 l 563 708 l 550 646 l 444 646 l 369 240 q 363 182 363 203 q 382 122 363 147 q 439 93 401 97 q 358 3 421 35 q 219 -28 294 -28 q 81 15 133 -28 q 28 139 28 57 q 71 435 28 206 l 111 646 l 38 646 l 43 688 q 413 867 224 738 l 490 867 l 454 708 m 278 -158 q 235 -275 278 -226 q 131 -349 192 -324 q 19 -374 69 -374 q -32 -364 -3 -374 q 39 -274 21 -311 q 57 -172 57 -236 q 52 -129 57 -153 q 42 -94 47 -106 q 154 -72 108 -72 q 278 -158 278 -72 z "},"ṭ":{"ha":478,"x_min":21,"x_max":563,"o":"m 21 0 m 454 708 l 563 708 l 550 646 l 444 646 l 369 240 q 363 182 363 203 q 382 122 363 147 q 439 93 401 97 q 358 3 421 35 q 219 -28 294 -28 q 81 15 133 -28 q 28 139 28 57 q 71 435 28 206 l 111 646 l 38 646 l 43 688 q 413 867 224 738 l 490 867 l 454 708 m 190 -44 q 306 -76 261 -44 q 350 -162 350 -108 q 304 -249 350 -218 q 185 -279 258 -279 q 66 -249 111 -279 q 21 -165 21 -219 q 69 -77 21 -110 q 190 -44 118 -44 z "},"u":{"ha":883,"x_min":17,"x_max":878,"o":"m 785 240 q 778 182 778 203 q 797 122 778 147 q 854 93 817 97 q 773 3 836 35 q 642 -28 710 -28 q 542 -8 588 -28 q 478 51 496 13 q 372 -9 431 10 q 238 -28 314 -28 q 75 4 133 -28 q 17 133 17 36 q 38 310 17 188 q 42 340 39 325 q 46 368 44 354 l 101 708 l 446 742 l 360 313 q 354 283 357 293 q 333 126 333 174 q 367 64 333 64 q 424 110 403 64 q 454 213 446 157 l 538 708 l 878 742 l 785 240 z "},"ú":{"ha":883,"x_min":17,"x_max":878,"o":"m 17 0 m 785 240 q 778 182 778 203 q 797 122 778 147 q 854 93 817 97 q 773 3 836 35 q 642 -28 710 -28 q 542 -8 588 -28 q 478 51 496 13 q 372 -9 431 10 q 238 -28 314 -28 q 75 4 133 -28 q 17 133 17 36 q 38 310 17 188 q 42 340 39 325 q 46 368 44 354 l 101 708 l 446 742 l 360 313 q 354 283 357 293 q 333 126 333 174 q 367 64 333 64 q 424 110 403 64 q 454 213 446 157 l 538 708 l 878 742 l 785 240 m 686 1082 q 739 985 739 1063 q 690 876 739 911 q 553 829 640 842 l 374 801 l 342 874 l 686 1082 z "},"ŭ":{"ha":883,"x_min":17,"x_max":878,"o":"m 17 0 m 785 240 q 778 182 778 203 q 797 122 778 147 q 854 93 817 97 q 773 3 836 35 q 642 -28 710 -28 q 542 -8 588 -28 q 478 51 496 13 q 372 -9 431 10 q 238 -28 314 -28 q 75 4 133 -28 q 17 133 17 36 q 38 310 17 188 q 42 340 39 325 q 46 368 44 354 l 101 708 l 446 742 l 360 313 q 354 283 357 293 q 333 126 333 174 q 367 64 333 64 q 424 110 403 64 q 454 213 446 157 l 538 708 l 878 742 l 785 240 m 499 1021 q 493 964 493 982 l 492 931 q 529 876 492 876 q 569 903 557 876 q 592 986 581 929 l 599 1021 l 836 1021 q 733 867 819 926 q 507 808 646 808 q 304 856 360 808 q 249 983 249 903 q 253 1021 249 1000 l 499 1021 z "},"û":{"ha":883,"x_min":17,"x_max":878,"o":"m 17 0 m 785 240 q 778 182 778 203 q 797 122 778 147 q 854 93 817 97 q 773 3 836 35 q 642 -28 710 -28 q 542 -8 588 -28 q 478 51 496 13 q 372 -9 431 10 q 238 -28 314 -28 q 75 4 133 -28 q 17 133 17 36 q 38 310 17 188 q 42 340 39 325 q 46 368 44 354 l 101 708 l 446 742 l 360 313 q 354 283 357 293 q 333 126 333 174 q 367 64 333 64 q 424 110 403 64 q 454 213 446 157 l 538 708 l 878 742 l 785 240 m 772 879 l 696 817 l 525 868 l 307 817 l 261 879 l 511 1046 l 574 1046 l 772 879 z "},"ü":{"ha":883,"x_min":17,"x_max":878,"o":"m 17 0 m 785 240 q 778 182 778 203 q 797 122 778 147 q 854 93 817 97 q 773 3 836 35 q 642 -28 710 -28 q 542 -8 588 -28 q 478 51 496 13 q 372 -9 431 10 q 238 -28 314 -28 q 75 4 133 -28 q 17 133 17 36 q 38 310 17 188 q 42 340 39 325 q 46 368 44 354 l 101 708 l 446 742 l 360 313 q 354 283 357 293 q 333 126 333 174 q 367 64 333 64 q 424 110 403 64 q 454 213 446 157 l 538 708 l 878 742 l 785 240 m 692 1053 q 814 1019 768 1053 q 860 929 860 986 q 812 839 860 871 q 686 807 764 807 q 561 838 608 807 q 514 926 514 869 q 565 1019 514 985 q 692 1053 615 1053 m 329 1053 q 451 1019 406 1053 q 497 929 497 986 q 449 839 497 871 q 324 807 401 807 q 199 838 246 807 q 151 926 151 869 q 202 1019 151 985 q 329 1053 253 1053 z "},"ụ":{"ha":883,"x_min":17,"x_max":878,"o":"m 17 0 m 785 240 q 778 182 778 203 q 797 122 778 147 q 854 93 817 97 q 773 3 836 35 q 642 -28 710 -28 q 542 -8 588 -28 q 478 51 496 13 q 372 -9 431 10 q 238 -28 314 -28 q 75 4 133 -28 q 17 133 17 36 q 38 310 17 188 q 42 340 39 325 q 46 368 44 354 l 101 708 l 446 742 l 360 313 q 354 283 357 293 q 333 126 333 174 q 367 64 333 64 q 424 110 403 64 q 454 213 446 157 l 538 708 l 878 742 l 785 240 m 365 -44 q 481 -76 436 -44 q 525 -162 525 -108 q 479 -249 525 -218 q 360 -279 433 -279 q 241 -249 286 -279 q 196 -165 196 -219 q 244 -77 196 -110 q 365 -44 293 -44 z "},"ù":{"ha":883,"x_min":17,"x_max":878,"o":"m 17 0 m 785 240 q 778 182 778 203 q 797 122 778 147 q 854 93 817 97 q 773 3 836 35 q 642 -28 710 -28 q 542 -8 588 -28 q 478 51 496 13 q 372 -9 431 10 q 238 -28 314 -28 q 75 4 133 -28 q 17 133 17 36 q 38 310 17 188 q 42 340 39 325 q 46 368 44 354 l 101 708 l 446 742 l 360 313 q 354 283 357 293 q 333 126 333 174 q 367 64 333 64 q 424 110 403 64 q 454 213 446 157 l 538 708 l 878 742 l 785 240 m 461 829 q 324 878 374 843 q 274 985 274 913 q 287 1047 274 1021 q 326 1082 300 1072 l 671 874 l 639 801 l 461 829 z "},"ű":{"ha":883,"x_min":17,"x_max":900,"o":"m 17 0 m 785 240 q 778 182 778 203 q 797 122 778 147 q 854 93 817 97 q 773 3 836 35 q 642 -28 710 -28 q 542 -8 588 -28 q 478 51 496 13 q 372 -9 431 10 q 238 -28 314 -28 q 75 4 133 -28 q 17 133 17 36 q 38 310 17 188 q 42 340 39 325 q 46 368 44 354 l 101 708 l 446 742 l 360 313 q 354 283 357 293 q 333 126 333 174 q 367 64 333 64 q 424 110 403 64 q 454 213 446 157 l 538 708 l 878 742 l 785 240 m 494 1108 q 581 1065 549 1097 q 613 986 613 1032 q 576 888 613 928 q 465 817 539 849 l 326 743 l 257 779 l 494 1108 m 781 1108 q 867 1065 835 1097 q 900 986 900 1032 q 863 889 900 928 q 753 817 825 850 l 613 743 l 543 779 l 781 1108 z "},"ū":{"ha":883,"x_min":17,"x_max":878,"o":"m 17 0 m 785 240 q 778 182 778 203 q 797 122 778 147 q 854 93 817 97 q 773 3 836 35 q 642 -28 710 -28 q 542 -8 588 -28 q 478 51 496 13 q 372 -9 431 10 q 238 -28 314 -28 q 75 4 133 -28 q 17 133 17 36 q 38 310 17 188 q 42 340 39 325 q 46 368 44 354 l 101 708 l 446 742 l 360 313 q 354 283 357 293 q 333 126 333 174 q 367 64 333 64 q 424 110 403 64 q 454 213 446 157 l 538 708 l 878 742 l 785 240 m 756 989 q 761 947 761 967 q 733 881 761 907 q 650 856 704 856 l 310 856 q 306 894 306 868 q 335 963 307 936 q 404 989 363 989 l 756 989 z "},"ų":{"ha":883,"x_min":17,"x_max":878,"o":"m 790 14 q 703 -69 736 -24 q 671 -160 671 -114 q 685 -206 671 -192 q 729 -221 700 -221 q 775 -212 753 -221 q 813 -186 797 -204 q 833 -226 826 -207 q 839 -269 839 -244 q 794 -333 839 -307 q 665 -358 750 -358 q 534 -322 581 -358 q 488 -214 488 -285 q 594 -24 488 -92 q 523 2 554 -17 q 478 51 492 21 q 372 -9 431 10 q 238 -28 314 -28 q 75 4 133 -28 q 17 133 17 36 q 38 310 17 188 q 42 340 39 325 q 46 368 44 354 l 101 708 l 446 742 l 360 313 q 354 283 357 293 q 333 126 333 174 q 367 64 333 64 q 424 110 403 64 q 454 213 446 157 l 538 708 l 878 742 l 785 240 q 778 182 778 203 q 797 122 778 147 q 854 93 817 97 q 790 14 839 46 z "},"ů":{"ha":883,"x_min":17,"x_max":878,"o":"m 17 0 m 785 240 q 778 182 778 203 q 797 122 778 147 q 854 93 817 97 q 773 3 836 35 q 642 -28 710 -28 q 542 -8 588 -28 q 478 51 496 13 q 372 -9 431 10 q 238 -28 314 -28 q 75 4 133 -28 q 17 133 17 36 q 38 310 17 188 q 42 340 39 325 q 46 368 44 354 l 101 708 l 446 742 l 360 313 q 354 283 357 293 q 333 126 333 174 q 367 64 333 64 q 424 110 403 64 q 454 213 446 157 l 538 708 l 878 742 l 785 240 m 492 789 q 390 817 428 789 q 353 900 353 846 q 412 1013 353 969 q 551 1056 471 1056 q 648 1027 613 1056 q 683 944 683 999 q 627 831 683 874 q 492 789 571 789 m 507 846 q 558 872 536 846 q 579 936 579 899 q 567 978 579 963 q 532 994 556 994 q 482 967 501 994 q 463 903 463 940 q 474 861 463 876 q 507 846 485 846 z "},"ũ":{"ha":883,"x_min":17,"x_max":878,"o":"m 17 0 m 785 240 q 778 182 778 203 q 797 122 778 147 q 854 93 817 97 q 773 3 836 35 q 642 -28 710 -28 q 542 -8 588 -28 q 478 51 496 13 q 372 -9 431 10 q 238 -28 314 -28 q 75 4 133 -28 q 17 133 17 36 q 38 310 17 188 q 42 340 39 325 q 46 368 44 354 l 101 708 l 446 742 l 360 313 q 354 283 357 293 q 333 126 333 174 q 367 64 333 64 q 424 110 403 64 q 454 213 446 157 l 538 708 l 878 742 l 785 240 m 775 1014 q 804 938 804 979 q 765 854 804 883 q 658 825 726 825 q 481 840 603 825 q 346 851 367 851 q 290 844 318 851 q 246 826 261 836 q 215 913 215 867 q 254 988 215 961 q 365 1014 293 1014 q 543 1001 399 1014 q 686 990 660 990 q 775 1014 750 990 z "},"v":{"ha":785,"x_min":0,"x_max":817,"o":"m 93 -33 q 57 528 83 354 q 34 630 46 597 q 0 678 22 663 q 89 723 44 710 q 183 736 133 736 q 333 686 290 736 q 385 528 376 636 q 386 401 386 494 q 385 113 386 244 q 501 322 461 179 q 542 600 542 465 q 532 678 542 650 q 669 736 583 736 q 773 706 729 736 q 817 607 817 676 q 767 433 817 540 q 650 232 718 325 q 417 0 528 67 l 93 -33 z "},"w":{"ha":1213,"x_min":0,"x_max":1244,"o":"m 93 -33 q 57 528 83 354 q 34 630 46 597 q 0 678 22 663 q 90 723 46 710 q 185 736 133 736 q 338 684 296 736 q 385 528 381 632 q 388 335 388 447 l 386 113 q 489 317 458 179 q 519 599 519 454 q 510 678 519 650 q 657 736 560 736 q 760 709 724 736 q 813 633 797 682 q 835 504 829 585 q 836 339 836 485 l 836 201 l 836 113 q 940 317 910 179 q 971 599 971 456 q 961 678 971 646 q 1099 736 1010 736 q 1201 706 1158 736 q 1244 607 1244 676 q 1195 432 1244 540 q 1078 232 1146 324 q 966 100 1028 163 q 839 0 904 38 l 601 -32 q 603 115 603 6 q 601 253 603 204 q 556 156 592 208 q 469 62 519 104 q 371 0 419 19 l 93 -33 z "},"ẃ":{"ha":1213,"x_min":0,"x_max":1244,"o":"m 0 0 m 93 -33 q 57 528 83 354 q 34 630 46 597 q 0 678 22 663 q 90 723 46 710 q 185 736 133 736 q 338 684 296 736 q 385 528 381 632 q 388 335 388 447 l 386 113 q 489 317 458 179 q 519 599 519 454 q 510 678 519 650 q 657 736 560 736 q 760 709 724 736 q 813 633 797 682 q 835 504 829 585 q 836 339 836 485 l 836 201 l 836 113 q 940 317 910 179 q 971 599 971 456 q 961 678 971 646 q 1099 736 1010 736 q 1201 706 1158 736 q 1244 607 1244 676 q 1195 432 1244 540 q 1078 232 1146 324 q 966 100 1028 163 q 839 0 904 38 l 601 -32 q 603 115 603 6 q 601 253 603 204 q 556 156 592 208 q 469 62 519 104 q 371 0 419 19 l 93 -33 m 856 1082 q 908 985 908 1063 q 859 876 908 911 q 722 829 810 842 l 543 801 l 511 874 l 856 1082 z "},"ŵ":{"ha":1213,"x_min":0,"x_max":1244,"o":"m 0 0 m 93 -33 q 57 528 83 354 q 34 630 46 597 q 0 678 22 663 q 90 723 46 710 q 185 736 133 736 q 338 684 296 736 q 385 528 381 632 q 388 335 388 447 l 386 113 q 489 317 458 179 q 519 599 519 454 q 510 678 519 650 q 657 736 560 736 q 760 709 724 736 q 813 633 797 682 q 835 504 829 585 q 836 339 836 485 l 836 201 l 836 113 q 940 317 910 179 q 971 599 971 456 q 961 678 971 646 q 1099 736 1010 736 q 1201 706 1158 736 q 1244 607 1244 676 q 1195 432 1244 540 q 1078 232 1146 324 q 966 100 1028 163 q 839 0 904 38 l 601 -32 q 603 115 603 6 q 601 253 603 204 q 556 156 592 208 q 469 62 519 104 q 371 0 419 19 l 93 -33 m 942 879 l 865 817 l 694 868 l 476 817 l 431 879 l 681 1046 l 743 1046 l 942 879 z "},"ẅ":{"ha":1213,"x_min":0,"x_max":1244,"o":"m 0 0 m 93 -33 q 57 528 83 354 q 34 630 46 597 q 0 678 22 663 q 90 723 46 710 q 185 736 133 736 q 338 684 296 736 q 385 528 381 632 q 388 335 388 447 l 386 113 q 489 317 458 179 q 519 599 519 454 q 510 678 519 650 q 657 736 560 736 q 760 709 724 736 q 813 633 797 682 q 835 504 829 585 q 836 339 836 485 l 836 201 l 836 113 q 940 317 910 179 q 971 599 971 456 q 961 678 971 646 q 1099 736 1010 736 q 1201 706 1158 736 q 1244 607 1244 676 q 1195 432 1244 540 q 1078 232 1146 324 q 966 100 1028 163 q 839 0 904 38 l 601 -32 q 603 115 603 6 q 601 253 603 204 q 556 156 592 208 q 469 62 519 104 q 371 0 419 19 l 93 -33 m 861 1053 q 983 1019 938 1053 q 1029 929 1029 986 q 981 839 1029 871 q 856 807 933 807 q 731 838 778 807 q 683 926 683 869 q 734 1019 683 985 q 861 1053 785 1053 m 499 1053 q 621 1019 575 1053 q 667 929 667 986 q 619 839 667 871 q 493 807 571 807 q 368 838 415 807 q 321 926 321 869 q 372 1019 321 985 q 499 1053 422 1053 z "},"ẁ":{"ha":1213,"x_min":0,"x_max":1244,"o":"m 0 0 m 93 -33 q 57 528 83 354 q 34 630 46 597 q 0 678 22 663 q 90 723 46 710 q 185 736 133 736 q 338 684 296 736 q 385 528 381 632 q 388 335 388 447 l 386 113 q 489 317 458 179 q 519 599 519 454 q 510 678 519 650 q 657 736 560 736 q 760 709 724 736 q 813 633 797 682 q 835 504 829 585 q 836 339 836 485 l 836 201 l 836 113 q 940 317 910 179 q 971 599 971 456 q 961 678 971 646 q 1099 736 1010 736 q 1201 706 1158 736 q 1244 607 1244 676 q 1195 432 1244 540 q 1078 232 1146 324 q 966 100 1028 163 q 839 0 904 38 l 601 -32 q 603 115 603 6 q 601 253 603 204 q 556 156 592 208 q 469 62 519 104 q 371 0 419 19 l 93 -33 m 631 829 q 493 878 543 843 q 443 985 443 913 q 456 1047 443 1021 q 496 1082 469 1072 l 840 874 l 808 801 l 631 829 z "},"x":{"ha":779,"x_min":-44,"x_max":813,"o":"m 164 503 q 126 576 144 550 q 75 606 107 601 q 157 703 97 669 q 292 736 217 736 q 392 713 356 736 q 451 636 429 689 l 521 476 q 565 508 554 479 q 575 583 575 536 q 535 703 575 657 q 671 736 596 736 q 813 607 813 736 q 774 489 813 535 q 660 415 735 443 l 558 372 l 624 206 q 713 103 660 107 q 631 6 690 39 q 496 -28 571 -28 q 394 -7 429 -28 q 336 72 358 14 l 264 260 q 193 126 193 249 q 232 6 193 50 q 97 -28 174 -28 q -44 104 -44 -28 q 117 315 -44 257 l 225 363 l 164 503 z "},"y":{"ha":753,"x_min":11,"x_max":810,"o":"m 92 -146 q 131 -35 92 -83 q 240 53 171 13 l 100 44 q 87 326 93 222 q 68 528 81 429 q 48 628 61 594 q 11 678 35 661 q 100 723 56 710 q 194 736 144 736 q 307 713 267 736 q 365 646 347 690 q 389 528 383 601 q 392 449 392 478 l 392 401 l 390 178 q 496 376 456 263 q 536 600 536 489 q 526 678 536 646 q 663 736 575 736 q 766 706 722 736 q 810 607 810 676 q 752 443 810 538 q 635 281 694 349 q 501 133 576 214 q 431 60 453 85 q 393 1 410 36 q 376 -76 376 -33 q 399 -149 376 -115 q 457 -203 421 -183 q 363 -260 418 -242 q 247 -278 307 -278 q 134 -244 176 -278 q 92 -146 92 -211 z "},"ý":{"ha":753,"x_min":11,"x_max":810,"o":"m 11 0 m 92 -146 q 131 -35 92 -83 q 240 53 171 13 l 100 44 q 87 326 93 222 q 68 528 81 429 q 48 628 61 594 q 11 678 35 661 q 100 723 56 710 q 194 736 144 736 q 307 713 267 736 q 365 646 347 690 q 389 528 383 601 q 392 449 392 478 l 392 401 l 390 178 q 496 376 456 263 q 536 600 536 489 q 526 678 536 646 q 663 736 575 736 q 766 706 722 736 q 810 607 810 676 q 752 443 810 538 q 635 281 694 349 q 501 133 576 214 q 431 60 453 85 q 393 1 410 36 q 376 -76 376 -33 q 399 -149 376 -115 q 457 -203 421 -183 q 363 -260 418 -242 q 247 -278 307 -278 q 134 -244 176 -278 q 92 -146 92 -211 m 642 1082 q 694 985 694 1063 q 645 876 694 911 q 508 829 596 842 l 329 801 l 297 874 l 642 1082 z "},"ŷ":{"ha":753,"x_min":11,"x_max":810,"o":"m 11 0 m 92 -146 q 131 -35 92 -83 q 240 53 171 13 l 100 44 q 87 326 93 222 q 68 528 81 429 q 48 628 61 594 q 11 678 35 661 q 100 723 56 710 q 194 736 144 736 q 307 713 267 736 q 365 646 347 690 q 389 528 383 601 q 392 449 392 478 l 392 401 l 390 178 q 496 376 456 263 q 536 600 536 489 q 526 678 536 646 q 663 736 575 736 q 766 706 722 736 q 810 607 810 676 q 752 443 810 538 q 635 281 694 349 q 501 133 576 214 q 431 60 453 85 q 393 1 410 36 q 376 -76 376 -33 q 399 -149 376 -115 q 457 -203 421 -183 q 363 -260 418 -242 q 247 -278 307 -278 q 134 -244 176 -278 q 92 -146 92 -211 m 728 879 l 651 817 l 481 868 l 263 817 l 217 879 l 467 1046 l 529 1046 l 728 879 z "},"ÿ":{"ha":753,"x_min":11,"x_max":815,"o":"m 11 0 m 92 -146 q 131 -35 92 -83 q 240 53 171 13 l 100 44 q 87 326 93 222 q 68 528 81 429 q 48 628 61 594 q 11 678 35 661 q 100 723 56 710 q 194 736 144 736 q 307 713 267 736 q 365 646 347 690 q 389 528 383 601 q 392 449 392 478 l 392 401 l 390 178 q 496 376 456 263 q 536 600 536 489 q 526 678 536 646 q 663 736 575 736 q 766 706 722 736 q 810 607 810 676 q 752 443 810 538 q 635 281 694 349 q 501 133 576 214 q 431 60 453 85 q 393 1 410 36 q 376 -76 376 -33 q 399 -149 376 -115 q 457 -203 421 -183 q 363 -260 418 -242 q 247 -278 307 -278 q 134 -244 176 -278 q 92 -146 92 -211 m 647 1053 q 769 1019 724 1053 q 815 929 815 986 q 767 839 815 871 q 642 807 719 807 q 517 838 564 807 q 469 926 469 869 q 520 1019 469 985 q 647 1053 571 1053 m 285 1053 q 407 1019 361 1053 q 453 929 453 986 q 405 839 453 871 q 279 807 357 807 q 154 838 201 807 q 107 926 107 869 q 158 1019 107 985 q 285 1053 208 1053 z "},"ỳ":{"ha":753,"x_min":11,"x_max":810,"o":"m 11 0 m 92 -146 q 131 -35 92 -83 q 240 53 171 13 l 100 44 q 87 326 93 222 q 68 528 81 429 q 48 628 61 594 q 11 678 35 661 q 100 723 56 710 q 194 736 144 736 q 307 713 267 736 q 365 646 347 690 q 389 528 383 601 q 392 449 392 478 l 392 401 l 390 178 q 496 376 456 263 q 536 600 536 489 q 526 678 536 646 q 663 736 575 736 q 766 706 722 736 q 810 607 810 676 q 752 443 810 538 q 635 281 694 349 q 501 133 576 214 q 431 60 453 85 q 393 1 410 36 q 376 -76 376 -33 q 399 -149 376 -115 q 457 -203 421 -183 q 363 -260 418 -242 q 247 -278 307 -278 q 134 -244 176 -278 q 92 -146 92 -211 m 417 829 q 279 878 329 843 q 229 985 229 913 q 242 1047 229 1021 q 282 1082 256 1072 l 626 874 l 594 801 l 417 829 z "},"ỹ":{"ha":753,"x_min":11,"x_max":810,"o":"m 11 0 m 92 -146 q 131 -35 92 -83 q 240 53 171 13 l 100 44 q 87 326 93 222 q 68 528 81 429 q 48 628 61 594 q 11 678 35 661 q 100 723 56 710 q 194 736 144 736 q 307 713 267 736 q 365 646 347 690 q 389 528 383 601 q 392 449 392 478 l 392 401 l 390 178 q 496 376 456 263 q 536 600 536 489 q 526 678 536 646 q 663 736 575 736 q 766 706 722 736 q 810 607 810 676 q 752 443 810 538 q 635 281 694 349 q 501 133 576 214 q 431 60 453 85 q 393 1 410 36 q 376 -76 376 -33 q 399 -149 376 -115 q 457 -203 421 -183 q 363 -260 418 -242 q 247 -278 307 -278 q 134 -244 176 -278 q 92 -146 92 -211 m 731 1014 q 760 938 760 979 q 721 854 760 883 q 614 825 682 825 q 436 840 558 825 q 301 851 322 851 q 245 844 274 851 q 201 826 217 836 q 171 913 171 867 q 210 988 171 961 q 321 1014 249 1014 q 499 1001 354 1014 q 642 990 615 990 q 731 1014 706 990 z "},"z":{"ha":676,"x_min":-14,"x_max":700,"o":"m 415 447 q 243 479 317 479 q 106 406 132 479 q 63 485 78 438 q 47 578 47 532 q 99 699 47 661 q 239 736 151 736 q 347 728 285 736 q 421 718 410 719 q 579 701 540 701 q 658 717 629 701 q 700 622 700 678 q 670 532 700 571 q 586 457 640 493 l 264 285 q 359 258 321 267 q 431 249 397 249 q 522 265 476 249 q 597 313 568 281 q 643 178 643 261 q 586 22 643 75 q 428 -31 529 -31 q 363 -25 394 -31 q 279 -8 331 -19 q 224 3 271 -7 q 133 13 176 13 q 40 0 96 13 q 0 41 14 17 q -14 104 -14 65 q 12 196 -14 156 q 85 271 38 236 l 415 447 z "},"ź":{"ha":676,"x_min":-14,"x_max":700,"o":"m 0 0 m 415 447 q 243 479 317 479 q 106 406 132 479 q 63 485 78 438 q 47 578 47 532 q 99 699 47 661 q 239 736 151 736 q 347 728 285 736 q 421 718 410 719 q 579 701 540 701 q 658 717 629 701 q 700 622 700 678 q 670 532 700 571 q 586 457 640 493 l 264 285 q 359 258 321 267 q 431 249 397 249 q 522 265 476 249 q 597 313 568 281 q 643 178 643 261 q 586 22 643 75 q 428 -31 529 -31 q 363 -25 394 -31 q 279 -8 331 -19 q 224 3 271 -7 q 133 13 176 13 q 40 0 96 13 q 0 41 14 17 q -14 104 -14 65 q 12 196 -14 156 q 85 271 38 236 l 415 447 m 604 1082 q 657 985 657 1063 q 608 876 657 911 q 471 829 558 842 l 292 801 l 260 874 l 604 1082 z "},"ž":{"ha":676,"x_min":-14,"x_max":700,"o":"m 0 0 m 415 447 q 243 479 317 479 q 106 406 132 479 q 63 485 78 438 q 47 578 47 532 q 99 699 47 661 q 239 736 151 736 q 347 728 285 736 q 421 718 410 719 q 579 701 540 701 q 658 717 629 701 q 700 622 700 678 q 670 532 700 571 q 586 457 640 493 l 264 285 q 359 258 321 267 q 431 249 397 249 q 522 265 476 249 q 597 313 568 281 q 643 178 643 261 q 586 22 643 75 q 428 -31 529 -31 q 363 -25 394 -31 q 279 -8 331 -19 q 224 3 271 -7 q 133 13 176 13 q 40 0 96 13 q 0 41 14 17 q -14 104 -14 65 q 12 196 -14 156 q 85 271 38 236 l 415 447 m 183 1025 l 260 1088 l 431 981 l 649 1088 l 694 1025 l 486 817 l 340 817 l 183 1025 z "},"ż":{"ha":676,"x_min":-14,"x_max":700,"o":"m 0 0 m 415 447 q 243 479 317 479 q 106 406 132 479 q 63 485 78 438 q 47 578 47 532 q 99 699 47 661 q 239 736 151 736 q 347 728 285 736 q 421 718 410 719 q 579 701 540 701 q 658 717 629 701 q 700 622 700 678 q 670 532 700 571 q 586 457 640 493 l 264 285 q 359 258 321 267 q 431 249 397 249 q 522 265 476 249 q 597 313 568 281 q 643 178 643 261 q 586 22 643 75 q 428 -31 529 -31 q 363 -25 394 -31 q 279 -8 331 -19 q 224 3 271 -7 q 133 13 176 13 q 40 0 96 13 q 0 41 14 17 q -14 104 -14 65 q 12 196 -14 156 q 85 271 38 236 l 415 447 m 453 1053 q 575 1019 529 1053 q 621 929 621 986 q 573 839 621 871 q 447 807 525 807 q 322 838 369 807 q 275 926 275 869 q 326 1019 275 985 q 453 1053 376 1053 z "},"ẓ":{"ha":676,"x_min":-14,"x_max":700,"o":"m 0 0 m 415 447 q 243 479 317 479 q 106 406 132 479 q 63 485 78 438 q 47 578 47 532 q 99 699 47 661 q 239 736 151 736 q 347 728 285 736 q 421 718 410 719 q 579 701 540 701 q 658 717 629 701 q 700 622 700 678 q 670 532 700 571 q 586 457 640 493 l 264 285 q 359 258 321 267 q 431 249 397 249 q 522 265 476 249 q 597 313 568 281 q 643 178 643 261 q 586 22 643 75 q 428 -31 529 -31 q 363 -25 394 -31 q 279 -8 331 -19 q 224 3 271 -7 q 133 13 176 13 q 40 0 96 13 q 0 41 14 17 q -14 104 -14 65 q 12 196 -14 156 q 85 271 38 236 l 415 447 m 282 -44 q 397 -76 353 -44 q 442 -162 442 -108 q 396 -249 442 -218 q 276 -279 350 -279 q 158 -249 203 -279 q 113 -165 113 -219 q 161 -77 113 -110 q 282 -44 210 -44 z "},"ﬁ":{"ha":940,"x_min":-12,"x_max":956,"o":"m 842 240 q 835 182 835 203 q 854 122 835 147 q 911 93 874 97 q 830 3 893 35 q 692 -28 767 -28 q 553 15 606 -28 q 500 140 500 57 q 556 493 500 219 l 564 536 l 583 646 l 450 646 l 329 0 l -12 -33 l 119 646 l 21 646 l 33 708 l 135 708 l 164 797 q 254 925 193 881 q 398 985 315 969 q 594 1000 481 1000 q 844 973 732 1000 q 956 861 956 946 q 904 784 956 803 q 782 765 853 765 q 618 825 661 765 q 631 874 631 853 q 617 917 631 900 q 576 935 604 935 q 483 815 507 935 l 463 708 l 931 708 l 842 240 z "},"ﬂ":{"ha":940,"x_min":-12,"x_max":986,"o":"m 633 928 q 617 933 633 932 q 586 935 600 935 q 518 905 540 935 q 483 811 496 875 l 464 708 l 546 708 l 531 646 l 450 646 l 329 0 l -12 -33 l 119 646 l 21 646 l 33 708 l 135 708 l 164 797 q 560 1000 229 1000 q 665 992 626 1000 q 733 969 704 985 l 986 1006 l 842 240 q 835 182 835 203 q 854 122 835 147 q 911 93 874 97 q 830 3 893 35 q 692 -28 767 -28 q 553 15 606 -28 q 500 140 500 57 q 511 249 500 179 q 534 380 522 318 q 549 458 546 442 q 558 504 554 485 q 564 536 561 524 l 633 926 l 633 928 z "},"ª":{"ha":640,"x_min":78,"x_max":701,"o":"m 635 586 q 629 547 629 564 q 643 498 629 521 q 676 475 657 475 q 622 415 665 442 q 529 389 578 389 q 462 404 492 389 q 421 444 432 419 q 366 405 401 421 q 283 389 331 389 q 142 453 192 389 q 92 625 92 518 q 133 792 92 721 q 244 899 174 863 q 401 936 314 936 q 499 917 463 936 l 701 940 l 635 586 m 428 903 q 385 881 404 903 q 348 795 365 858 q 315 613 331 732 q 313 583 315 603 q 310 517 310 542 q 317 458 310 479 q 343 436 324 436 q 388 469 372 436 q 411 554 403 503 l 468 889 q 428 903 454 903 m 588 331 q 592 296 592 314 q 570 238 592 260 q 507 217 549 217 l 82 217 q 78 250 78 236 q 100 308 78 286 q 156 331 122 331 l 588 331 z "},"º":{"ha":621,"x_min":49,"x_max":640,"o":"m 640 699 q 544 466 640 543 q 303 389 449 389 q 131 444 185 389 q 76 608 76 500 q 113 776 76 701 q 223 893 150 850 q 400 936 296 936 q 640 699 640 936 m 328 439 q 380 517 358 439 q 413 691 401 596 q 425 821 425 786 q 392 883 425 883 q 337 808 358 883 q 305 640 315 732 q 294 504 294 549 q 301 456 294 474 q 328 439 308 439 m 56 217 q 51 233 54 224 q 49 253 49 242 q 72 308 49 285 q 126 331 94 331 l 519 331 q 524 318 521 328 q 526 297 526 308 q 503 240 526 263 q 438 217 481 217 l 56 217 z "},"Δ":{"ha":786,"x_min":-125,"x_max":756,"o":"m 678 917 q 728 317 685 782 q 756 0 754 24 l -125 0 l 340 917 l 678 917 m 392 696 q 257 410 310 517 q 178 242 214 321 q 121 101 143 164 l 425 101 l 392 656 l 392 696 z "},"Ω":{"ha":1029,"x_min":19,"x_max":1010,"o":"m 513 149 q 572 239 542 174 q 629 392 603 304 q 669 668 669 539 q 654 798 669 750 q 597 846 639 846 q 502 768 547 846 q 432 572 457 690 q 414 368 414 488 q 419 267 414 306 q 436 182 425 229 l 444 147 l 401 0 l 138 0 q 44 28 68 0 q 19 101 19 57 q 31 167 19 132 q 60 231 42 201 q 137 172 92 192 q 271 153 182 153 l 278 153 q 122 274 176 182 q 68 486 68 365 q 139 733 68 629 q 332 891 210 836 q 606 946 454 946 q 899 853 789 946 q 1010 569 1010 760 q 919 299 1010 407 q 658 154 828 190 l 675 154 q 812 167 753 154 q 906 199 871 181 q 950 231 940 217 q 971 140 971 185 q 930 38 971 75 q 786 0 889 0 l 513 0 l 513 149 z "},"μ":{"ha":897,"x_min":-57,"x_max":893,"o":"m 893 742 l 799 240 q 792 182 792 203 q 811 122 792 147 q 868 93 831 97 q 787 3 850 35 q 656 -28 724 -28 q 556 -8 601 -28 q 492 51 510 13 q 439 18 465 31 q 360 -14 413 6 q 317 -32 344 -19 l 281 -250 l -57 -283 l 57 303 q 68 353 68 353 q 97 524 97 482 q 77 587 97 563 q 19 615 57 611 q 102 705 39 674 q 239 736 165 736 q 378 694 325 736 q 432 572 432 651 q 422 487 432 538 q 390 353 411 436 q 359 219 369 269 q 349 135 349 169 q 354 103 349 115 q 375 90 360 90 q 435 137 407 90 q 482 289 463 183 l 554 708 l 893 742 z "},"π":{"ha":846,"x_min":44,"x_max":850,"o":"m 217 499 l 181 500 q 105 490 139 500 q 51 463 71 479 q 44 556 44 508 q 115 696 44 657 q 292 735 186 735 q 414 728 344 735 q 497 719 483 721 q 664 706 622 706 q 803 742 750 706 q 836 695 822 726 q 850 629 850 664 q 799 520 850 565 q 661 467 749 475 l 656 367 q 649 244 649 274 q 676 131 649 174 q 763 88 703 89 q 597 -36 722 -36 q 491 -2 531 -36 q 451 101 451 32 q 464 220 451 140 q 492 374 476 300 l 513 475 l 361 486 l 269 0 l 46 -31 l 225 499 l 217 499 z "},"¹":{"ha":435,"x_min":49,"x_max":453,"o":"m 444 511 q 449 499 444 508 q 453 467 453 489 q 427 415 453 431 q 340 400 401 400 q 261 403 325 400 q 97 407 124 407 q 51 407 51 407 q 49 419 50 413 q 49 426 49 425 q 66 481 49 461 q 113 501 83 501 l 165 501 l 233 785 q 200 766 222 774 q 160 758 178 758 q 109 780 129 758 q 86 835 89 801 q 207 867 144 844 q 379 938 269 889 l 419 907 l 347 503 l 356 503 q 444 511 390 503 m 49 426 z "},"²":{"ha":469,"x_min":93,"x_max":507,"o":"m 339 944 q 458 913 408 944 q 507 814 507 882 q 482 735 507 771 q 407 665 457 699 q 320 610 375 643 q 236 565 265 578 q 376 554 310 554 q 426 560 406 554 q 461 581 447 565 q 481 544 476 560 q 486 510 486 528 q 329 397 486 397 q 253 403 286 397 q 215 411 221 410 q 160 419 174 419 q 122 406 129 419 q 101 441 110 417 q 93 492 93 465 q 102 538 93 519 q 138 579 111 556 q 236 657 165 603 l 285 694 q 347 774 347 739 q 333 812 347 801 q 296 822 319 822 q 228 803 258 822 q 186 756 197 783 q 149 774 165 754 q 133 822 133 794 q 197 911 133 878 q 339 944 261 944 z "},"³":{"ha":431,"x_min":58,"x_max":471,"o":"m 203 713 q 283 740 257 724 q 308 779 308 757 q 292 810 308 799 q 250 822 276 822 q 203 813 225 822 q 157 782 182 803 q 135 793 143 781 q 128 825 128 806 q 192 915 128 885 q 325 946 256 946 q 430 919 389 946 q 471 840 471 892 q 440 758 471 796 q 347 694 408 719 q 418 646 393 681 q 443 564 443 611 q 380 440 443 489 q 203 390 317 390 q 94 413 129 390 q 58 474 58 435 q 69 516 58 496 q 92 549 79 536 q 186 497 114 497 q 247 516 224 497 q 269 568 269 535 q 249 616 269 597 q 186 635 229 635 l 203 713 z "},"⁄":{"ha":406,"x_min":-74,"x_max":497,"o":"m 39 -122 q -7 -126 26 -126 q -74 -85 -74 -126 q -65 -47 -74 -71 l 388 997 q 426 1000 407 1000 q 481 991 465 1000 q 497 956 497 982 q 485 901 497 928 l 39 -122 z "},"½":{"ha":1142,"x_min":81,"x_max":1049,"o":"m 728 997 q 765 1000 747 1000 q 821 991 804 1000 q 838 956 838 982 q 825 901 838 932 l 378 -122 q 332 -126 365 -126 q 267 -85 267 -126 q 275 -47 267 -71 l 728 997 m 349 490 l 357 490 q 408 494 386 490 q 438 497 431 497 q 447 453 447 478 q 423 403 447 418 q 339 388 399 388 q 272 390 322 388 q 142 394 160 394 l 115 394 q 83 393 94 394 q 81 414 81 404 q 97 468 81 446 q 140 490 114 490 l 179 490 l 247 783 q 186 758 228 758 q 131 783 151 758 q 106 833 110 807 q 233 867 165 842 q 410 943 300 892 l 425 904 l 349 490 m 826 290 q 889 369 889 335 q 875 408 889 397 q 838 418 861 418 q 769 399 800 418 q 728 351 739 379 q 691 370 707 350 q 675 418 675 390 q 739 507 675 474 q 881 540 803 540 q 999 509 950 540 q 1049 410 1049 478 q 1024 331 1049 367 q 949 261 999 294 q 862 206 917 239 q 778 161 807 174 q 918 150 851 150 q 968 156 947 150 q 1003 176 989 161 q 1023 140 1018 156 q 1028 106 1028 124 q 871 -7 1028 -7 q 795 -1 828 -7 q 757 7 763 6 q 701 15 715 15 q 664 1 671 15 q 643 37 651 13 q 635 88 635 61 q 649 142 635 119 q 696 190 664 165 l 826 290 z "},"⅓":{"ha":1147,"x_min":81,"x_max":1108,"o":"m 728 997 q 765 1000 747 1000 q 821 991 804 1000 q 838 956 838 982 q 825 901 838 932 l 378 -122 q 332 -126 365 -126 q 267 -85 267 -126 q 275 -47 267 -71 l 728 997 m 349 490 l 357 490 q 408 494 386 490 q 438 497 431 497 q 447 453 447 478 q 423 403 447 418 q 339 388 399 388 q 272 390 322 388 q 142 394 160 394 l 115 394 q 83 393 94 394 q 81 414 81 404 q 97 468 81 446 q 140 490 114 490 l 179 490 l 247 783 q 186 758 228 758 q 131 783 151 758 q 106 833 110 807 q 233 867 165 842 q 410 943 300 892 l 425 904 l 349 490 m 836 315 q 944 382 944 333 q 928 415 944 403 q 883 426 911 426 q 790 383 838 426 q 763 428 763 385 q 826 520 763 490 q 961 550 889 550 q 1067 523 1025 550 q 1108 444 1108 496 q 1076 360 1108 399 q 983 297 1044 321 q 1057 244 1033 281 q 1081 164 1081 208 q 1053 74 1081 115 q 969 9 1025 33 q 836 -15 914 -15 q 725 8 761 -15 q 689 69 689 31 q 699 113 689 92 q 725 149 710 135 q 762 107 735 121 q 819 93 789 93 q 880 113 857 93 q 903 167 903 133 q 819 235 903 235 l 836 315 z "},"⅔":{"ha":1119,"x_min":50,"x_max":1108,"o":"m 731 997 q 769 1000 753 1000 q 825 991 808 1000 q 842 956 842 982 q 829 901 842 932 l 382 -122 q 336 -126 369 -126 q 271 -85 271 -126 q 279 -47 271 -71 l 731 997 m 242 690 q 304 769 304 735 q 290 808 304 797 q 253 818 276 818 q 185 799 215 818 q 143 751 154 779 q 106 770 122 750 q 90 818 90 790 q 154 907 90 874 q 296 940 218 940 q 415 909 365 940 q 464 810 464 878 q 439 731 464 767 q 364 661 414 694 q 277 606 332 639 q 193 561 222 574 q 333 550 267 550 q 383 556 363 550 q 418 576 404 561 q 438 540 433 556 q 443 506 443 524 q 286 393 443 393 q 210 399 243 393 q 172 407 178 406 q 117 415 131 415 q 79 401 86 415 q 58 437 67 413 q 50 488 50 461 q 65 542 50 519 q 111 590 79 565 l 242 690 m 836 315 q 944 382 944 333 q 928 415 944 403 q 883 426 911 426 q 790 383 838 426 q 763 428 763 385 q 826 520 763 490 q 961 550 889 550 q 1067 523 1025 550 q 1108 444 1108 496 q 1076 361 1108 400 q 982 297 1043 322 q 1057 244 1033 281 q 1081 164 1081 208 q 1052 74 1081 115 q 969 9 1024 33 q 836 -15 914 -15 q 725 8 761 -15 q 689 69 689 31 q 699 113 689 92 q 725 149 710 135 q 762 107 735 121 q 819 93 789 93 q 881 113 857 93 q 904 167 904 133 q 885 215 904 196 q 819 235 865 235 l 836 315 z "},"¼":{"ha":1103,"x_min":81,"x_max":1036,"o":"m 728 997 q 765 1000 747 1000 q 821 991 804 1000 q 838 956 838 982 q 825 901 838 932 l 378 -122 q 332 -126 365 -126 q 267 -85 267 -126 q 275 -47 267 -71 l 728 997 m 349 490 l 357 490 q 408 494 386 490 q 438 497 431 497 q 447 453 447 478 q 423 403 447 418 q 339 388 399 388 q 272 390 322 388 q 142 394 160 394 l 115 394 q 83 393 94 394 q 81 414 81 404 q 97 468 81 446 q 140 490 114 490 l 179 490 l 247 783 q 186 758 228 758 q 131 783 151 758 q 106 833 110 807 q 233 867 165 842 q 410 943 300 892 l 425 904 l 349 490 m 1015 528 q 947 211 969 336 q 992 218 978 214 q 1018 231 1006 222 q 1036 168 1036 200 q 928 93 1036 101 l 914 0 q 857 -17 893 -17 q 801 -2 819 -17 q 782 40 782 13 q 785 72 782 61 l 789 96 q 617 122 706 100 l 613 226 l 904 539 l 1015 528 m 696 217 q 808 210 758 210 q 863 400 825 288 l 696 217 z "},"¾":{"ha":1096,"x_min":35,"x_max":1029,"o":"m 721 997 q 758 1000 740 1000 q 814 991 797 1000 q 831 956 831 982 q 818 901 831 932 l 372 -122 q 326 -126 360 -126 q 260 -85 260 -126 q 268 -47 260 -71 l 721 997 m 182 703 q 289 769 289 721 q 272 802 289 790 q 228 814 256 814 q 136 771 181 814 q 107 815 107 772 q 170 908 107 878 q 306 938 233 938 q 411 910 369 938 q 453 832 453 883 q 421 747 453 786 q 328 685 389 708 q 402 632 378 668 q 426 551 426 596 q 398 463 426 504 q 315 397 369 422 q 182 372 260 372 q 71 395 107 372 q 35 457 35 418 q 44 501 35 479 q 69 536 54 522 q 107 494 81 508 q 164 481 133 481 q 224 501 201 481 q 247 554 247 521 q 164 622 247 622 l 182 703 m 1008 528 q 940 211 963 336 q 985 218 971 214 q 1011 231 999 222 q 1029 168 1029 200 q 921 93 1029 101 l 907 0 q 850 -17 886 -17 q 794 -2 813 -17 q 775 40 775 13 q 778 72 775 61 l 782 96 q 610 122 699 100 l 606 226 l 897 539 l 1008 528 m 689 217 q 801 210 751 210 q 856 400 818 288 l 689 217 z "},"⅛":{"ha":1139,"x_min":81,"x_max":1093,"o":"m 728 997 q 765 1000 747 1000 q 821 991 804 1000 q 838 956 838 982 q 825 901 838 932 l 378 -122 q 332 -126 365 -126 q 267 -85 267 -126 q 275 -47 267 -71 l 728 997 m 349 490 l 357 490 q 408 494 386 490 q 438 497 431 497 q 447 453 447 478 q 423 403 447 418 q 339 388 399 388 q 272 390 322 388 q 142 394 160 394 l 115 394 q 83 393 94 394 q 81 414 81 404 q 97 468 81 446 q 140 490 114 490 l 179 490 l 247 783 q 186 758 228 758 q 131 783 151 758 q 106 833 110 807 q 233 867 165 842 q 410 943 300 892 l 425 904 l 349 490 m 1074 171 q 1042 75 1074 118 q 954 7 1010 32 q 831 -18 899 -18 q 708 13 757 -18 q 660 107 660 44 q 769 256 660 203 q 726 351 726 289 q 756 446 726 403 q 837 514 785 489 q 956 539 889 539 q 1093 433 1093 539 q 1065 348 1093 383 q 990 293 1036 313 q 1058 226 1042 250 q 1074 171 1074 201 m 939 329 q 967 360 958 344 q 976 399 976 375 q 965 440 976 424 q 926 457 953 457 q 886 443 903 457 q 869 407 869 429 q 906 354 869 378 l 939 329 m 819 214 q 799 177 806 200 q 792 129 792 154 q 805 86 792 103 q 842 69 818 69 q 881 83 868 69 q 893 118 893 96 q 888 144 893 131 q 861 176 882 158 l 819 214 z "},"*":{"ha":556,"x_min":79,"x_max":631,"o":"m 574 818 q 621 738 607 782 q 631 685 631 708 q 583 622 631 636 q 528 615 564 615 q 467 621 494 615 l 538 510 q 475 440 511 468 q 404 411 435 411 q 354 440 376 411 q 315 560 324 483 l 228 453 q 143 490 178 464 q 90 564 90 529 q 106 604 90 585 q 204 676 133 644 l 83 724 q 93 817 79 771 q 165 892 117 892 q 289 819 217 892 l 296 949 q 388 968 342 968 q 463 949 442 968 q 485 897 485 931 q 450 786 485 849 l 574 818 z "},"\\":{"ha":468,"x_min":83,"x_max":385,"o":"m 146 926 q 165 1044 150 1006 q 215 1099 179 1083 q 326 1115 251 1115 q 385 1111 372 1115 l 321 -128 q 282 -244 317 -210 q 158 -278 247 -278 q 110 -276 135 -278 q 83 -272 85 -274 l 146 926 z "},"·":{"ha":372,"x_min":28,"x_max":357,"o":"m 197 426 q 313 394 268 426 q 357 308 357 363 q 311 222 357 253 q 192 192 265 192 q 73 222 118 192 q 28 306 28 251 q 76 394 28 361 q 197 426 125 426 z "},"•":{"ha":522,"x_min":67,"x_max":456,"o":"m 456 361 q 400 240 456 283 q 257 197 344 197 q 119 239 171 197 q 67 356 67 281 q 123 477 67 433 q 267 521 179 521 q 403 478 351 521 q 456 361 456 436 z "},":":{"ha":460,"x_min":51,"x_max":494,"o":"m 51 0 m 335 738 q 450 706 406 738 q 494 619 494 674 q 449 533 494 564 q 329 503 403 503 q 210 533 256 503 q 165 617 165 563 q 214 705 165 672 q 335 738 263 738 m 221 206 q 336 174 292 206 q 381 88 381 142 q 335 1 381 32 q 215 -29 289 -29 q 97 1 142 -29 q 51 85 51 31 q 100 173 51 140 q 221 206 149 206 z "},",":{"ha":411,"x_min":-93,"x_max":282,"o":"m 282 74 q 240 -61 282 1 q 127 -160 199 -124 q -28 -197 56 -197 q -71 -194 -53 -197 q -93 -189 -89 -190 q 1 -44 -19 -111 q 22 83 22 22 q 6 190 22 138 q 62 212 24 203 q 135 221 100 221 q 242 183 201 221 q 282 74 282 144 z "},"…":{"ha":1119,"x_min":39,"x_max":1068,"o":"m 39 0 m 908 206 q 1024 174 979 206 q 1068 88 1068 142 q 1022 1 1068 32 q 903 -29 976 -29 q 784 1 829 -29 q 739 85 739 31 q 788 173 739 140 q 908 206 836 206 m 208 206 q 324 174 279 206 q 368 88 368 142 q 322 1 368 32 q 203 -29 276 -29 q 84 1 129 -29 q 39 85 39 31 q 88 173 39 140 q 208 206 136 206 m 556 206 q 671 174 626 206 q 715 88 715 142 q 669 1 715 32 q 550 -29 624 -29 q 431 1 476 -29 q 386 85 386 31 q 435 173 386 140 q 556 206 483 206 z "},"!":{"ha":525,"x_min":82,"x_max":510,"o":"m 253 250 q 157 279 192 250 q 122 357 122 308 l 122 358 l 122 361 l 232 922 q 353 944 288 944 q 469 902 428 944 q 510 785 510 860 q 492 681 510 732 q 438 557 474 631 q 378 415 399 475 q 356 290 357 356 q 253 250 322 250 m 251 206 q 367 174 322 206 q 411 88 411 142 q 365 1 411 32 q 246 -29 319 -29 q 127 1 172 -29 q 82 85 82 31 q 131 173 82 140 q 251 206 179 206 z "},"¡":{"ha":525,"x_min":6,"x_max":538,"o":"m 378 736 q 493 704 449 736 q 538 618 538 672 q 492 532 538 563 q 372 501 446 501 q 253 531 299 501 q 208 615 208 561 q 257 703 208 671 q 378 736 306 736 m 283 -215 q 163 -237 228 -237 q 46 -195 86 -237 q 6 -78 6 -153 q 24 26 6 -25 q 78 150 42 76 q 138 292 117 232 q 160 417 158 351 q 263 457 193 457 q 358 428 324 457 q 393 350 393 399 q 393 351 393 349 q 392 346 393 354 l 283 -215 z "},"#":{"ha":800,"x_min":8,"x_max":822,"o":"m 772 372 q 781 313 781 339 q 756 219 781 251 q 674 188 731 188 l 633 188 l 621 90 q 576 24 613 49 q 492 0 540 0 q 404 17 453 0 l 435 188 l 317 188 l 296 90 q 254 24 286 47 q 175 0 222 0 q 89 17 133 0 l 117 188 l 18 188 q 8 246 8 218 q 117 372 8 372 l 144 372 l 169 501 l 56 501 q 47 564 47 535 q 84 658 47 622 q 175 694 121 694 l 215 694 l 239 824 q 276 891 247 867 q 351 915 304 915 q 440 897 386 915 l 407 694 l 532 694 l 556 824 q 592 891 563 867 q 668 915 622 915 q 756 897 704 915 l 724 694 l 814 694 q 822 633 822 661 q 805 562 822 592 q 763 517 788 532 q 714 501 738 501 l 681 501 l 657 372 l 772 372 m 461 372 l 488 501 l 367 501 l 342 372 l 461 372 z "},".":{"ha":371,"x_min":-22,"x_max":307,"o":"m 147 206 q 263 174 218 206 q 307 88 307 142 q 261 1 307 32 q 142 -29 215 -29 q 23 1 68 -29 q -22 85 -22 31 q 26 173 -22 140 q 147 206 75 206 z "},"?":{"ha":753,"x_min":76,"x_max":786,"o":"m 786 769 q 738 633 786 696 q 624 524 690 571 q 454 419 557 478 q 304 323 351 360 q 257 249 257 286 q 187 287 217 249 q 157 382 157 325 q 182 481 157 439 q 242 551 207 524 q 336 614 278 579 q 420 671 389 647 q 472 728 451 694 q 493 806 493 761 q 483 847 493 833 q 444 861 474 861 q 363 821 393 861 q 333 722 333 781 q 346 658 333 685 q 251 650 314 650 q 78 763 78 650 q 193 900 78 856 q 454 944 308 944 q 697 905 607 944 q 786 769 786 865 m 246 206 q 361 174 317 206 q 406 88 406 142 q 360 1 406 32 q 240 -29 314 -29 q 122 1 167 -29 q 76 85 76 31 q 125 173 76 140 q 246 206 174 206 z "},"¿":{"ha":753,"x_min":-33,"x_max":740,"o":"m 581 736 q 696 704 651 736 q 740 618 740 672 q 694 532 740 563 q 575 501 649 501 q 456 531 501 501 q 411 615 411 561 q 460 703 411 671 q 581 736 508 736 m -33 -61 q 15 75 -33 13 q 129 184 63 138 q 299 289 196 231 q 449 385 401 349 q 496 460 496 422 q 566 422 536 460 q 596 326 596 383 q 571 228 596 269 q 511 159 546 186 q 417 94 476 132 q 333 39 364 63 q 281 -19 301 15 q 260 -97 260 -53 q 269 -139 260 -125 q 308 -153 279 -153 q 390 -112 360 -153 q 419 -14 419 -72 q 407 50 419 24 q 501 58 439 58 q 675 -54 675 58 q 560 -192 675 -147 q 299 -236 444 -236 q 56 -197 146 -236 q -33 -61 -33 -157 z "},"\"":{"ha":653,"x_min":90,"x_max":700,"o":"m 90 619 q 134 818 117 711 q 153 1019 151 925 q 240 1028 211 1028 q 344 993 306 1028 q 383 901 383 958 q 365 806 383 864 q 317 696 346 749 q 257 619 288 643 l 90 619 m 407 619 q 451 818 433 711 q 469 1019 468 925 q 557 1028 528 1028 q 661 993 622 1028 q 700 901 700 958 q 681 806 700 864 q 633 696 663 749 q 574 619 604 643 l 407 619 z "},"'":{"ha":288,"x_min":81,"x_max":372,"o":"m 81 619 q 124 817 107 710 q 142 1019 140 925 q 229 1028 200 1028 q 333 993 294 1028 q 372 901 372 958 q 353 806 372 864 q 306 695 335 747 q 246 619 276 643 l 81 619 z "},";":{"ha":456,"x_min":-50,"x_max":453,"o":"m 0 0 m 293 738 q 408 706 364 738 q 453 619 453 674 q 407 533 453 564 q 288 503 361 503 q 169 533 214 503 q 124 617 124 563 q 172 705 124 672 q 293 738 221 738 m 325 74 q 283 -61 325 1 q 170 -160 242 -124 q 15 -197 99 -197 q -28 -194 -10 -197 q -50 -189 -46 -190 q 44 -44 24 -111 q 65 83 65 22 q 49 190 65 138 q 105 212 67 203 q 178 221 143 221 q 285 183 244 221 q 325 74 325 144 z "},"/":{"ha":431,"x_min":-122,"x_max":551,"o":"m 93 -272 q 62 -276 89 -274 q 10 -278 35 -278 q -91 -258 -60 -278 q -122 -196 -122 -239 q -110 -133 -122 -165 l 339 1108 q 406 1113 368 1113 q 518 1096 485 1113 q 551 1036 551 1079 q 525 922 551 997 l 93 -272 z "},"_":{"ha":703,"x_min":-67,"x_max":629,"o":"m 622 -50 q 629 -94 629 -74 q 597 -170 629 -140 q 507 -200 565 -200 l -61 -200 q -67 -161 -67 -182 q -36 -81 -67 -111 q 43 -50 -6 -50 l 622 -50 z "},"{":{"ha":514,"x_min":38,"x_max":719,"o":"m 564 1111 q 719 1100 647 1111 l 701 1010 l 656 1010 q 558 983 593 1010 q 511 894 522 956 l 453 574 q 399 481 440 510 q 269 442 358 453 q 374 411 344 432 q 404 340 404 390 q 399 282 404 318 l 342 -6 q 332 -76 332 -50 q 358 -149 332 -124 q 433 -175 385 -175 l 479 -175 l 463 -267 q 301 -278 369 -278 q 86 -157 86 -278 q 93 -101 86 -129 l 158 235 q 164 290 164 268 q 132 356 164 333 q 38 379 100 379 l 60 489 q 176 518 136 489 q 229 614 217 547 l 292 956 q 374 1075 308 1039 q 564 1111 440 1111 z "},"}":{"ha":493,"x_min":-187,"x_max":504,"o":"m -124 -176 q -26 -149 -61 -176 q 21 -61 8 -122 l 89 296 q 142 388 101 360 q 272 426 183 417 q 168 458 197 438 q 139 528 139 479 q 144 588 139 565 l 194 860 q 200 903 200 885 q 97 1008 200 1008 l 51 1008 l 69 1100 q 228 1111 163 1111 q 381 1080 325 1111 q 438 972 438 1049 q 433 928 438 956 q 424 867 429 900 q 415 815 418 835 q 402 739 410 783 q 385 633 394 694 q 379 579 379 603 q 411 512 381 533 q 504 490 442 490 l 482 381 q 366 351 407 381 q 313 256 325 322 l 239 -122 q 158 -242 224 -206 q -32 -278 92 -278 q -187 -267 -115 -278 l -171 -176 l -124 -176 z "},"[":{"ha":497,"x_min":-11,"x_max":651,"o":"m 651 1111 q 609 1044 643 1068 q 518 1019 575 1019 l 463 1019 l 238 -185 l 265 -185 q 355 -201 328 -185 q 382 -257 382 -218 q 381 -278 382 -272 l -11 -278 l 250 1111 l 651 1111 z "},"]":{"ha":511,"x_min":-139,"x_max":515,"o":"m 268 1018 l 221 1018 q 142 1035 164 1018 q 121 1094 121 1051 q 122 1111 121 1106 l 515 1111 l 254 -278 l -139 -278 q -14 -186 -121 -186 l 43 -186 l 268 1018 z "},"(":{"ha":511,"x_min":61,"x_max":651,"o":"m 651 1083 q 450 856 529 1000 q 335 540 371 711 q 299 196 299 369 q 322 -60 299 56 q 390 -250 344 -176 q 340 -278 382 -278 q 206 -208 271 -278 q 101 -17 142 -137 q 61 242 61 103 q 140 647 61 443 q 340 981 218 850 q 582 1111 463 1111 q 651 1083 632 1111 z "},")":{"ha":490,"x_min":-162,"x_max":422,"o":"m 93 1083 q 112 1103 97 1094 q 150 1111 126 1111 q 278 1039 215 1111 q 382 846 342 967 q 422 588 422 725 q 343 186 422 389 q 142 -147 264 -17 q -99 -278 21 -278 q -162 -250 -150 -278 q 35 -26 -43 -169 q 148 290 113 118 q 183 636 183 461 q 160 894 183 778 q 93 1083 138 1011 z "},"—":{"ha":1472,"x_min":-7,"x_max":1481,"o":"m 1472 410 q 1481 365 1481 382 q 1448 289 1481 318 q 1364 260 1415 260 l -1 260 q -7 301 -7 278 q 20 378 -7 347 q 90 410 47 410 l 1472 410 z "},"–":{"ha":728,"x_min":-7,"x_max":736,"o":"m 729 410 q 736 363 736 379 q 703 288 735 317 q 613 260 671 260 l -1 260 q -7 299 -7 278 q 24 379 -7 349 q 103 410 54 410 l 729 410 z "},"-":{"ha":478,"x_min":17,"x_max":460,"o":"m 351 415 q 388 424 376 415 q 404 451 399 432 q 446 410 432 440 q 460 349 460 381 q 434 281 460 307 q 365 254 408 254 l 143 254 q 102 247 113 254 q 86 226 92 239 q 78 208 81 213 q 32 257 47 226 q 17 322 17 288 q 38 389 17 363 q 100 415 58 415 l 351 415 z "},"­":{"ha":478,"x_min":17,"x_max":460,"o":"m 351 415 q 388 424 376 415 q 404 451 399 432 q 446 410 432 440 q 460 349 460 381 q 434 281 460 307 q 365 254 408 254 l 143 254 q 102 247 113 254 q 86 226 92 239 q 78 208 81 213 q 32 257 47 226 q 17 322 17 288 q 38 389 17 363 q 100 415 58 415 l 351 415 z "},"«":{"ha":761,"x_min":24,"x_max":783,"o":"m 263 708 l 444 708 l 272 440 l 338 175 l 161 175 l 24 440 l 263 708 m 601 708 l 783 708 l 611 440 l 676 175 l 500 175 l 363 440 l 601 708 z "},"»":{"ha":793,"x_min":-15,"x_max":736,"o":"m 397 440 l 160 175 l -15 175 l 149 440 l 76 708 l 260 708 l 397 440 m 736 440 l 499 175 l 324 175 l 488 440 l 415 708 l 599 708 l 736 440 z "},"‹":{"ha":468,"x_min":42,"x_max":463,"o":"m 281 708 l 463 708 l 290 440 l 356 175 l 179 175 l 42 440 l 281 708 z "},"›":{"ha":472,"x_min":13,"x_max":425,"o":"m 425 440 l 188 175 l 13 175 l 176 440 l 104 708 l 288 708 l 425 440 z "}}}
